<svg xmlns="http://www.w3.org/2000/svg" xmlns:xlink="http://www.w3.org/1999/xlink" viewBox="0 0 659.6 594.15"><defs><style>.cls-1,.cls-10,.cls-11,.cls-12,.cls-13,.cls-14,.cls-15,.cls-16,.cls-17,.cls-18,.cls-19,.cls-20,.cls-21,.cls-22,.cls-23,.cls-24,.cls-4,.cls-5,.cls-6,.cls-7,.cls-8,.cls-9{fill:none;}.cls-2{clip-path:url(#clip-path);}.cls-3{opacity:0.06;}.cls-10,.cls-11,.cls-12,.cls-13,.cls-14,.cls-15,.cls-16,.cls-17,.cls-18,.cls-19,.cls-20,.cls-21,.cls-22,.cls-23,.cls-24,.cls-4,.cls-5,.cls-6,.cls-7,.cls-8,.cls-9{stroke:#36a4ff;stroke-linecap:round;stroke-miterlimit:10;stroke-width:3px;}.cls-5{stroke-dasharray:6.29 9.44;}.cls-6{stroke-dasharray:9.44 6.29 6.29 9.44;}.cls-7{stroke-dasharray:6.22 9.33;}.cls-8{stroke-dasharray:9.33 6.22 6.22 9.33;}.cls-9{stroke-dasharray:6.29 9.44;}.cls-10{stroke-dasharray:9.44 6.29 6.29 9.44;}.cls-11{stroke-dasharray:6.1 9.15;}.cls-12{stroke-dasharray:9.15 6.1 6.1 9.15;}.cls-13{stroke-dasharray:6.08 9.11;}.cls-14{stroke-dasharray:9.11 6.08 6.08 9.11;}.cls-15{stroke-dasharray:6.29 9.44;}.cls-16{stroke-dasharray:9.44 6.29 6.29 9.44;}.cls-17{stroke-dasharray:6.08 9.12;}.cls-18{stroke-dasharray:9.12 6.08 6.08 9.12;}.cls-19{stroke-dasharray:5.94 8.9;}.cls-20{stroke-dasharray:8.9 5.94 5.94 8.9;}.cls-21{stroke-dasharray:6.22 9.33;}.cls-22{stroke-dasharray:9.33 6.22 6.22 9.33;}.cls-23{stroke-dasharray:6.51 9.77;}.cls-24{stroke-dasharray:9.77 6.51 6.51 9.77;}</style><clipPath id="clip-path"><rect class="cls-1" x="123.67" y="-15.77" width="578" height="633.12"/></clipPath></defs><title>rainbackground</title><g id="Layer_2" data-name="Layer 2"><g id="Layer_1-2" data-name="Layer 1"><g class="cls-2"><g class="cls-3"><line class="cls-4" x1="493.84" y1="28.1" x2="489.59" y2="30.2"/><line class="cls-5" x1="483.95" y1="32.98" x2="474.07" y2="37.86"/><line class="cls-6" x1="469.84" y1="39.95" x2="248.29" y2="149.27"/><line class="cls-4" x1="244.05" y1="151.36" x2="239.8" y2="153.45"/><line class="cls-4" x1="337.79" y1="1.5" x2="333.54" y2="3.6"/><line class="cls-7" x1="327.96" y1="6.35" x2="318.2" y2="11.16"/><line class="cls-8" x1="314.02" y1="13.23" x2="123.01" y2="107.48"/><line class="cls-4" x1="118.83" y1="109.54" x2="114.58" y2="111.64"/><line class="cls-4" x1="543.5" y1="481.26" x2="539.25" y2="483.36"/><line class="cls-9" x1="533.61" y1="486.14" x2="523.74" y2="491.01"/><line class="cls-10" x1="519.5" y1="493.1" x2="326.24" y2="588.47"/><line class="cls-4" x1="322.01" y1="590.56" x2="317.75" y2="592.65"/><line class="cls-4" x1="179.53" y1="181.84" x2="175.28" y2="183.94"/><line class="cls-11" x1="169.81" y1="186.64" x2="160.23" y2="191.36"/><line class="cls-12" x1="156.13" y1="193.39" x2="23.41" y2="258.88"/><line class="cls-4" x1="19.3" y1="260.9" x2="15.05" y2="263"/><line class="cls-4" x1="619.82" y1="91.68" x2="615.57" y2="93.78"/><line class="cls-13" x1="610.12" y1="96.46" x2="600.59" y2="101.17"/><line class="cls-14" x1="596.5" y1="103.19" x2="437.13" y2="181.83"/><line class="cls-4" x1="433.05" y1="183.84" x2="428.8" y2="185.94"/><line class="cls-4" x1="1.5" y1="393.51" x2="5.75" y2="391.41"/><line class="cls-15" x1="11.39" y1="388.63" x2="21.27" y2="383.75"/><line class="cls-16" x1="25.5" y1="381.67" x2="331.67" y2="230.59"/><line class="cls-4" x1="335.9" y1="228.5" x2="340.15" y2="226.4"/><line class="cls-4" x1="658.1" y1="203.52" x2="653.85" y2="205.61"/><line class="cls-17" x1="648.39" y1="208.3" x2="638.85" y2="213.02"/><line class="cls-18" x1="634.76" y1="215.03" x2="338.84" y2="361.05"/><line class="cls-4" x1="334.75" y1="363.07" x2="330.5" y2="365.17"/><line class="cls-4" x1="44.02" y1="506.53" x2="48.27" y2="504.43"/><line class="cls-19" x1="53.59" y1="501.8" x2="62.91" y2="497.21"/><line class="cls-20" x1="66.9" y1="495.24" x2="249.22" y2="405.27"/><line class="cls-4" x1="253.21" y1="403.31" x2="257.46" y2="401.21"/><line class="cls-4" x1="641.64" y1="327.63" x2="637.39" y2="329.73"/><line class="cls-21" x1="631.81" y1="332.48" x2="622.05" y2="337.3"/><line class="cls-22" x1="617.86" y1="339.36" x2="538.35" y2="378.6"/><line class="cls-4" x1="534.16" y1="380.66" x2="529.91" y2="382.76"/><line class="cls-4" x1="474.4" y1="410.15" x2="470.15" y2="412.25"/><line class="cls-23" x1="464.31" y1="415.13" x2="454.09" y2="420.18"/><line class="cls-24" x1="449.71" y1="422.34" x2="162.13" y2="564.24"/><line class="cls-4" x1="157.75" y1="566.4" x2="153.5" y2="568.5"/></g></g></g></g></svg>