<?xml version="1.0" encoding="utf-8"?>
<!-- Generator: Adobe Illustrator 20.0.0, SVG Export Plug-In . SVG Version: 6.00 Build 0)  -->
<svg version="1.1" id="Layer_1" xmlns="http://www.w3.org/2000/svg" xmlns:xlink="http://www.w3.org/1999/xlink" x="0px" y="0px"
	 viewBox="0 0 161 458" style="enable-background:new 0 0 161 458;" xml:space="preserve">
<style type="text/css">
	.st0{opacity:0.7;}
	.st1{opacity:0.2;clip-path:url(#SVGID_2_);}
	.st2{fill:#36A4FF;}
	.st3{fill:none;stroke:#4C708F;stroke-width:7;stroke-miterlimit:10;}
</style>
<g class="st0">
	<defs>
		<rect id="SVGID_1_" x="0.3" y="-10.1" class="st0" width="195.8" height="534.3"/>
	</defs>
	<clipPath id="SVGID_2_">
		<use xlink:href="#SVGID_1_"  style="overflow:visible;"/>
	</clipPath>
	<g class="st1">
		<ellipse class="st2" cx="9" cy="330.6" rx="78.3" ry="20.2"/>
		<path class="st2" d="M-69.3,330.6l30.6,98.5c0,5.6,26.1,10.1,47.7,10.1c21.6,0,47.7-4.5,47.7-10.1l30.6-98.5"/>
		<path class="st2" d="M-13.5,234.2c-37.5,25.4-90.3,0-90.3-44.2c0-20.2,11.7-37.8,29-47.2C-91.5,89.7-49.6,36.3,8.7,36.3
			c43.4,0,79.2,30.1,86,69.4c34.1,8.3,59.3,37.5,59.3,72.4c0,60.6-72,95.6-123.6,61.5"/>
		<path class="st2" d="M9.4,219.3c0,0,12.2-86.7,70.6-66.6"/>
		<path class="st2" d="M9.1,203c0,0-26-65.2-52.9-37.7"/>
		<line class="st2" x1="9.1" y1="114" x2="9.1" y2="322.1"/>
	</g>
	<g class="st1">
		<ellipse class="st3" cx="-9.8" cy="321.1" rx="78.3" ry="20.2"/>
		<path class="st3" d="M-88.1,321.1l30.6,98.5c0,5.6,26.1,10.1,47.7,10.1c21.6,0,47.7-4.5,47.7-10.1l30.6-98.5"/>
		<path class="st3" d="M-32.3,224.7c-37.5,25.4-90.3,0-90.3-44.2c0-20.2,11.7-37.8,29-47.2C-110.3,80.2-68.5,26.7-10.1,26.7
			c43.4,0,79.2,30.1,86,69.4c34.1,8.3,59.3,37.5,59.3,72.4c0,60.6-72,95.6-123.6,61.5"/>
		<path class="st3" d="M-9.4,209.8c0,0,12.2-86.7,70.6-66.6"/>
		<path class="st3" d="M-9.7,193.5c0,0-26-65.2-52.9-37.7"/>
		<line class="st3" x1="-9.7" y1="104.5" x2="-9.7" y2="312.5"/>
	</g>
</g>
</svg>
