<?xml version="1.0" encoding="utf-8"?>
<!-- Generator: Adobe Illustrator 20.0.0, SVG Export Plug-In . SVG Version: 6.00 Build 0)  -->
<svg version="1.1" id="Layer_1" xmlns="http://www.w3.org/2000/svg" xmlns:xlink="http://www.w3.org/1999/xlink" x="0px" y="0px"
	 viewBox="0 0 114.5 335.7" style="enable-background:new 0 0 114.5 335.7;" xml:space="preserve">
<style type="text/css">
	.st0{opacity:0.7;}
	.st1{opacity:0.2;clip-path:url(#SVGID_2_);}
	.st2{fill:#F4865D;}
	.st3{fill:none;stroke:#F4865D;stroke-width:4.1891;stroke-miterlimit:10;}
	.st4{fill:none;stroke:#4C708F;stroke-width:7;stroke-miterlimit:10;}
</style>
<g class="st0">
	<defs>
		<rect id="SVGID_1_" class="st0" width="114.5" height="335.7"/>
	</defs>
	<clipPath id="SVGID_2_">
		<use xlink:href="#SVGID_1_"  style="overflow:visible;"/>
	</clipPath>
	<g class="st1">
		<g>
			<g>
				<line class="st2" x1="78.5" y1="118.8" x2="159.9" y2="118.8"/>
				<line class="st2" x1="78.5" y1="118.8" x2="159.9" y2="118.8"/>
			</g>
			<g>
				<line class="st2" x1="78.5" y1="167.7" x2="159.9" y2="167.7"/>
				<line class="st2" x1="78.5" y1="167.7" x2="159.9" y2="167.7"/>
			</g>
			<g>
				<line class="st2" x1="78.5" y1="216.6" x2="159.9" y2="216.6"/>
				<line class="st2" x1="78.5" y1="216.6" x2="159.9" y2="216.6"/>
			</g>
			<g>
				<path class="st2" d="M196.2,300.3c6.9,0.9,12.5-4,12.5-10.9V72.1c0-6.9-4.6-15.8-10.2-19.8c0,0-28.1-20-79.4-20
					c-51.3,0-79.4,20-79.4,20c-5.6,4-10.2,12.9-10.2,19.8v217.3c0,6.9,5.6,11.8,12.5,10.9c0,0,43.3-5.8,77.2-5.8
					C152.9,294.5,196.2,300.3,196.2,300.3z"/>
				<path class="st2" d="M196.2,300.3c6.9,0.9,12.5-4,12.5-10.9V72.1c0-6.9-4.6-15.8-10.2-19.8c0,0-28.1-20-79.4-20
					c-51.3,0-79.4,20-79.4,20c-5.6,4-10.2,12.9-10.2,19.8v217.3c0,6.9,5.6,11.8,12.5,10.9c0,0,43.3-5.8,77.2-5.8
					C152.9,294.5,196.2,300.3,196.2,300.3z"/>
			</g>
			<g>
				<path class="st2" d="M257.5,35.6c-29.9,4.5-40.1,14.9-40.1,14.9c-4.8,4.9-8.8,14.6-8.8,21.5v217.3c0,6.9,5.6,11.9,12.5,11.1
					c0,0,51.4-6,85.3-6c33.9,0,85.3,6,85.3,6c6.9,0.8,12.5-4.2,12.5-11.1V72.1c0-6.9-4.1-16.5-9.1-21.3c0,0-11.1-10.6-39.8-15.2"/>
				<path class="st2" d="M257.5,35.6c-29.9,4.5-40.1,14.9-40.1,14.9c-4.8,4.9-8.8,14.6-8.8,21.5v217.3c0,6.9,5.6,11.9,12.5,11.1
					c0,0,51.4-6,85.3-6c33.9,0,85.3,6,85.3,6c6.9,0.8,12.5-4.2,12.5-11.1V72.1c0-6.9-4.1-16.5-9.1-21.3c0,0-11.1-10.6-39.8-15.2"/>
			</g>
			<g>
				<path class="st2" d="M342.7,189.4l-30.2-25.5c-2.4-2.1-6.5-2.1-8.9,0l-32.8,25.8c-4.2,3.6-13.3,0.6-13.3-4.9V17.3
					c0-6.9,5.7-12.6,12.6-12.6h72.7c6.9,0,12.6,5.7,12.6,12.6v167.3C355.4,190,346.9,193,342.7,189.4z"/>
				<path class="st2" d="M342.7,189.4l-30.2-25.5c-2.4-2.1-6.5-2.1-8.9,0l-32.8,25.8c-4.2,3.6-13.3,0.6-13.3-4.9V17.3
					c0-6.9,5.7-12.6,12.6-12.6h72.7c6.9,0,12.6,5.7,12.6,12.6v167.3C355.4,190,346.9,193,342.7,189.4z"/>
			</g>
		</g>
		<g>
			<g>
				<line class="st3" x1="78.5" y1="118.8" x2="159.9" y2="118.8"/>
				<line class="st3" x1="78.5" y1="118.8" x2="159.9" y2="118.8"/>
			</g>
			<g>
				<line class="st3" x1="78.5" y1="167.7" x2="159.9" y2="167.7"/>
				<line class="st3" x1="78.5" y1="167.7" x2="159.9" y2="167.7"/>
			</g>
			<g>
				<line class="st3" x1="78.5" y1="216.6" x2="159.9" y2="216.6"/>
				<line class="st3" x1="78.5" y1="216.6" x2="159.9" y2="216.6"/>
			</g>
			<g>
				<path class="st3" d="M196.2,300.3c6.9,0.9,12.5-4,12.5-10.9V72.1c0-6.9-4.6-15.8-10.2-19.8c0,0-28.1-20-79.4-20
					c-51.3,0-79.4,20-79.4,20c-5.6,4-10.2,12.9-10.2,19.8v217.3c0,6.9,5.6,11.8,12.5,10.9c0,0,43.3-5.8,77.2-5.8
					C152.9,294.5,196.2,300.3,196.2,300.3z"/>
				<path class="st3" d="M196.2,300.3c6.9,0.9,12.5-4,12.5-10.9V72.1c0-6.9-4.6-15.8-10.2-19.8c0,0-28.1-20-79.4-20
					c-51.3,0-79.4,20-79.4,20c-5.6,4-10.2,12.9-10.2,19.8v217.3c0,6.9,5.6,11.8,12.5,10.9c0,0,43.3-5.8,77.2-5.8
					C152.9,294.5,196.2,300.3,196.2,300.3z"/>
			</g>
			<g>
				<path class="st3" d="M257.5,35.6c-29.9,4.5-40.1,14.9-40.1,14.9c-4.8,4.9-8.8,14.6-8.8,21.5v217.3c0,6.9,5.6,11.9,12.5,11.1
					c0,0,51.4-6,85.3-6c33.9,0,85.3,6,85.3,6c6.9,0.8,12.5-4.2,12.5-11.1V72.1c0-6.9-4.1-16.5-9.1-21.3c0,0-11.1-10.6-39.8-15.2"/>
				<path class="st3" d="M257.5,35.6c-29.9,4.5-40.1,14.9-40.1,14.9c-4.8,4.9-8.8,14.6-8.8,21.5v217.3c0,6.9,5.6,11.9,12.5,11.1
					c0,0,51.4-6,85.3-6c33.9,0,85.3,6,85.3,6c6.9,0.8,12.5-4.2,12.5-11.1V72.1c0-6.9-4.1-16.5-9.1-21.3c0,0-11.1-10.6-39.8-15.2"/>
			</g>
			<g>
				<path class="st3" d="M342.7,189.4l-30.2-25.5c-2.4-2.1-6.5-2.1-8.9,0l-32.8,25.8c-4.2,3.6-13.3,0.6-13.3-4.9V17.3
					c0-6.9,5.7-12.6,12.6-12.6h72.7c6.9,0,12.6,5.7,12.6,12.6v167.3C355.4,190,346.9,193,342.7,189.4z"/>
				<path class="st3" d="M342.7,189.4l-30.2-25.5c-2.4-2.1-6.5-2.1-8.9,0l-32.8,25.8c-4.2,3.6-13.3,0.6-13.3-4.9V17.3
					c0-6.9,5.7-12.6,12.6-12.6h72.7c6.9,0,12.6,5.7,12.6,12.6v167.3C355.4,190,346.9,193,342.7,189.4z"/>
			</g>
		</g>
	</g>
	<g class="st1">
		<g>
			<g>
				<line class="st4" x1="62.3" y1="105.4" x2="143.7" y2="105.4"/>
				<line class="st4" x1="62.3" y1="105.4" x2="143.7" y2="105.4"/>
			</g>
			<g>
				<line class="st4" x1="62.3" y1="154.3" x2="143.7" y2="154.3"/>
				<line class="st4" x1="62.3" y1="154.3" x2="143.7" y2="154.3"/>
			</g>
			<g>
				<line class="st4" x1="62.3" y1="203.2" x2="143.7" y2="203.2"/>
				<line class="st4" x1="62.3" y1="203.2" x2="143.7" y2="203.2"/>
			</g>
			<g>
				<path class="st4" d="M180,286.9c6.9,0.9,12.5-4,12.5-10.9V58.7c0-6.9-4.6-15.8-10.2-19.8c0,0-28.1-20-79.4-20
					c-51.3,0-79.4,20-79.4,20c-5.6,4-10.2,12.9-10.2,19.8V276c0,6.9,5.6,11.8,12.5,10.9c0,0,43.3-5.8,77.2-5.8
					C136.7,281.1,180,286.9,180,286.9z"/>
				<path class="st4" d="M180,286.9c6.9,0.9,12.5-4,12.5-10.9V58.7c0-6.9-4.6-15.8-10.2-19.8c0,0-28.1-20-79.4-20
					c-51.3,0-79.4,20-79.4,20c-5.6,4-10.2,12.9-10.2,19.8V276c0,6.9,5.6,11.8,12.5,10.9c0,0,43.3-5.8,77.2-5.8
					C136.7,281.1,180,286.9,180,286.9z"/>
			</g>
			<g>
				<path class="st4" d="M241.4,22.2c-29.9,4.5-40.1,14.9-40.1,14.9c-4.8,4.9-8.8,14.6-8.8,21.5V276c0,6.9,5.6,11.9,12.5,11.1
					c0,0,51.4-6,85.3-6c33.9,0,85.3,6,85.3,6c6.9,0.8,12.5-4.2,12.5-11.1V58.7c0-6.9-4.1-16.5-9.1-21.3c0,0-11.1-10.6-39.8-15.2"/>
				<path class="st4" d="M241.4,22.2c-29.9,4.5-40.1,14.9-40.1,14.9c-4.8,4.9-8.8,14.6-8.8,21.5V276c0,6.9,5.6,11.9,12.5,11.1
					c0,0,51.4-6,85.3-6c33.9,0,85.3,6,85.3,6c6.9,0.8,12.5-4.2,12.5-11.1V58.7c0-6.9-4.1-16.5-9.1-21.3c0,0-11.1-10.6-39.8-15.2"/>
			</g>
			<g>
				<path class="st4" d="M326.5,176l-30.2-25.5c-2.4-2.1-6.5-2.1-8.9,0l-32.8,25.8c-4.2,3.6-13.3,0.6-13.3-4.9V3.9
					c0-6.9,5.7-12.6,12.6-12.6h72.7c6.9,0,12.6,5.7,12.6,12.6v167.3C339.2,176.7,330.7,179.6,326.5,176z"/>
				<path class="st4" d="M326.5,176l-30.2-25.5c-2.4-2.1-6.5-2.1-8.9,0l-32.8,25.8c-4.2,3.6-13.3,0.6-13.3-4.9V3.9
					c0-6.9,5.7-12.6,12.6-12.6h72.7c6.9,0,12.6,5.7,12.6,12.6v167.3C339.2,176.7,330.7,179.6,326.5,176z"/>
			</g>
		</g>
	</g>
</g>
</svg>
