<svg xmlns="http://www.w3.org/2000/svg" viewBox="0 0 311.93 179.49"><defs><style>.cls-1{opacity:0.5;}.cls-2{fill:#3c5972;}.cls-3{opacity:0.8;}.cls-4{fill:#d85c2c;}.cls-10,.cls-11,.cls-12,.cls-13,.cls-5,.cls-6,.cls-8,.cls-9{fill:none;stroke:#4c708f;stroke-miterlimit:10;}.cls-5{stroke-width:1.54px;}.cls-6{stroke-width:1.91px;}.cls-7{fill:#36a4ff;}.cls-8{stroke-width:3.51px;}.cls-9{stroke-width:3.29px;}.cls-10{stroke-width:3.45px;}.cls-11{stroke-width:3.03px;}.cls-12{stroke-width:3.82px;}.cls-13{stroke-width:4.43px;}</style></defs><title>gift</title><g id="Layer_2" data-name="Layer 2"><g id="Layer_1-2" data-name="Layer 1"><g class="cls-1"><path class="cls-2" d="M72.73,47.47V77.78a2.7,2.7,0,0,0,2.69,2.69h51.47a2.7,2.7,0,0,0,2.69-2.69V47.47"/><path class="cls-2" d="M106.57,48.22h23.89a2.7,2.7,0,0,0,2.69-2.69V36.26a2.7,2.7,0,0,0-2.69-2.69H71.84a2.7,2.7,0,0,0-2.69,2.69v9.27a2.7,2.7,0,0,0,2.69,2.69H96"/><path class="cls-2" d="M101.12,33.58s-20.32-4.51-14.82-8C96.19,19.37,101.12,33.58,101.12,33.58Z"/><path class="cls-2" d="M101.12,33.58s4.31-17.47,11.63-8C115.88,29.65,101.12,33.58,101.12,33.58Z"/></g><g class="cls-3"><path class="cls-4" d="M168.1,63.26V85.45a2.18,2.18,0,0,0,2.17,2.17h36.06a2.18,2.18,0,0,0,2.17-2.17V63.26"/><path class="cls-4" d="M192.15,58h16.72A2.18,2.18,0,0,0,211,55.88V46.79a2.18,2.18,0,0,0-2.17-2.17H167.72a2.18,2.18,0,0,0-2.17,2.17v9.08A2.18,2.18,0,0,0,167.72,58h16.94"/><path class="cls-4" d="M188.28,44.62S169,40.94,178.2,33.55C182,30.47,188.28,44.62,188.28,44.62Z"/><path class="cls-4" d="M188.28,44.62S190,19.87,197,26C205.63,33.63,188.28,44.62,188.28,44.62Z"/><rect class="cls-4" x="168.32" y="44.62" width="40.18" height="42.99" rx="2.17" ry="2.17"/></g><path class="cls-5" d="M166.21,61V83.18a2.18,2.18,0,0,0,2.17,2.17h36.06a2.18,2.18,0,0,0,2.17-2.17V61"/><path class="cls-5" d="M190.26,55.78H207a2.18,2.18,0,0,0,2.17-2.17V44.53A2.18,2.18,0,0,0,207,42.36H165.84a2.18,2.18,0,0,0-2.17,2.17v9.08a2.18,2.18,0,0,0,2.17,2.17h16.94"/><path class="cls-5" d="M186.39,42.36s-19.33-3.68-10.08-11.07C180.16,28.21,186.39,42.36,186.39,42.36Z"/><path class="cls-5" d="M186.39,42.36s1.77-24.76,8.74-18.6C203.74,31.37,186.39,42.36,186.39,42.36Z"/><rect class="cls-5" x="182.78" y="42.36" width="7.48" height="42.99" rx="2.17" ry="2.17"/><path class="cls-6" d="M69.68,51.81V75.68a2.7,2.7,0,0,0,2.69,2.69h51.47a2.7,2.7,0,0,0,2.69-2.69V51.81"/><path class="cls-6" d="M103.52,46.12h23.89a2.7,2.7,0,0,0,2.69-2.69V34.16a2.7,2.7,0,0,0-2.69-2.69H68.79a2.7,2.7,0,0,0-2.69,2.69v9.27a2.7,2.7,0,0,0,2.69,2.69H93"/><path class="cls-6" d="M98.07,31.47S77.75,27,83.25,23.5C93.14,17.26,98.07,31.47,98.07,31.47Z"/><path class="cls-6" d="M98.07,31.47s4.31-17.47,11.63-8C112.83,27.55,98.07,31.47,98.07,31.47Z"/><rect class="cls-6" x="92.99" y="31.47" width="10.53" height="46.9" rx="2.69" ry="2.69"/><path class="cls-7" d="M92.76,86.74V135a5,5,0,0,0,4.95,4.95h86.35A5,5,0,0,0,189,135V86.74"/><path class="cls-7" d="M150.06,75.35h40.06a5,5,0,0,0,4.95-4.95V51A5,5,0,0,0,190.12,46H91.66A5,5,0,0,0,86.71,51V70.4a5,5,0,0,0,4.95,4.95h40.58"/><path class="cls-7" d="M140.84,46S89.4,25.61,110.61,8.34C130.57-7.91,140.84,46,140.84,46Z"/><path class="cls-7" d="M140.84,46S148.56-.08,166.69,13.1C183.74,25.48,140.84,46,140.84,46Z"/><rect class="cls-7" x="93.29" y="46.04" width="95.72" height="93.87" rx="4.95" ry="4.95"/><path class="cls-8" d="M88.81,83.21v48.22a5,5,0,0,0,4.95,4.95h86.35a5,5,0,0,0,4.95-4.95V83.21"/><path class="cls-8" d="M146.11,71.81h40.06a5,5,0,0,0,4.95-4.95V47.46a5,5,0,0,0-4.95-4.95H87.7a5,5,0,0,0-4.95,4.95V66.86a5,5,0,0,0,4.95,4.95h40.58"/><path class="cls-8" d="M136.88,42.51S85.44,22.08,106.66,4.8C126.61-11.44,136.88,42.51,136.88,42.51Z"/><path class="cls-8" d="M136.88,42.51s7.73-46.12,25.86-32.94C179.79,22,136.88,42.51,136.88,42.51Z"/><rect class="cls-8" x="128.29" y="42.51" width="17.82" height="93.87" rx="4.95" ry="4.95"/><path class="cls-7" d="M272.42,129.38s17.78,1.89,24.4-8,13.28,0,13.28,0l-3,8.16s-5.87-6.61-10.32-.14S272.42,129.38,272.42,129.38Z"/><path class="cls-9" d="M272.42,126.48s17.78,1.89,24.4-8,13.28,0,13.28,0l-3,8.16s-5.87-6.61-10.32-.14S272.42,126.48,272.42,126.48Z"/><path class="cls-7" d="M26.32,143.67s-11.51,1.22-15.8-5.19-8.6,0-8.6,0l1.91,5.28s3.8-4.28,6.68-.09S26.32,143.67,26.32,143.67Z"/><path class="cls-10" d="M26.32,141s-11.51,1.22-15.8-5.19-8.6,0-8.6,0l1.91,5.28s3.8-4.28,6.68-.09S26.32,141,26.32,141Z"/><path class="cls-7" d="M30.86,121.14c-.57-.37,1.81-11.79,9.4-12.26,6.76-.42,12,8.21,10.63,11-.73,1.49-3.67,2.1-5.72,1.23-3.49-1.49-2.8-6.6-5.31-7.36C36.35,112.72,31.41,121.5,30.86,121.14Z"/><path class="cls-7" d="M34.2,164.31c3.5,3.11,8.09,6,13.25,5.61,6.94-.48,9-6.37,16.82-7.13,6.49-.63,13.55,2.6,13.76,5.61.17,2.37-3.88,5.18-7.64,5.61-3.44.39-4.54-1.45-8.15-2-6.21-1-8.09,3.61-15.29,4.59-7.67,1-16.39-2.72-16.82-6.62C30,169,30.3,167.05,34.2,164.31Z"/><path class="cls-11" d="M32,118.63c-.57-.37,1.81-11.79,9.4-12.26,6.76-.42,12,8.21,10.63,11-.73,1.49-3.67,2.1-5.72,1.23-3.49-1.49-2.8-6.6-5.31-7.36C37.48,110.21,32.54,119,32,118.63Z"/><path class="cls-10" d="M33.59,161.68c3.5,3.11,8.09,6,13.25,5.61,6.94-.48,9-6.37,16.82-7.13,6.49-.63,13.55,2.6,13.76,5.61.17,2.37-3.88,5.18-7.64,5.61-3.44.39-4.54-1.45-8.15-2-6.21-1-8.09,3.61-15.29,4.59-7.67,1-16.39-2.72-16.82-6.62C29.41,166.34,29.7,164.43,33.59,161.68Z"/><path class="cls-7" d="M231.58,142.62c2.87,2.54,6.62,4.88,10.85,4.59,5.68-.39,7.36-5.22,13.77-5.84,5.32-.52,11.09,2.13,11.26,4.59.14,1.94-3.17,4.24-6.26,4.59-2.82.32-3.71-1.19-6.67-1.67-5.08-.82-6.62,3-12.51,3.75-6.28.85-13.42-2.22-13.77-5.42C228.16,146.43,228.39,144.87,231.58,142.62Z"/><path class="cls-10" d="M231,140.36c2.87,2.54,6.62,4.88,10.85,4.59,5.68-.39,7.36-5.22,13.77-5.84,5.32-.52,11.09,2.13,11.26,4.59.14,1.94-3.17,4.24-6.26,4.59-2.82.32-3.71-1.19-6.67-1.67-5.08-.82-6.62,3-12.51,3.75-6.28.85-13.42-2.22-13.77-5.42C227.55,144.17,227.78,142.61,231,140.36Z"/><path class="cls-7" d="M219,123.71c-1.82-2.1,4.65-7.54,11.89-7.42,7.94.13,13.67,6.92,11,9.09s-15.57.8-16.56-1.44c-.5-1.13,2-2.59,2.26-2.74s2.55-1.46,4.11-1.09c.88.21,1.19.84,1.52,1.54.08.16.67,1.37.17,2C232.05,125.56,220.81,125.83,219,123.71Z"/><path class="cls-12" d="M219,120.66c-1.82-2.1,4.65-7.54,11.89-7.42,7.94.13,13.67,6.92,11,9.09s-15.57.8-16.56-1.44c-.5-1.13,2-2.59,2.26-2.74s2.55-1.46,4.11-1.09c.88.21,1.19.84,1.52,1.54.08.16.67,1.37.17,2C232.05,122.51,220.81,122.78,219,120.66Z"/><path class="cls-7" d="M211.82,169.38c-7.72-.92-26.62,0-33.13,1.82-4.3,1.19-2,2.43,1.74,4.41a28.3,28.3,0,0,0,13.95,3.89,33.47,33.47,0,0,0,17.43-5.19C215.33,172.07,218.33,170.16,211.82,169.38Z"/><path class="cls-13" d="M208.73,166c-7.72-.92-26.62,0-33.13,1.82-4.3,1.19-2,2.43,1.74,4.41a28.3,28.3,0,0,0,13.95,3.89,33.47,33.47,0,0,0,17.43-5.19C212.24,168.65,215.24,166.74,208.73,166Z"/></g></g></svg>