<svg xmlns="http://www.w3.org/2000/svg" viewBox="0 0 60.61 89.97"><defs><style>.cls-1{fill:#36a4ff;}.cls-2{fill:none;stroke:#4c708f;stroke-miterlimit:10;stroke-width:2.5px;}</style></defs><title>originstree</title><g id="Layer_2" data-name="Layer 2"><g id="Layer_1-2" data-name="Layer 1"><ellipse class="cls-1" cx="29.68" cy="66.79" rx="16.71" ry="4.32"/><path class="cls-1" d="M13,66.79l6.54,21C19.51,89,25.07,90,29.68,90s10.17-1,10.17-2.16l6.54-21"/><path class="cls-1" d="M24.87,46.23c-8,5.42-19.26,0-19.26-9.44A11.49,11.49,0,0,1,11.8,26.73C8.23,15.39,17.16,4,29.61,4,38.87,4,46.52,10.41,48,18.81A16.14,16.14,0,0,1,60.61,34.26c0,12.93-15.35,20.4-26.38,13.12"/><path class="cls-1" d="M29.77,43.05s2.59-18.5,15.06-14.21"/><path class="cls-1" d="M29.7,39.57s-5.54-13.9-11.29-8"/><line class="cls-1" x1="29.7" y1="20.59" x2="29.7" y2="64.97"/><ellipse class="cls-2" cx="25.32" cy="64.05" rx="16.71" ry="4.32"/><path class="cls-2" d="M8.61,64l6.54,21c0,1.19,5.56,2.16,10.17,2.16s10.17-1,10.17-2.16L42,64"/><path class="cls-2" d="M20.51,43.49c-8,5.42-19.26,0-19.26-9.44A11.49,11.49,0,0,1,7.44,24C3.86,12.65,12.8,1.25,25.25,1.25c9.25,0,16.91,6.42,18.34,14.82A16.14,16.14,0,0,1,56.25,31.52c0,12.93-15.35,20.4-26.38,13.12"/><path class="cls-2" d="M25.41,40.31S28,21.81,40.47,26.1"/><path class="cls-2" d="M25.34,36.83s-5.54-13.9-11.29-8"/><line class="cls-2" x1="25.34" y1="17.85" x2="25.34" y2="62.23"/></g></g></svg>