<svg xmlns="http://www.w3.org/2000/svg" xmlns:xlink="http://www.w3.org/1999/xlink" viewBox="0 0 280.09 416.01"><defs><style>.cls-1,.cls-6{fill:none;}.cls-2{opacity:0.7;}.cls-3{clip-path:url(#clip-path);}.cls-4{opacity:0.2;}.cls-5{fill:#36a4ff;}.cls-6{stroke:#4c708f;stroke-miterlimit:10;stroke-width:7px;}</style><clipPath id="clip-path"><rect class="cls-1" x="126.44" y="-33.38" width="195.77" height="534.29"/></clipPath></defs><title>packagetree</title><g id="Layer_2" data-name="Layer 2"><g id="Layer_1-2" data-name="Layer 1"><g class="cls-2"><g class="cls-3"><g class="cls-4"><ellipse class="cls-5" cx="135.13" cy="307.37" rx="78.31" ry="20.23"/><path class="cls-5" d="M56.82,307.37l30.63,98.53c0,5.6,26.06,10.12,47.68,10.12s47.68-4.52,47.68-10.12l30.63-98.53"/><path class="cls-5" d="M112.58,211c-37.48,25.4-90.27,0-90.27-44.22,0-20.23,11.7-37.84,29-47.18C34.56,66.45,76.46,13,134.82,13c43.37,0,79.23,30.09,86,69.45,34.07,8.26,59.31,37.5,59.31,72.42,0,60.62-72,95.59-123.63,61.49"/><path class="cls-5" d="M135.55,196.11s12.15-86.71,70.59-66.61"/><path class="cls-5" d="M135.21,179.79s-26-65.17-52.91-37.69"/><line class="cls-5" x1="135.21" y1="90.82" x2="135.21" y2="298.83"/></g><g class="cls-4"><ellipse class="cls-6" cx="116.32" cy="297.84" rx="78.31" ry="20.23"/><path class="cls-6" d="M38,297.84l30.63,98.53c0,5.6,26.06,10.12,47.68,10.12S164,402,164,396.36l30.63-98.53"/><path class="cls-6" d="M93.77,201.46c-37.48,25.4-90.27,0-90.27-44.22,0-20.23,11.7-37.84,29-47.18C15.76,56.92,57.65,3.5,116,3.5c43.37,0,79.23,30.09,86,69.45,34.07,8.26,59.31,37.5,59.31,72.42,0,60.62-72,95.59-123.63,61.49"/><path class="cls-6" d="M116.74,186.58S128.89,99.87,187.33,120"/><path class="cls-6" d="M116.41,170.26s-26-65.17-52.91-37.69"/><line class="cls-6" x1="116.41" y1="81.29" x2="116.41" y2="289.3"/></g></g></g></g></g></svg>