<svg xmlns="http://www.w3.org/2000/svg" xmlns:xlink="http://www.w3.org/1999/xlink" viewBox="0 0 396.7 314.81"><defs><style>.cls-1,.cls-6,.cls-7{fill:none;}.cls-2{opacity:0.7;}.cls-3{clip-path:url(#clip-path);}.cls-4{opacity:0.2;}.cls-5{fill:#f4865d;}.cls-6{stroke:#f4865d;stroke-width:4.19px;}.cls-6,.cls-7{stroke-miterlimit:10;}.cls-7{stroke:#4c708f;stroke-width:7px;}</style><clipPath id="clip-path"><rect class="cls-1" x="-9.65" y="12.16" width="114.52" height="335.69"/></clipPath></defs><title>packagebook</title><g id="Layer_2" data-name="Layer 2"><g id="Layer_1-2" data-name="Layer 1"><g class="cls-2"><g class="cls-3"><g class="cls-4"><line class="cls-5" x1="68.83" y1="130.99" x2="150.25" y2="130.99"/><line class="cls-5" x1="68.83" y1="130.99" x2="150.25" y2="130.99"/><line class="cls-5" x1="68.83" y1="179.89" x2="150.25" y2="179.89"/><line class="cls-5" x1="68.83" y1="179.89" x2="150.25" y2="179.89"/><line class="cls-5" x1="68.83" y1="228.8" x2="150.25" y2="228.8"/><line class="cls-5" x1="68.83" y1="228.8" x2="150.25" y2="228.8"/><path class="cls-5" d="M186.54,312.42A10.74,10.74,0,0,0,199,301.51V84.23c0-6.91-4.61-15.84-10.25-19.84,0,0-28.12-20-79.42-20s-79.4,20-79.4,20c-5.64,4-10.25,12.93-10.25,19.84V301.51a10.74,10.74,0,0,0,12.46,10.91s43.3-5.77,77.19-5.77S186.54,312.42,186.54,312.42Z"/><path class="cls-5" d="M186.54,312.42A10.74,10.74,0,0,0,199,301.51V84.23c0-6.91-4.61-15.84-10.25-19.84,0,0-28.12-20-79.42-20s-79.4,20-79.4,20c-5.64,4-10.25,12.93-10.25,19.84V301.51a10.74,10.74,0,0,0,12.46,10.91s43.3-5.77,77.19-5.77S186.54,312.42,186.54,312.42Z"/><path class="cls-5" d="M247.9,47.77C218,52.29,207.8,62.7,207.8,62.7,203,67.63,199,77.32,199,84.23V301.51a11,11,0,0,0,12.48,11.12s51.42-6,85.33-6,85.31,6,85.31,6a11,11,0,0,0,12.48-11.12V84.23c0-6.91-4.09-16.48-9.08-21.25,0,0-11.07-10.59-39.82-15.21"/><path class="cls-5" d="M247.9,47.77C218,52.29,207.8,62.7,207.8,62.7,203,67.63,199,77.32,199,84.23V301.51a11,11,0,0,0,12.48,11.12s51.42-6,85.33-6,85.31,6,85.31,6a11,11,0,0,0,12.48-11.12V84.23c0-6.91-4.09-16.48-9.08-21.25,0,0-11.07-10.59-39.82-15.21"/><path class="cls-5" d="M333.07,201.53,302.89,176a7.09,7.09,0,0,0-8.88,0l-32.79,25.77c-4.15,3.56-13.32.6-13.32-4.86V29.45a12.6,12.6,0,0,1,12.57-12.57h72.67a12.6,12.6,0,0,1,12.57,12.57V196.71C345.71,202.21,337.21,205.16,333.07,201.53Z"/><path class="cls-5" d="M333.07,201.53,302.89,176a7.09,7.09,0,0,0-8.88,0l-32.79,25.77c-4.15,3.56-13.32.6-13.32-4.86V29.45a12.6,12.6,0,0,1,12.57-12.57h72.67a12.6,12.6,0,0,1,12.57,12.57V196.71C345.71,202.21,337.21,205.16,333.07,201.53Z"/><line class="cls-6" x1="68.83" y1="130.99" x2="150.25" y2="130.99"/><line class="cls-6" x1="68.83" y1="130.99" x2="150.25" y2="130.99"/><line class="cls-6" x1="68.83" y1="179.89" x2="150.25" y2="179.89"/><line class="cls-6" x1="68.83" y1="179.89" x2="150.25" y2="179.89"/><line class="cls-6" x1="68.83" y1="228.8" x2="150.25" y2="228.8"/><line class="cls-6" x1="68.83" y1="228.8" x2="150.25" y2="228.8"/><path class="cls-6" d="M186.54,312.42A10.74,10.74,0,0,0,199,301.51V84.23c0-6.91-4.61-15.84-10.25-19.84,0,0-28.12-20-79.42-20s-79.4,20-79.4,20c-5.64,4-10.25,12.93-10.25,19.84V301.51a10.74,10.74,0,0,0,12.46,10.91s43.3-5.77,77.19-5.77S186.54,312.42,186.54,312.42Z"/><path class="cls-6" d="M186.54,312.42A10.74,10.74,0,0,0,199,301.51V84.23c0-6.91-4.61-15.84-10.25-19.84,0,0-28.12-20-79.42-20s-79.4,20-79.4,20c-5.64,4-10.25,12.93-10.25,19.84V301.51a10.74,10.74,0,0,0,12.46,10.91s43.3-5.77,77.19-5.77S186.54,312.42,186.54,312.42Z"/><path class="cls-6" d="M247.9,47.77C218,52.29,207.8,62.7,207.8,62.7,203,67.63,199,77.32,199,84.23V301.51a11,11,0,0,0,12.48,11.12s51.42-6,85.33-6,85.31,6,85.31,6a11,11,0,0,0,12.48-11.12V84.23c0-6.91-4.09-16.48-9.08-21.25,0,0-11.07-10.59-39.82-15.21"/><path class="cls-6" d="M247.9,47.77C218,52.29,207.8,62.7,207.8,62.7,203,67.63,199,77.32,199,84.23V301.51a11,11,0,0,0,12.48,11.12s51.42-6,85.33-6,85.31,6,85.31,6a11,11,0,0,0,12.48-11.12V84.23c0-6.91-4.09-16.48-9.08-21.25,0,0-11.07-10.59-39.82-15.21"/><path class="cls-6" d="M333.07,201.53,302.89,176a7.09,7.09,0,0,0-8.88,0l-32.79,25.77c-4.15,3.56-13.32.6-13.32-4.86V29.45a12.6,12.6,0,0,1,12.57-12.57h72.67a12.6,12.6,0,0,1,12.57,12.57V196.71C345.71,202.21,337.21,205.16,333.07,201.53Z"/><path class="cls-6" d="M333.07,201.53,302.89,176a7.09,7.09,0,0,0-8.88,0l-32.79,25.77c-4.15,3.56-13.32.6-13.32-4.86V29.45a12.6,12.6,0,0,1,12.57-12.57h72.67a12.6,12.6,0,0,1,12.57,12.57V196.71C345.71,202.21,337.21,205.16,333.07,201.53Z"/></g><g class="cls-4"><line class="cls-7" x1="52.65" y1="117.61" x2="134.06" y2="117.61"/><line class="cls-7" x1="52.65" y1="117.61" x2="134.06" y2="117.61"/><line class="cls-7" x1="52.65" y1="166.51" x2="134.06" y2="166.51"/><line class="cls-7" x1="52.65" y1="166.51" x2="134.06" y2="166.51"/><line class="cls-7" x1="52.65" y1="215.41" x2="134.06" y2="215.41"/><line class="cls-7" x1="52.65" y1="215.41" x2="134.06" y2="215.41"/><path class="cls-7" d="M170.35,299a10.74,10.74,0,0,0,12.46-10.91V70.85c0-6.91-4.61-15.84-10.25-19.84,0,0-28.12-20-79.42-20s-79.4,20-79.4,20C8.11,55,3.5,63.93,3.5,70.85V288.13A10.74,10.74,0,0,0,16,299s43.3-5.77,77.19-5.77S170.35,299,170.35,299Z"/><path class="cls-7" d="M170.35,299a10.74,10.74,0,0,0,12.46-10.91V70.85c0-6.91-4.61-15.84-10.25-19.84,0,0-28.12-20-79.42-20s-79.4,20-79.4,20C8.11,55,3.5,63.93,3.5,70.85V288.13A10.74,10.74,0,0,0,16,299s43.3-5.77,77.19-5.77S170.35,299,170.35,299Z"/><path class="cls-7" d="M231.71,34.38c-29.87,4.52-40.1,14.93-40.1,14.93-4.84,4.93-8.81,14.62-8.81,21.53V288.13a11,11,0,0,0,12.48,11.12s51.42-6,85.33-6,85.31,6,85.31,6a11,11,0,0,0,12.48-11.12V70.85c0-6.91-4.09-16.48-9.08-21.25,0,0-11.07-10.59-39.82-15.21"/><path class="cls-7" d="M231.71,34.38c-29.87,4.52-40.1,14.93-40.1,14.93-4.84,4.93-8.81,14.62-8.81,21.53V288.13a11,11,0,0,0,12.48,11.12s51.42-6,85.33-6,85.31,6,85.31,6a11,11,0,0,0,12.48-11.12V70.85c0-6.91-4.09-16.48-9.08-21.25,0,0-11.07-10.59-39.82-15.21"/><path class="cls-7" d="M316.89,188.15l-30.18-25.49a7.09,7.09,0,0,0-8.88,0L245,188.37c-4.15,3.56-13.32.6-13.32-4.86V16.07A12.6,12.6,0,0,1,244.28,3.5H317a12.6,12.6,0,0,1,12.57,12.57V183.33C329.52,188.83,321,191.77,316.89,188.15Z"/><path class="cls-7" d="M316.89,188.15l-30.18-25.49a7.09,7.09,0,0,0-8.88,0L245,188.37c-4.15,3.56-13.32.6-13.32-4.86V16.07A12.6,12.6,0,0,1,244.28,3.5H317a12.6,12.6,0,0,1,12.57,12.57V183.33C329.52,188.83,321,191.77,316.89,188.15Z"/></g></g></g></g></g></svg>