<svg xmlns="http://www.w3.org/2000/svg" viewBox="0 0 608.29 41.63"><defs><style>.cls-1{font-size:17.4px;fill:#a2b2c0;font-family:MuseoSans-900, Museo Sans;}.cls-2{letter-spacing:0em;}.cls-3{fill:#c5e4fe;}.cls-4,.cls-5,.cls-6,.cls-7{fill:none;stroke:#4c708f;stroke-miterlimit:10;}.cls-4{stroke-width:1.32px;}.cls-5{stroke-width:1.22px;}.cls-6{stroke-width:1.16px;}.cls-7{stroke-width:1.12px;}</style></defs><title>bullets</title><g id="Layer_2" data-name="Layer 2"><g id="Layer_1-2" data-name="Layer 1"><text class="cls-1" transform="translate(185.57 22.67)"><tspan class="cls-2">R</tspan><tspan x="11.83" y="0">ecords</tspan></text><text class="cls-1" transform="translate(334.71 21.13)">Pictures</text><text class="cls-1" transform="translate(476.67 24.31)">Memories</text><rect class="cls-3" x="434.49" y="6.79" width="21.29" height="17.53" rx="0.8" ry="0.8"/><circle class="cls-3" cx="440.09" cy="12.39" r="1.9"/><polyline class="cls-3" points="438.18 24.33 445.42 14.1 448.32 18.02 452.06 12.14 455.78 17.5"/><rect class="cls-3" x="430.74" y="3.03" width="28.81" height="28.81" rx="0.99" ry="0.99"/><line class="cls-3" x1="440.13" y1="28.08" x2="450.15" y2="28.08"/><line class="cls-3" x1="134.85" y1="30.64" x2="173.73" y2="30.64"/><rect class="cls-3" x="136.42" y="5.19" width="10.18" height="25.44" rx="1.4" ry="1.4"/><line class="cls-3" x1="143.16" y1="25.55" x2="139.73" y2="25.55"/><line class="cls-3" x1="153.33" y1="25.55" x2="149.9" y2="25.55"/><path class="cls-3" d="M173.05,26.28a1.47,1.47,0,0,1-.9,1.81l-5.77,2.07a1.35,1.35,0,0,1-1.75-.86L157.86,8a1.47,1.47,0,0,1,.9-1.81l5.77-2.07a1.35,1.35,0,0,1,1.75.86Z"/><path class="cls-3" d="M163.9,8.59a3.72,3.72,0,0,1,.82,2.44s0,.45-.89.75a1.61,1.61,0,0,1-2.06-1.05,1.71,1.71,0,0,1,1-2.15C163.62,8.28,163.9,8.59,163.9,8.59Z"/><circle class="cls-3" cx="141.44" cy="10.23" r="1.72"/><rect class="cls-3" x="146.6" y="5.19" width="10.18" height="25.44" rx="1.4" ry="1.4"/><circle class="cls-3" cx="151.62" cy="10.23" r="1.72"/><rect class="cls-4" x="432.53" y="5.26" width="21.29" height="17.53" rx="0.8" ry="0.8"/><circle class="cls-4" cx="438.12" cy="10.86" r="1.9"/><polyline class="cls-4" points="436.22 22.8 443.46 12.57 446.36 16.49 450.1 10.61 453.82 15.97"/><rect class="cls-4" x="428.77" y="1.51" width="28.81" height="28.81" rx="0.99" ry="0.99"/><line class="cls-4" x1="438.17" y1="26.55" x2="448.19" y2="26.55"/><line class="cls-5" x1="132.97" y1="29.07" x2="171.85" y2="29.07"/><rect class="cls-5" x="134.54" y="3.62" width="10.18" height="25.44" rx="1.06" ry="1.06"/><line class="cls-5" x1="141.28" y1="23.98" x2="137.85" y2="23.98"/><line class="cls-5" x1="151.46" y1="23.98" x2="148.02" y2="23.98"/><path class="cls-5" d="M171.28,25a1.12,1.12,0,0,1-.68,1.37l-6.41,2.3a1,1,0,0,1-1.33-.66l-7-22a1.12,1.12,0,0,1,.68-1.37L163,2.42a1,1,0,0,1,1.33.66Z"/><path class="cls-5" d="M162.25,7.28a2.82,2.82,0,0,1,.62,1.85,1.36,1.36,0,0,1-.92,1.09,1.61,1.61,0,0,1-2.06-1.05,1.71,1.71,0,0,1,1-2.15A1.25,1.25,0,0,1,162.25,7.28Z"/><circle class="cls-5" cx="139.56" cy="8.66" r="1.72"/><rect class="cls-5" x="144.72" y="3.62" width="10.18" height="25.44" rx="1.06" ry="1.06"/><circle class="cls-5" cx="149.74" cy="8.66" r="1.72"/><circle class="cls-3" cx="300.83" cy="19.21" r="7.52"/><circle class="cls-3" cx="312.89" cy="14.67" r="1.49"/><path class="cls-3" d="M300.77,14.65a4.41,4.41,0,0,0-4.56,4.56"/><path class="cls-3" d="M288.94,29.74a3.16,3.16,0,0,1-2.51-1.07,3.59,3.59,0,0,1-.74-2.51V12.38A3.5,3.5,0,0,1,289,8.61h6c.2-3,1.21-6,4-6h5.28c2.81,0,3.81,3,4,6h8.81A3.37,3.37,0,0,1,320.46,12l-.06,14.2a3.56,3.56,0,0,1-3.22,3.55Z"/><circle class="cls-6" cx="298.6" cy="17.65" r="7.52"/><circle class="cls-6" cx="310.66" cy="13.11" r="1.49"/><path class="cls-6" d="M298.54,13.08A4.41,4.41,0,0,0,294,17.64"/><path class="cls-6" d="M286.71,28.18a3.16,3.16,0,0,1-2.51-1.07,3.59,3.59,0,0,1-.74-2.51V10.81A3.5,3.5,0,0,1,286.82,7h6c.2-3,1.21-6,4-6h5.28c2.81,0,3.81,3,4,6h8.81a3.37,3.37,0,0,1,3.29,3.37l-.06,14.2A3.56,3.56,0,0,1,315,28.18Z"/><text class="cls-1" transform="translate(49.03 23.98)">Stories</text><line class="cls-3" x1="7.42" y1="12.91" x2="15.11" y2="12.91"/><line class="cls-3" x1="7.42" y1="12.91" x2="15.11" y2="12.91"/><line class="cls-3" x1="7.42" y1="17.54" x2="15.11" y2="17.54"/><line class="cls-3" x1="7.42" y1="17.54" x2="15.11" y2="17.54"/><line class="cls-3" x1="7.42" y1="22.16" x2="15.11" y2="22.16"/><line class="cls-3" x1="7.42" y1="22.16" x2="15.11" y2="22.16"/><path class="cls-3" d="M18.54,30.06a1,1,0,0,0,1.18-1V8.5a2.59,2.59,0,0,0-1-1.87,13.72,13.72,0,0,0-7.5-1.89,13.72,13.72,0,0,0-7.5,1.89,2.59,2.59,0,0,0-1,1.87V29a1,1,0,0,0,1.18,1,66.71,66.71,0,0,1,7.29-.55A66.7,66.7,0,0,1,18.54,30.06Z"/><path class="cls-3" d="M18.54,30.06a1,1,0,0,0,1.18-1V8.5a2.59,2.59,0,0,0-1-1.87,13.72,13.72,0,0,0-7.5-1.89,13.72,13.72,0,0,0-7.5,1.89,2.59,2.59,0,0,0-1,1.87V29a1,1,0,0,0,1.18,1,66.71,66.71,0,0,1,7.29-.55A66.7,66.7,0,0,1,18.54,30.06Z"/><path class="cls-3" d="M24.34,5.05c-2.82.43-3.79,1.41-3.79,1.41a3.35,3.35,0,0,0-.83,2V29a1,1,0,0,0,1.18,1.05s4.86-.57,8.06-.57,8.06.57,8.06.57A1,1,0,0,0,38.2,29V8.5a3.19,3.19,0,0,0-.86-2,7.39,7.39,0,0,0-3.76-1.44"/><path class="cls-3" d="M24.34,5.05c-2.82.43-3.79,1.41-3.79,1.41a3.35,3.35,0,0,0-.83,2V29a1,1,0,0,0,1.18,1.05s4.86-.57,8.06-.57,8.06.57,8.06.57A1,1,0,0,0,38.2,29V8.5a3.19,3.19,0,0,0-.86-2,7.39,7.39,0,0,0-3.76-1.44"/><path class="cls-3" d="M32.39,19.58l-2.85-2.41a.67.67,0,0,0-.84,0L25.6,19.6c-.39.34-1.26.06-1.26-.46V3.32a1.19,1.19,0,0,1,1.19-1.19h6.87a1.19,1.19,0,0,1,1.19,1.19v15.8C33.58,19.64,32.78,19.92,32.39,19.58Z"/><path class="cls-3" d="M32.39,19.58l-2.85-2.41a.67.67,0,0,0-.84,0L25.6,19.6c-.39.34-1.26.06-1.26-.46V3.32a1.19,1.19,0,0,1,1.19-1.19h6.87a1.19,1.19,0,0,1,1.19,1.19v15.8C33.58,19.64,32.78,19.92,32.39,19.58Z"/><line class="cls-7" x1="5.21" y1="11.34" x2="12.9" y2="11.34"/><line class="cls-7" x1="5.21" y1="11.34" x2="12.9" y2="11.34"/><line class="cls-7" x1="5.21" y1="15.96" x2="12.9" y2="15.96"/><line class="cls-7" x1="5.21" y1="15.96" x2="12.9" y2="15.96"/><line class="cls-7" x1="5.21" y1="20.58" x2="12.9" y2="20.58"/><line class="cls-7" x1="5.21" y1="20.58" x2="12.9" y2="20.58"/><path class="cls-7" d="M16.33,28.49a1,1,0,0,0,1.18-1V6.92a2.59,2.59,0,0,0-1-1.87A13.72,13.72,0,0,0,9,3.16,13.72,13.72,0,0,0,1.53,5a2.59,2.59,0,0,0-1,1.87V27.46a1,1,0,0,0,1.18,1A66.71,66.71,0,0,1,9,27.94,66.7,66.7,0,0,1,16.33,28.49Z"/><path class="cls-7" d="M16.33,28.49a1,1,0,0,0,1.18-1V6.92a2.59,2.59,0,0,0-1-1.87A13.72,13.72,0,0,0,9,3.16,13.72,13.72,0,0,0,1.53,5a2.59,2.59,0,0,0-1,1.87V27.46a1,1,0,0,0,1.18,1A66.71,66.71,0,0,1,9,27.94,66.7,66.7,0,0,1,16.33,28.49Z"/><path class="cls-7" d="M22.12,3.48c-2.82.43-3.79,1.41-3.79,1.41a3.35,3.35,0,0,0-.83,2V27.46a1,1,0,0,0,1.18,1.05s4.86-.57,8.06-.57,8.06.57,8.06.57A1,1,0,0,0,36,27.46V6.92a3.19,3.19,0,0,0-.86-2,7.39,7.39,0,0,0-3.76-1.44"/><path class="cls-7" d="M22.12,3.48c-2.82.43-3.79,1.41-3.79,1.41a3.35,3.35,0,0,0-.83,2V27.46a1,1,0,0,0,1.18,1.05s4.86-.57,8.06-.57,8.06.57,8.06.57A1,1,0,0,0,36,27.46V6.92a3.19,3.19,0,0,0-.86-2,7.39,7.39,0,0,0-3.76-1.44"/><path class="cls-7" d="M30.17,18,27.32,15.6a.67.67,0,0,0-.84,0L23.38,18c-.39.34-1.26.06-1.26-.46V1.75A1.19,1.19,0,0,1,23.31.56h6.87a1.19,1.19,0,0,1,1.19,1.19v15.8C31.37,18.07,30.56,18.35,30.17,18Z"/><path class="cls-7" d="M30.17,18,27.32,15.6a.67.67,0,0,0-.84,0L23.38,18c-.39.34-1.26.06-1.26-.46V1.75A1.19,1.19,0,0,1,23.31.56h6.87a1.19,1.19,0,0,1,1.19,1.19v15.8C31.37,18.07,30.56,18.35,30.17,18Z"/></g></g></svg>