<svg xmlns="http://www.w3.org/2000/svg" viewBox="0 0 57.73 40.2"><defs><style>.cls-1{fill:#f4865d;}.cls-2{fill:none;stroke:#4c708f;stroke-miterlimit:10;stroke-width:1.71px;}</style></defs><title>orangefolders</title><g id="Layer_2" data-name="Layer 2"><g id="Layer_1-2" data-name="Layer 1"><line class="cls-1" x1="3.18" y1="40.2" x2="57.73" y2="40.2"/><rect class="cls-1" x="5.38" y="4.5" width="14.28" height="35.7" rx="1.97" ry="1.97"/><line class="cls-1" x1="14.82" y1="33.06" x2="10.01" y2="33.06"/><line class="cls-1" x1="29.11" y1="33.06" x2="24.29" y2="33.06"/><path class="cls-1" d="M56.78,34.09a2.06,2.06,0,0,1-1.26,2.54l-8.1,2.9A1.89,1.89,0,0,1,45,38.32L35.45,8.41a2.06,2.06,0,0,1,1.26-2.54L44.81,3a1.89,1.89,0,0,1,2.45,1.21Z"/><path class="cls-1" d="M43.94,9.27a5.22,5.22,0,0,1,1.14,3.43s-.05.63-1.25,1.06a2.26,2.26,0,0,1-2.9-1.47,2.4,2.4,0,0,1,1.42-3C43.54,8.83,43.94,9.27,43.94,9.27Z"/><circle class="cls-1" cx="12.42" cy="11.57" r="2.41"/><rect class="cls-1" x="19.66" y="4.5" width="14.28" height="35.7" rx="1.97" ry="1.97"/><circle class="cls-1" cx="26.7" cy="11.57" r="2.41"/><line class="cls-2" y1="38.34" x2="54.55" y2="38.34"/><rect class="cls-2" x="2.2" y="2.64" width="14.28" height="35.7" rx="1.49" ry="1.49"/><line class="cls-2" x1="11.65" y1="31.2" x2="6.84" y2="31.2"/><line class="cls-2" x1="25.93" y1="31.2" x2="21.12" y2="31.2"/><path class="cls-2" d="M53.75,32.67a1.57,1.57,0,0,1-1,1.93l-9,3.22a1.43,1.43,0,0,1-1.86-.92L32.13,6.09a1.57,1.57,0,0,1,1-1.93l9-3.22a1.43,1.43,0,0,1,1.86.92Z"/><path class="cls-2" d="M41.08,7.76a4,4,0,0,1,.87,2.6,1.9,1.9,0,0,1-1.29,1.53,2.26,2.26,0,0,1-2.9-1.47,2.4,2.4,0,0,1,1.42-3A1.76,1.76,0,0,1,41.08,7.76Z"/><circle class="cls-2" cx="9.24" cy="9.7" r="2.41"/><rect class="cls-2" x="16.48" y="2.64" width="14.28" height="35.7" rx="1.49" ry="1.49"/><circle class="cls-2" cx="23.52" cy="9.7" r="2.41"/></g></g></svg>