<svg xmlns="http://www.w3.org/2000/svg" viewBox="0 0 56.74 44.69"><defs><style>.cls-1{fill:#f4865d;}.cls-2{fill:none;stroke:#4c708f;stroke-miterlimit:10;stroke-width:1.67px;}</style></defs><title>orangebook</title><g id="Layer_2" data-name="Layer 2"><g id="Layer_1-2" data-name="Layer 1"><line class="cls-1" x1="11.02" y1="19.18" x2="22.45" y2="19.18"/><line class="cls-1" x1="11.02" y1="19.18" x2="22.45" y2="19.18"/><line class="cls-1" x1="11.02" y1="26.05" x2="22.45" y2="26.05"/><line class="cls-1" x1="11.02" y1="26.05" x2="22.45" y2="26.05"/><line class="cls-1" x1="11.02" y1="32.91" x2="22.45" y2="32.91"/><line class="cls-1" x1="11.02" y1="32.91" x2="22.45" y2="32.91"/><path class="cls-1" d="M27.54,44.64a1.51,1.51,0,0,0,1.75-1.53V12.62a3.84,3.84,0,0,0-1.44-2.78S23.9,7,16.7,7,5.56,9.83,5.56,9.83a3.84,3.84,0,0,0-1.44,2.78V43.11a1.51,1.51,0,0,0,1.75,1.53,99.09,99.09,0,0,1,10.83-.81A99.08,99.08,0,0,1,27.54,44.64Z"/><path class="cls-1" d="M27.54,44.64a1.51,1.51,0,0,0,1.75-1.53V12.62a3.84,3.84,0,0,0-1.44-2.78S23.9,7,16.7,7,5.56,9.83,5.56,9.83a3.84,3.84,0,0,0-1.44,2.78V43.11a1.51,1.51,0,0,0,1.75,1.53,99.09,99.09,0,0,1,10.83-.81A99.08,99.08,0,0,1,27.54,44.64Z"/><path class="cls-1" d="M36.15,7.5c-4.19.63-5.63,2.1-5.63,2.1a5,5,0,0,0-1.24,3V43.11A1.54,1.54,0,0,0,31,44.67s7.22-.84,12-.84,12,.84,12,.84a1.54,1.54,0,0,0,1.75-1.56V12.62a4.74,4.74,0,0,0-1.27-3S53.91,8.15,49.88,7.5"/><path class="cls-1" d="M36.15,7.5c-4.19.63-5.63,2.1-5.63,2.1a5,5,0,0,0-1.24,3V43.11A1.54,1.54,0,0,0,31,44.67s7.22-.84,12-.84,12,.84,12,.84a1.54,1.54,0,0,0,1.75-1.56V12.62a4.74,4.74,0,0,0-1.27-3S53.91,8.15,49.88,7.5"/><path class="cls-1" d="M48.11,29.08,43.87,25.5a1,1,0,0,0-1.25,0L38,29.11c-.58.5-1.87.08-1.87-.68V4.93a1.77,1.77,0,0,1,1.76-1.76h10.2a1.77,1.77,0,0,1,1.76,1.76V28.41C49.88,29.18,48.69,29.59,48.11,29.08Z"/><path class="cls-1" d="M48.11,29.08,43.87,25.5a1,1,0,0,0-1.25,0L38,29.11c-.58.5-1.87.08-1.87-.68V4.93a1.77,1.77,0,0,1,1.76-1.76h10.2a1.77,1.77,0,0,1,1.76,1.76V28.41C49.88,29.18,48.69,29.59,48.11,29.08Z"/><line class="cls-2" x1="7.73" y1="16.85" x2="19.16" y2="16.85"/><line class="cls-2" x1="7.73" y1="16.85" x2="19.16" y2="16.85"/><line class="cls-2" x1="7.73" y1="23.71" x2="19.16" y2="23.71"/><line class="cls-2" x1="7.73" y1="23.71" x2="19.16" y2="23.71"/><line class="cls-2" x1="7.73" y1="30.57" x2="19.16" y2="30.57"/><line class="cls-2" x1="7.73" y1="30.57" x2="19.16" y2="30.57"/><path class="cls-2" d="M24.25,42.31A1.51,1.51,0,0,0,26,40.78V10.28A3.84,3.84,0,0,0,24.56,7.5S20.61,4.7,13.41,4.7,2.27,7.5,2.27,7.5A3.84,3.84,0,0,0,.83,10.28V40.78a1.51,1.51,0,0,0,1.75,1.53,99.09,99.09,0,0,1,10.83-.81A99.08,99.08,0,0,1,24.25,42.31Z"/><path class="cls-2" d="M24.25,42.31A1.51,1.51,0,0,0,26,40.78V10.28A3.84,3.84,0,0,0,24.56,7.5S20.61,4.7,13.41,4.7,2.27,7.5,2.27,7.5A3.84,3.84,0,0,0,.83,10.28V40.78a1.51,1.51,0,0,0,1.75,1.53,99.09,99.09,0,0,1,10.83-.81A99.08,99.08,0,0,1,24.25,42.31Z"/><path class="cls-2" d="M32.86,5.17c-4.19.63-5.63,2.1-5.63,2.1a5,5,0,0,0-1.24,3V40.78a1.54,1.54,0,0,0,1.75,1.56s7.22-.84,12-.84,12,.84,12,.84a1.54,1.54,0,0,0,1.75-1.56V10.28a4.74,4.74,0,0,0-1.27-3s-1.55-1.49-5.59-2.13"/><path class="cls-2" d="M32.86,5.17c-4.19.63-5.63,2.1-5.63,2.1a5,5,0,0,0-1.24,3V40.78a1.54,1.54,0,0,0,1.75,1.56s7.22-.84,12-.84,12,.84,12,.84a1.54,1.54,0,0,0,1.75-1.56V10.28a4.74,4.74,0,0,0-1.27-3s-1.55-1.49-5.59-2.13"/><path class="cls-2" d="M44.82,26.75l-4.24-3.58a1,1,0,0,0-1.25,0l-4.6,3.62c-.58.5-1.87.08-1.87-.68V2.6A1.77,1.77,0,0,1,34.63.83h10.2A1.77,1.77,0,0,1,46.59,2.6V26.07C46.59,26.84,45.4,27.26,44.82,26.75Z"/><path class="cls-2" d="M44.82,26.75l-4.24-3.58a1,1,0,0,0-1.25,0l-4.6,3.62c-.58.5-1.87.08-1.87-.68V2.6A1.77,1.77,0,0,1,34.63.83h10.2A1.77,1.77,0,0,1,46.59,2.6V26.07C46.59,26.84,45.4,27.26,44.82,26.75Z"/></g></g></svg>