<svg xmlns="http://www.w3.org/2000/svg" viewBox="0 0 56.62 44.16"><defs><style>.cls-1{fill:#f4865d;}.cls-2{fill:none;stroke:#4c708f;stroke-miterlimit:10;stroke-width:1.75px;}</style></defs><title>orangecamera</title><g id="Layer_2" data-name="Layer 2"><g id="Layer_1-2" data-name="Layer 1"><path class="cls-1" d="M27,39.62A11.32,11.32,0,1,1,38.37,28.29,11.34,11.34,0,0,1,27,39.62Z"/><circle class="cls-1" cx="45.21" cy="21.46" r="2.24"/><path class="cls-1" d="M27,21.42a6.64,6.64,0,0,0-6.87,6.87"/><path class="cls-1" d="M9.13,44.16a4.76,4.76,0,0,1-3.78-1.62,5.41,5.41,0,0,1-1.11-3.79V18a5.28,5.28,0,0,1,5.05-5.67h9c.31-4.55,1.82-9.09,6-9.09h8c4.23,0,5.74,4.55,6,9.09H51.66c3.71,0,4.83,3.32,5,5.08l-.09,21.4a5.36,5.36,0,0,1-4.85,5.35Z"/><path class="cls-2" d="M23.69,37.26A11.32,11.32,0,1,1,35,25.94,11.34,11.34,0,0,1,23.69,37.26Z"/><circle class="cls-2" cx="41.86" cy="19.1" r="2.24"/><path class="cls-2" d="M23.59,19.06a6.64,6.64,0,0,0-6.87,6.87"/><path class="cls-2" d="M5.77,41.8A4.76,4.76,0,0,1,2,40.18,5.41,5.41,0,0,1,.88,36.39V15.64A5.28,5.28,0,0,1,5.94,10h9c.31-4.55,1.82-9.09,6-9.09h8c4.23,0,5.74,4.55,6,9.09H48.3c3.71,0,4.83,3.32,5,5.08l-.09,21.4a5.36,5.36,0,0,1-4.85,5.35Z"/></g></g></svg>