<svg xmlns="http://www.w3.org/2000/svg" viewBox="0 0 85.55 67.47"><defs><style>.cls-1{fill:#f4865d;}.cls-2,.cls-3{fill:none;stroke-miterlimit:10;}.cls-2{stroke:#f4865d;stroke-width:0.88px;}.cls-3{stroke:#4c708f;stroke-width:2.5px;}</style></defs><title>lineagebook</title><g id="Layer_2" data-name="Layer 2"><g id="Layer_1-2" data-name="Layer 1"><line class="cls-1" x1="16.53" y1="28.77" x2="33.67" y2="28.77"/><line class="cls-1" x1="16.53" y1="28.77" x2="33.67" y2="28.77"/><line class="cls-1" x1="16.53" y1="39.07" x2="33.67" y2="39.07"/><line class="cls-1" x1="16.53" y1="39.07" x2="33.67" y2="39.07"/><line class="cls-1" x1="16.53" y1="49.36" x2="33.67" y2="49.36"/><line class="cls-1" x1="16.53" y1="49.36" x2="33.67" y2="49.36"/><path class="cls-1" d="M41.31,67a2.26,2.26,0,0,0,2.62-2.3V18.93a5.77,5.77,0,0,0-2.16-4.18s-5.92-4.2-16.72-4.2-16.71,4.2-16.71,4.2a5.77,5.77,0,0,0-2.16,4.18V64.67A2.26,2.26,0,0,0,8.81,67a148.64,148.64,0,0,1,16.25-1.22A148.61,148.61,0,0,1,41.31,67Z"/><path class="cls-1" d="M41.31,67a2.26,2.26,0,0,0,2.62-2.3V18.93a5.77,5.77,0,0,0-2.16-4.18s-5.92-4.2-16.72-4.2-16.71,4.2-16.71,4.2a5.77,5.77,0,0,0-2.16,4.18V64.67A2.26,2.26,0,0,0,8.81,67a148.64,148.64,0,0,1,16.25-1.22A148.61,148.61,0,0,1,41.31,67Z"/><path class="cls-1" d="M54.23,11.25c-6.29,1-8.44,3.14-8.44,3.14a7.46,7.46,0,0,0-1.85,4.53V64.67A2.31,2.31,0,0,0,46.56,67s10.82-1.26,18-1.26,18,1.26,18,1.26a2.31,2.31,0,0,0,2.63-2.34V18.93a7.11,7.11,0,0,0-1.91-4.47s-2.33-2.23-8.38-3.2"/><path class="cls-1" d="M54.23,11.25c-6.29,1-8.44,3.14-8.44,3.14a7.46,7.46,0,0,0-1.85,4.53V64.67A2.31,2.31,0,0,0,46.56,67s10.82-1.26,18-1.26,18,1.26,18,1.26a2.31,2.31,0,0,0,2.63-2.34V18.93a7.11,7.11,0,0,0-1.91-4.47s-2.33-2.23-8.38-3.2"/><path class="cls-1" d="M72.16,43.62,65.8,38.26a1.49,1.49,0,0,0-1.87,0L57,43.67c-.87.75-2.8.13-2.8-1V7.4a2.65,2.65,0,0,1,2.65-2.65h15.3A2.65,2.65,0,0,1,74.82,7.4V42.61C74.82,43.77,73,44.39,72.16,43.62Z"/><path class="cls-1" d="M72.16,43.62,65.8,38.26a1.49,1.49,0,0,0-1.87,0L57,43.67c-.87.75-2.8.13-2.8-1V7.4a2.65,2.65,0,0,1,2.65-2.65h15.3A2.65,2.65,0,0,1,74.82,7.4V42.61C74.82,43.77,73,44.39,72.16,43.62Z"/><line class="cls-2" x1="16.53" y1="28.77" x2="33.67" y2="28.77"/><line class="cls-2" x1="16.53" y1="28.77" x2="33.67" y2="28.77"/><line class="cls-2" x1="16.53" y1="39.07" x2="33.67" y2="39.07"/><line class="cls-2" x1="16.53" y1="39.07" x2="33.67" y2="39.07"/><line class="cls-2" x1="16.53" y1="49.36" x2="33.67" y2="49.36"/><line class="cls-2" x1="16.53" y1="49.36" x2="33.67" y2="49.36"/><path class="cls-2" d="M41.31,67a2.26,2.26,0,0,0,2.62-2.3V18.93a5.77,5.77,0,0,0-2.16-4.18s-5.92-4.2-16.72-4.2-16.71,4.2-16.71,4.2a5.77,5.77,0,0,0-2.16,4.18V64.67A2.26,2.26,0,0,0,8.81,67a148.64,148.64,0,0,1,16.25-1.22A148.61,148.61,0,0,1,41.31,67Z"/><path class="cls-2" d="M41.31,67a2.26,2.26,0,0,0,2.62-2.3V18.93a5.77,5.77,0,0,0-2.16-4.18s-5.92-4.2-16.72-4.2-16.71,4.2-16.71,4.2a5.77,5.77,0,0,0-2.16,4.18V64.67A2.26,2.26,0,0,0,8.81,67a148.64,148.64,0,0,1,16.25-1.22A148.61,148.61,0,0,1,41.31,67Z"/><path class="cls-2" d="M54.23,11.25c-6.29,1-8.44,3.14-8.44,3.14a7.46,7.46,0,0,0-1.85,4.53V64.67A2.31,2.31,0,0,0,46.56,67s10.82-1.26,18-1.26,18,1.26,18,1.26a2.31,2.31,0,0,0,2.63-2.34V18.93a7.11,7.11,0,0,0-1.91-4.47s-2.33-2.23-8.38-3.2"/><path class="cls-2" d="M54.23,11.25c-6.29,1-8.44,3.14-8.44,3.14a7.46,7.46,0,0,0-1.85,4.53V64.67A2.31,2.31,0,0,0,46.56,67s10.82-1.26,18-1.26,18,1.26,18,1.26a2.31,2.31,0,0,0,2.63-2.34V18.93a7.11,7.11,0,0,0-1.91-4.47s-2.33-2.23-8.38-3.2"/><path class="cls-2" d="M72.16,43.62,65.8,38.26a1.49,1.49,0,0,0-1.87,0L57,43.67c-.87.75-2.8.13-2.8-1V7.4a2.65,2.65,0,0,1,2.65-2.65h15.3A2.65,2.65,0,0,1,74.82,7.4V42.61C74.82,43.77,73,44.39,72.16,43.62Z"/><path class="cls-2" d="M72.16,43.62,65.8,38.26a1.49,1.49,0,0,0-1.87,0L57,43.67c-.87.75-2.8.13-2.8-1V7.4a2.65,2.65,0,0,1,2.65-2.65h15.3A2.65,2.65,0,0,1,74.82,7.4V42.61C74.82,43.77,73,44.39,72.16,43.62Z"/><line class="cls-3" x1="11.6" y1="25.27" x2="28.73" y2="25.27"/><line class="cls-3" x1="11.6" y1="25.27" x2="28.73" y2="25.27"/><line class="cls-3" x1="11.6" y1="35.57" x2="28.73" y2="35.57"/><line class="cls-3" x1="11.6" y1="35.57" x2="28.73" y2="35.57"/><line class="cls-3" x1="11.6" y1="45.86" x2="28.73" y2="45.86"/><line class="cls-3" x1="11.6" y1="45.86" x2="28.73" y2="45.86"/><path class="cls-3" d="M36.38,63.46A2.26,2.26,0,0,0,39,61.17V15.43a5.77,5.77,0,0,0-2.16-4.18S30.92,7,20.12,7s-16.71,4.2-16.71,4.2a5.77,5.77,0,0,0-2.16,4.18V61.17a2.26,2.26,0,0,0,2.62,2.3,148.64,148.64,0,0,1,16.25-1.22A148.61,148.61,0,0,1,36.38,63.46Z"/><path class="cls-3" d="M36.38,63.46A2.26,2.26,0,0,0,39,61.17V15.43a5.77,5.77,0,0,0-2.16-4.18S30.92,7,20.12,7s-16.71,4.2-16.71,4.2a5.77,5.77,0,0,0-2.16,4.18V61.17a2.26,2.26,0,0,0,2.62,2.3,148.64,148.64,0,0,1,16.25-1.22A148.61,148.61,0,0,1,36.38,63.46Z"/><path class="cls-3" d="M49.29,7.75c-6.29,1-8.44,3.14-8.44,3.14A7.46,7.46,0,0,0,39,15.43V61.17a2.31,2.31,0,0,0,2.63,2.34s10.82-1.26,18-1.26,18,1.26,18,1.26a2.31,2.31,0,0,0,2.63-2.34V15.43A7.11,7.11,0,0,0,78.26,11s-2.33-2.23-8.38-3.2"/><path class="cls-3" d="M49.29,7.75c-6.29,1-8.44,3.14-8.44,3.14A7.46,7.46,0,0,0,39,15.43V61.17a2.31,2.31,0,0,0,2.63,2.34s10.82-1.26,18-1.26,18,1.26,18,1.26a2.31,2.31,0,0,0,2.63-2.34V15.43A7.11,7.11,0,0,0,78.26,11s-2.33-2.23-8.38-3.2"/><path class="cls-3" d="M67.22,40.12l-6.35-5.37a1.49,1.49,0,0,0-1.87,0l-6.9,5.42c-.87.75-2.8.13-2.8-1V3.9a2.65,2.65,0,0,1,2.65-2.65h15.3A2.65,2.65,0,0,1,69.88,3.9V39.11C69.88,40.26,68.09,40.88,67.22,40.12Z"/><path class="cls-3" d="M67.22,40.12l-6.35-5.37a1.49,1.49,0,0,0-1.87,0l-6.9,5.42c-.87.75-2.8.13-2.8-1V3.9a2.65,2.65,0,0,1,2.65-2.65h15.3A2.65,2.65,0,0,1,69.88,3.9V39.11C69.88,40.26,68.09,40.88,67.22,40.12Z"/></g></g></svg>