<svg xmlns="http://www.w3.org/2000/svg" viewBox="0 0 49.05 48"><defs><style>.cls-1{fill:#36a4ff;}.cls-1,.cls-2,.cls-3,.cls-4{fill-rule:evenodd;}.cls-2{fill:#18c0cc;}.cls-3{fill:#a2b2c0;}.cls-4{fill:#f4865d;}</style></defs><title>modifiedlogo</title><g id="Layer_2" data-name="Layer 2"><g id="Layer_1-2" data-name="Layer 1"><path class="cls-1" d="M13.23,12.81a3,3,0,0,0-4.08-1.19l-7.54,4a3,3,0,0,0-1.49,1.9l0,.08A3,3,0,0,0,4.31,21L12,16.93A3,3,0,0,0,13.23,12.81Z"/><path class="cls-2" d="M17.5,10.88a3.09,3.09,0,0,0,4.16,1.2L33.84,5.71A3,3,0,0,0,33.5.21l-.07,0A3,3,0,0,0,31,.34L18.77,6.73A3.05,3.05,0,0,0,17.5,10.88Z"/><path class="cls-1" d="M22.68,30.59a3.05,3.05,0,0,0-4.11-1.19L6.32,35.81a3,3,0,0,0-.89,4.58l0,0a3,3,0,0,0,3.62.7l12.34-6.46A3,3,0,0,0,22.68,30.59Z"/><path class="cls-3" d="M26.37,28.67a3.12,3.12,0,0,0,4.17,1.19l16.89-8.74A3,3,0,0,0,49,17.72l0-.06a3,3,0,0,0-4.3-1.91l-17,8.8A3,3,0,0,0,26.37,28.67Z"/><path class="cls-1" d="M41.13,32.26a3.05,3.05,0,0,0,4.09,1.17l2.21-1.15a3,3,0,0,0,1.49-1.87l0-.07A2.94,2.94,0,0,0,44.73,27l-2.35,1.22A3,3,0,0,0,41.13,32.26Z"/><path class="cls-4" d="M36.87,34.16A3,3,0,0,0,32.77,33L15.18,42.29a3,3,0,0,0,.33,5.49l.07,0a2.92,2.92,0,0,0,2.4-.15L35.62,38.3A3.07,3.07,0,0,0,36.87,34.16Z"/><path class="cls-1" d="M33.56,10.36a3,3,0,0,0-1.28,4.09,3.17,3.17,0,0,0,4.21,1.19l6.79-3.46a3,3,0,0,0,.91-4.57l0,0a3.07,3.07,0,0,0-3.71-.7Z"/><path class="cls-2" d="M28,16.37a3.05,3.05,0,0,0-4.12-1.2L1.6,26.88a3,3,0,0,0-1.51,3.4l0,.06a3,3,0,0,0,4.25,1.91L26.75,20.49A3,3,0,0,0,28,16.37Z"/></g></g></svg>