<?xml version="1.0" encoding="UTF-8" standalone="no"?>
<svg width="83px" height="84px" viewBox="0 0 83 84" version="1.1" xmlns="http://www.w3.org/2000/svg" xmlns:xlink="http://www.w3.org/1999/xlink">
    <!-- Generator: Sketch 41.2 (35397) - http://www.bohemiancoding.com/sketch -->
    <title>logomark</title>
    <desc>Created with Sketch.</desc>
    <defs></defs>
    <g id="Page-1" stroke="none" stroke-width="1" fill="none" fill-rule="evenodd">
        <g id="Logo-versions" transform="translate(-740.000000, -507.000000)" fill="#36A4FF">
            <g id="branding-spec">
                <g id="Logo-versions">
                    <g id="4" transform="translate(578.000000, 489.000000)">
                        <g id="logo/logomark" transform="translate(162.000000, 18.000000)">
                            <path d="M46.8780271,29.277244 C45.5644447,26.8251686 42.4554687,25.9980821 40.0026678,27.2834192 L2.7732036,46.7981889 C0.727662496,47.870545 -0.320369254,50.2232707 0.255093212,52.473542 C0.263718988,52.5070725 0.272344763,52.5399821 0.280970539,52.5728917 C1.08563219,55.6856428 4.54271987,57.2472963 7.37382269,55.7632598 L44.783812,36.1541078 C47.2606419,34.855731 48.2094772,31.762229 46.8780271,29.277244 Z M56.1609928,19.2580357 C53.6299619,20.5467287 52.6597334,23.6171584 54.0209495,26.0836096 C55.3632773,28.5167804 58.5396582,29.3383144 61.0461343,28.0619475 L72.394219,22.2847078 C75.2872755,20.8117397 76.0195115,17.0904923 73.9078007,14.6579378 C73.8851348,14.632053 73.8624688,14.6061682 73.8404325,14.5802834 C72.3098513,12.8262804 69.7416735,12.3437139 67.6507398,13.408072 L56.1609928,19.2580357 Z M61.6884156,58.9377376 C60.3818812,56.4729668 57.2895865,55.6415982 54.8499462,56.93359 L25.4621157,72.501779 C21.6736564,74.5084232 22.0015156,80.1588588 26.0075264,81.663686 C26.0491983,81.6792897 26.0908701,81.6942694 26.1325419,81.7098731 C27.4452045,82.1985831 28.8969774,82.1168193 30.1367142,81.4602129 L59.605437,65.8502058 C62.0689774,64.5451068 63.0127217,61.4355884 61.6884156,58.9377376 Z M68.8101793,55.7677563 C70.1140917,58.1661909 73.2001807,58.9751843 75.6349251,57.7179649 L79.3326053,55.8078416 C80.5704658,55.1682995 81.4682816,54.0349799 81.8291204,52.6963753 C81.8395174,52.65629 81.8505261,52.6168121 81.8609231,52.5767269 C82.9507786,48.4831717 78.6023654,45.0577042 74.8196741,47.0115569 L70.8889777,49.0413286 C68.4303812,50.3113024 67.4885308,53.337132 68.8101793,55.7677563 Z M44.1441902,49.7831208 C45.4755299,52.2337398 48.6265338,53.060335 51.1124923,51.7757614 L79.3204092,37.1955403 C81.3936024,36.1238211 82.4558017,33.7724929 81.87256,31.5235582 C81.8638176,31.4906681 81.8550752,31.4571575 81.8463329,31.4242674 C81.0314181,28.3139858 77.5269722,26.7532598 74.6575978,28.2364149 L46.2667154,42.9103416 C43.7564031,44.2079471 42.7947412,47.2996118 44.1441902,49.7831208 Z M37.9946875,52.9819707 C36.6831762,50.5421045 33.5791022,49.7191362 31.1301687,50.9980734 L10.6602584,61.6917186 C7.83300431,63.1683659 7.11819377,66.8989084 9.18142489,69.3375389 C9.20295533,69.3634884 9.22510092,69.3894378 9.24724652,69.4153873 C10.7426892,71.1737715 13.251908,71.6575434 15.2942239,70.5905267 L35.9037744,59.8245938 C38.376699,58.5326818 39.3240382,55.4545827 37.9946875,52.9819707 Z M29.3349523,20.1197481 C30.6617491,22.5857831 33.8020009,23.4175781 36.2794767,22.1249237 L56.625147,11.5064232 C60.474227,9.49750076 60.1412831,3.83979581 56.0700331,2.33419685 C56.0308267,2.31920955 55.9909979,2.30484672 55.9511691,2.29048389 C54.6175267,1.8015233 53.1419941,1.8827045 51.8824084,2.54027219 L31.4502349,13.2037346 C28.9484885,14.509503 27.990108,17.6206162 29.3349523,20.1197481 Z M22.205059,23.3414344 C20.9037081,20.8954047 17.8236815,20.0703574 15.39372,21.3525255 L2.79222412,28.0036947 C1.5574057,28.6559281 0.661963977,29.8111181 0.301834039,31.1750476 C0.290847024,31.2184059 0.279249619,31.2617643 0.268262604,31.3051226 C-0.818231107,35.4774337 3.51858789,38.9690188 7.29140679,36.9776322 L20.1303443,30.2013432 C22.584111,28.9061676 23.5241111,25.8202926 22.205059,23.3414344 Z M36.8800175,2.64506201 C36.891729,2.6386685 36.9034405,2.63227499 36.9151521,2.62588148 C38.2071193,1.9155624 37.5586701,-0.15849258 36.105207,0.00965675992 C31.1210241,0.586990807 26.1528676,2.10800708 21.4362009,4.65262448 C16.7121375,7.20107798 12.6537823,10.5531958 9.33263751,14.4634672 C8.34640297,15.6245288 9.6235767,17.3424652 10.9494458,16.6340642 L10.9845804,16.6148836 L36.8800175,2.64506201 Z M45.2504006,81.353412 C45.2386787,81.3598091 45.2269568,81.3662061 45.2152349,81.3726031 C43.9221222,82.0833135 44.5711463,84.1591509 46.0258981,83.9902692 C51.0144998,83.4126171 55.9870611,81.8907628 60.7079096,79.3447436 C65.4281411,76.7987243 69.4851588,73.4517965 72.8055465,69.5476871 C73.7735302,68.4096548 72.507563,66.667103 71.2039623,67.3567032 C71.1922403,67.3631002 71.1805184,67.3694972 71.1687965,67.3758943 L45.2504006,81.353412 Z" id="logomark"></path>
                        </g>
                    </g>
                </g>
            </g>
        </g>
    </g>
</svg>