<?xml version="1.0" encoding="UTF-8" standalone="no"?>
<svg width="159px" height="47px" viewBox="0 0 159 47" version="1.1" xmlns="http://www.w3.org/2000/svg" xmlns:xlink="http://www.w3.org/1999/xlink">
    <!-- Generator: Sketch 41.2 (35397) - http://www.bohemiancoding.com/sketch -->
    <title>logo</title>
    <desc>Created with Sketch.</desc>
    <defs></defs>
    <g id="Symbols" stroke="none" stroke-width="1" fill="none" fill-rule="evenodd">
        <g id="logo/wordmark" fill="#36A4FF">
            <g id="logo">
                <path d="M108.608565,46.6858379 L105.474291,46.6858379 C96.6655363,46.6858379 89.5247988,39.5451004 89.5247988,30.736346 L89.5247988,15.9497722 C89.5247988,7.14101775 96.6655363,0.000280221231 105.474291,0.000280221231 L108.74167,0.000280221231 C116.225679,0.000280221231 122.292468,6.06706988 122.292468,13.5510784 C122.292468,14.7819502 121.294881,15.7795378 120.064009,15.7795378 L113.856408,15.7795378 C112.625537,15.7795378 111.627949,14.7819502 111.627949,13.5510784 C111.627949,11.9573202 110.335429,10.6647997 108.74167,10.6647997 L105.474291,10.6647997 C102.555787,10.6647997 100.189318,13.031268 100.189318,15.9497722 L100.189318,30.736346 C100.189318,33.6548501 102.555086,36.0213184 105.474291,36.0213184 L108.608565,36.0213184 C110.202323,36.0213184 111.494143,34.7294985 111.494143,33.1357403 C111.494143,31.5237676 112.800675,30.2172362 114.411947,30.2172362 L119.240859,30.2172362 C120.852131,30.2172362 122.158663,31.5237676 122.158663,33.1357403 C122.158663,40.6190483 116.091873,46.6858379 108.608565,46.6858379 Z M158.053391,13.5507982 C158.053391,6.06678966 151.986602,0 144.502593,0 L138.835819,0 C131.352511,0 125.285021,6.06678966 125.285021,13.5507982 L125.285021,33.1354601 C125.285021,40.6194686 131.351811,46.6855577 138.835819,46.6855577 L144.369488,46.6855577 C151.852796,46.6855577 157.919586,40.6194686 157.919586,33.1354601 C157.919586,31.524188 156.613054,30.2176565 155.001082,30.2176565 L150.17287,30.2176565 C148.560897,30.2176565 147.254366,31.524188 147.254366,33.1354601 C147.254366,34.7292183 145.962546,36.0210382 144.369488,36.0210382 L138.835819,36.0210382 C137.242061,36.0210382 135.950241,34.7292183 135.950241,33.1354601 C135.950241,33.1354601 135.782809,31.2271535 137.071126,30.5441142 C138.618648,29.7237666 141.190378,29.2053573 143.684347,28.7156707 C146.533496,28.1566293 149.478622,27.578673 151.983099,26.3449991 C157.264569,23.7438455 158.053391,19.421433 158.053391,17.0759813 L158.053391,13.5507982 Z M147.284489,15.7904664 C147.284489,16.3481066 146.901287,16.8321888 146.359059,16.9610906 L144.437442,17.4171506 C142.593586,17.8542958 140.779854,18.4077327 139.006054,19.0746592 L137.138379,19.7766134 C136.801413,19.9034135 136.440628,19.6540166 136.440628,19.2939323 L136.440628,15.441591 C136.440628,12.4474271 138.868045,10.0200107 141.862909,10.0200107 C144.857073,10.0200107 147.284489,12.4474271 147.284489,15.441591 L147.284489,15.7904664 Z M52.7643268,33.1353199 C52.7643268,40.6193285 58.8311165,46.6861181 66.315125,46.6861181 L71.9818989,46.6861181 C79.4652069,46.6861181 85.5326971,40.6193285 85.5326971,33.1353199 L85.5326971,13.5506581 C85.5326971,6.06664955 79.4659074,0.000560442463 71.9818989,0.000560442463 L66.4482301,0.000560442463 C58.9649221,0.000560442463 52.8981325,6.06664955 52.8981325,13.5506581 C52.8981325,15.1619302 54.2046639,16.4684617 55.8166366,16.4684617 L60.6448484,16.4684617 C62.256821,16.4684617 63.5633525,15.1619302 63.5633525,13.5506581 C63.5633525,11.9568998 64.8551724,10.66508 66.4482301,10.66508 L71.9818989,10.66508 C73.5756571,10.66508 74.867477,11.9568998 74.867477,13.5506581 C74.867477,13.5506581 74.9543456,15.5009979 73.7465921,16.1420039 C72.1990703,16.9630521 69.62734,17.4807609 67.133371,17.9704475 C64.2842216,18.5294888 61.3390965,19.1074451 58.8346192,20.3411191 C53.5531496,22.9422727 52.7643268,27.2646852 52.7643268,29.6101369 L52.7643268,33.1353199 Z M63.5332287,30.8956518 C63.5332287,30.3380115 63.9164313,29.8539293 64.4586594,29.7250276 L66.3802765,29.2689675 C68.2241322,28.8318224 70.0378641,28.2783855 71.8116645,27.6114589 L73.679339,26.9095047 C74.016305,26.7827046 74.3770898,27.0321015 74.3770898,27.3921858 L74.3770898,31.2445272 C74.3770898,34.238691 71.9496734,36.6661075 68.954809,36.6661075 C65.9606452,36.6661075 63.5332287,34.238691 63.5332287,31.2445272 L63.5332287,30.8956518 Z M49.0263858,0.264388732 L48.983652,0.260185413 C48.0722325,0.171215172 47.1517057,0.178220703 46.2458906,0.311325788 C41.6957983,0.979653425 39.8365305,2.39477064 37.8441575,4.8425031 L37.8441575,1.70682752 C37.8441575,0.76458363 37.0805547,0.000280221231 36.1376102,0.000280221231 L28.8861853,0.000280221231 C27.9432409,0.000280221231 27.179638,0.76458363 27.179638,1.70682752 L27.179638,44.9792906 C27.179638,45.9215345 27.9432409,46.6858379 28.8861853,46.6858379 L36.1376102,46.6858379 C37.0805547,46.6858379 37.8441575,45.9215345 37.8441575,44.9792906 L37.8441575,27.8325535 C37.8441575,27.8325535 37.6627143,10.8343336 47.532106,10.8343336 C48.5584163,10.8343336 49.4488193,10.1281761 49.6421719,9.1200802 L50.8667387,2.72473114 C51.0965201,1.52258206 50.2446476,0.383482755 49.0263858,0.264388732 Z M21.4740535,13.2991595 L21.4740535,6.04703406 C21.4740535,5.10479017 20.7097501,4.34048676 19.7675062,4.34048676 L14.2996894,4.34048676 L14.2996894,1.70640719 C14.2996894,0.764163298 13.5360866,0.000560442463 12.5931421,0.000560442463 L5.34101667,0.000560442463 C4.39877278,0.000560442463 3.63516992,0.764163298 3.63516992,1.70640719 L3.63516992,4.34048676 L1.7065473,4.34048676 C0.764303409,4.34048676 -2.27373675e-13,5.10479017 -2.27373675e-13,6.04703406 L-2.27373675e-13,13.2991595 C-2.27373675e-13,14.2414034 0.764303409,15.0057068 1.7065473,15.0057068 L3.63516992,15.0057068 L3.63516992,32.9587806 C3.63516992,40.5976113 9.82735858,46.7898 17.4661894,46.7898 L19.7429869,46.7898 C20.6859313,46.7898 21.4495342,46.0261971 21.4495342,45.0839533 L21.4495342,37.8318278 C21.4495342,36.8888833 20.6859313,36.1252805 19.7429869,36.1252805 L17.4661894,36.1252805 C15.7176089,36.1252805 14.2996894,34.7073611 14.2996894,32.9587806 L14.2996894,15.0057068 L19.7675062,15.0057068 C20.7097501,15.0057068 21.4740535,14.2414034 21.4740535,13.2991595 Z" id="wordmark"></path>
            </g>
        </g>
    </g>
</svg>