<svg xmlns="http://www.w3.org/2000/svg" xmlns:xlink="http://www.w3.org/1999/xlink" viewBox="0 0 1889.15 906.32"><defs><style>.cls-1,.cls-10,.cls-4,.cls-5,.cls-6,.cls-7,.cls-8,.cls-9{fill:none;}.cls-2{clip-path:url(#clip-path);}.cls-3{opacity:0.4;}.cls-10,.cls-4,.cls-5,.cls-6,.cls-7,.cls-8,.cls-9{stroke:#244156;stroke-miterlimit:10;}.cls-4{stroke-width:2.16px;}.cls-5{stroke-width:1.27px;}.cls-6{stroke-width:2.53px;}.cls-7{stroke-width:1.61px;}.cls-8{stroke-width:0.73px;}.cls-9{stroke-width:1.75px;}.cls-10{stroke-width:1.72px;}</style><clipPath id="clip-path"><rect class="cls-1" x="341.43" y="-30.85" width="1300" height="784.39"/></clipPath></defs><title>videopattern</title><g id="Layer_2" data-name="Layer 2"><g id="Layer_1-2" data-name="Layer 1"><g class="cls-2"><g class="cls-3"><polyline class="cls-4" points="204.81 15.1 204.81 20.27 209.98 20.27"/><path class="cls-4" d="M188,19.62V16.14a1,1,0,0,1,1-1h15.8a.75.75,0,0,1,.58.3l4.29,4.23a.84.84,0,0,1,.31.64V43.83a1,1,0,0,1-1,1H189a1,1,0,0,1-1-1V40.38"/><circle class="cls-4" cx="194.42" cy="29.26" r="6.39"/><line class="cls-4" x1="189.91" y1="33.77" x2="182.88" y2="40.8"/></g><g class="cls-3"><path class="cls-5" d="M488.6,7.24A2.78,2.78,0,1,0,486.31,5L482.26.9l-3.94,3.94a2.78,2.78,0,1,1-2.53,2.53l-3.94,3.94,10.4,10.4,10.4-10.4Z"/></g><g class="cls-3"><path class="cls-5" d="M113.45,167a2.78,2.78,0,1,0-2.29-2.29l-4.06-4.06-3.94,3.94a2.78,2.78,0,1,1-2.53,2.53L96.71,171l10.4,10.4,10.4-10.4Z"/></g><g class="cls-3"><ellipse class="cls-6" cx="339.1" cy="154.64" rx="8.1" ry="5.97"/><ellipse class="cls-6" cx="360.86" cy="154.64" rx="8.1" ry="5.97"/><path class="cls-6" d="M346.92,152.73a12.35,12.35,0,0,1,6.23-.14"/><path class="cls-6" d="M331.43,152.73l7.67-14.32s4-7.43,7.82,0"/><path class="cls-6" d="M368.5,152.64l-7.66-14.32s-4-7.43-7.82,0"/></g><g class="cls-3"><circle class="cls-7" cx="578.43" cy="206.49" r="9.16" transform="translate(128.67 624.74) rotate(-62.57)"/><path class="cls-7" d="M587.55,198.51a12.12,12.12,0,1,1-18.28,15.91"/><path class="cls-7" d="M575.71,199.42s-2.26,1.83-.78,2c1.09.15,1.37-.18,1.37-.18l1-.67a10.41,10.41,0,0,0-.6,1.62c0,.25.16,1,.72.34,1-1.24,1.28-1.61,1.8-1.34s1.79.41,1.25,1.72-.38.46-1.22.43-1.6,1-1,1.49a21.74,21.74,0,0,1,1.67,1.76s1,1-.77,4.08c0,0-.86,1.73,0,1.64s3.93-1.86,4.1-3,.2-1.31,1-1.33,1.52-.21,1.75-.71"/><path class="cls-7" d="M571.11,205.17s1.31-2.06,1.57-1.49a9.49,9.49,0,0,1,.63,1.25c.18.58,1.7,1.64.9,1.85a3,3,0,0,0-1.41.58c-.5.36-1.46,1.28-1.46,1.28"/><line class="cls-7" x1="587.55" y1="198.51" x2="590.55" y2="195.89"/><path class="cls-7" d="M571.49,212.48"/><path class="cls-7" d="M569.26,214.42"/><line class="cls-7" x1="578.57" y1="220.57" x2="578.57" y2="222.79"/><line class="cls-7" x1="574.39" y1="222.79" x2="582.76" y2="222.79"/></g><g class="cls-3"><polygon class="cls-5" points="252.09 195.9 260.87 184.88 257.5 179.42 252.09 179.42 246.68 179.42 243.3 184.88 252.09 195.9"/><line class="cls-5" x1="243.3" y1="184.88" x2="260.87" y2="184.88"/><polyline class="cls-5" points="252.09 179.42 248.95 184.88 252.09 195.9"/><polyline class="cls-5" points="252.09 179.42 255.22 184.88 252.09 195.9"/><line class="cls-5" x1="255.22" y1="184.88" x2="257.49" y2="179.42"/><line class="cls-5" x1="248.95" y1="184.88" x2="246.68" y2="179.42"/></g><g class="cls-3"><polygon class="cls-8" points="414.19 90.04 419.25 83.69 417.31 80.54 414.19 80.54 411.07 80.54 409.12 83.69 414.19 90.04"/><line class="cls-8" x1="409.12" y1="83.69" x2="419.26" y2="83.69"/><polyline class="cls-8" points="414.19 80.54 412.38 83.69 414.19 90.04"/><polyline class="cls-8" points="414.19 80.54 416 83.69 414.19 90.04"/><line class="cls-8" x1="416" y1="83.69" x2="417.31" y2="80.54"/><line class="cls-8" x1="412.38" y1="83.69" x2="411.07" y2="80.54"/></g><g class="cls-3"><path class="cls-9" d="M224.91,296c-3.39-.8-6.84-4.74-6.84-9.8,0-5.28,4.07-9.84,8.8-9.84h8.68c4.74,0,8.58,4.52,8.58,9.81s-3.84,9.81-8.58,9.81h-2.73l-7.91,6.67Z"/><path class="cls-9" d="M236.36,282.48a3,3,0,0,0-4.36,0l-.73.74-.73-.74a3,3,0,0,0-4.36,0,3.19,3.19,0,0,0,0,4.45l5.09,5.19,5.09-5.19A3.19,3.19,0,0,0,236.36,282.48Z"/></g><g class="cls-3"><line class="cls-8" x1="159.58" y1="73.74" x2="162.6" y2="73.74"/><line class="cls-8" x1="159.58" y1="75.55" x2="162.6" y2="75.55"/><line class="cls-8" x1="159.58" y1="77.37" x2="162.6" y2="77.37"/><path class="cls-8" d="M164.41,80.54v-9c0-.56-1.43-1-3.33-1s-3.33.45-3.33,1v9a20.87,20.87,0,0,1,3.33-.28A16,16,0,0,1,164.41,80.54Z"/><path class="cls-8" d="M166.23,70.64c-1.11.17-1.82.5-1.82.89v9a33,33,0,0,1,3.63-.28,24.84,24.84,0,0,1,3.63.28v-9c0-.38-.75-.72-1.82-.89"/><path class="cls-8" d="M169.4,76.36l-1.12-.95a.26.26,0,0,0-.33,0l-1.22,1c-.15.13-.49,0-.49-.18V69.5h3.63v6.68C169.87,76.38,169.55,76.49,169.4,76.36Z"/></g><g class="cls-3"><line class="cls-10" x1="440.28" y1="224.19" x2="447.39" y2="224.19"/><line class="cls-10" x1="440.28" y1="228.46" x2="447.39" y2="228.46"/><line class="cls-10" x1="440.28" y1="232.73" x2="447.39" y2="232.73"/><path class="cls-10" d="M451.65,240.18V219c0-1.31-3.35-2.38-7.83-2.38S436,217.69,436,219v21.17a49.05,49.05,0,0,1,7.83-.65A37.58,37.58,0,0,1,451.65,240.18Z"/><path class="cls-10" d="M455.92,216.92c-2.61.39-4.27,1.17-4.27,2.09v21.17a77.45,77.45,0,0,1,8.54-.65,58.38,58.38,0,0,1,8.54.65V219c0-.9-1.76-1.68-4.27-2.09"/><path class="cls-10" d="M463.36,230.35l-2.64-2.23a.62.62,0,0,0-.78,0l-2.86,2.25c-.36.31-1.16.05-1.16-.42V214.22h8.54v15.7C464.46,230.41,463.72,230.67,463.36,230.35Z"/></g><g class="cls-3"><polyline class="cls-4" points="748.02 15.1 748.02 20.27 753.2 20.27"/><path class="cls-4" d="M731.2,19.62V16.14a1,1,0,0,1,1-1H748a.75.75,0,0,1,.58.3l4.29,4.23a.84.84,0,0,1,.31.64V43.83a1,1,0,0,1-1,1h-20a1,1,0,0,1-1-1V40.38"/><circle class="cls-4" cx="737.64" cy="29.26" r="6.39"/><line class="cls-4" x1="733.13" y1="33.77" x2="726.1" y2="40.8"/></g><g class="cls-3"><path class="cls-5" d="M1031.82,7.24A2.78,2.78,0,1,0,1029.53,5L1025.48.9l-3.94,3.94A2.78,2.78,0,1,1,1019,7.36l-3.94,3.94,10.4,10.4,10.4-10.4Z"/></g><g class="cls-3"><path class="cls-5" d="M656.67,167a2.78,2.78,0,1,0-2.29-2.29l-4.06-4.06-3.94,3.94a2.78,2.78,0,1,1-2.53,2.53L639.93,171l10.4,10.4,10.4-10.4Z"/></g><g class="cls-3"><ellipse class="cls-6" cx="882.32" cy="154.64" rx="8.1" ry="5.97"/><ellipse class="cls-6" cx="904.08" cy="154.64" rx="8.1" ry="5.97"/><path class="cls-6" d="M890.14,152.73a12.35,12.35,0,0,1,6.23-.14"/><path class="cls-6" d="M874.65,152.73l7.67-14.32s4-7.43,7.82,0"/><path class="cls-6" d="M911.72,152.64l-7.66-14.32s-4-7.43-7.82,0"/></g><g class="cls-3"><circle class="cls-7" cx="1121.65" cy="206.49" r="9.16" transform="translate(421.62 1106.88) rotate(-62.57)"/><path class="cls-7" d="M1130.77,198.51a12.12,12.12,0,1,1-18.28,15.91"/><path class="cls-7" d="M1118.93,199.42s-2.26,1.83-.78,2c1.09.15,1.37-.18,1.37-.18l1-.67a10.41,10.41,0,0,0-.6,1.62c0,.25.16,1,.72.34,1-1.24,1.28-1.61,1.8-1.34s1.79.41,1.25,1.72-.38.46-1.22.43-1.6,1-1,1.49a21.74,21.74,0,0,1,1.67,1.76s1,1-.77,4.08c0,0-.86,1.73,0,1.64s3.93-1.86,4.1-3,.2-1.31,1-1.33,1.52-.21,1.75-.71"/><path class="cls-7" d="M1114.32,205.17s1.31-2.06,1.57-1.49a9.49,9.49,0,0,1,.63,1.25c.18.58,1.7,1.64.9,1.85a3,3,0,0,0-1.41.58c-.5.36-1.46,1.28-1.46,1.28"/><line class="cls-7" x1="1130.77" y1="198.51" x2="1133.77" y2="195.89"/><path class="cls-7" d="M1114.71,212.48"/><path class="cls-7" d="M1112.48,214.42"/><line class="cls-7" x1="1121.79" y1="220.57" x2="1121.79" y2="222.79"/><line class="cls-7" x1="1117.61" y1="222.79" x2="1125.98" y2="222.79"/></g><g class="cls-3"><polygon class="cls-5" points="795.31 195.9 804.09 184.88 800.71 179.42 795.31 179.42 789.9 179.42 786.52 184.88 795.31 195.9"/><line class="cls-5" x1="786.52" y1="184.88" x2="804.09" y2="184.88"/><polyline class="cls-5" points="795.31 179.42 792.17 184.88 795.31 195.9"/><polyline class="cls-5" points="795.31 179.42 798.44 184.88 795.31 195.9"/><line class="cls-5" x1="798.44" y1="184.88" x2="800.71" y2="179.42"/><line class="cls-5" x1="792.17" y1="184.88" x2="789.9" y2="179.42"/></g><g class="cls-3"><polygon class="cls-8" points="957.41 90.04 962.47 83.69 960.53 80.54 957.41 80.54 954.29 80.54 952.34 83.69 957.41 90.04"/><line class="cls-8" x1="952.34" y1="83.69" x2="962.47" y2="83.69"/><polyline class="cls-8" points="957.41 80.54 955.6 83.69 957.41 90.04"/><polyline class="cls-8" points="957.41 80.54 959.22 83.69 957.41 90.04"/><line class="cls-8" x1="959.22" y1="83.69" x2="960.53" y2="80.54"/><line class="cls-8" x1="955.6" y1="83.69" x2="954.29" y2="80.54"/></g><g class="cls-3"><path class="cls-9" d="M768.13,296c-3.39-.8-6.84-4.74-6.84-9.8,0-5.28,4.07-9.84,8.8-9.84h8.68c4.74,0,8.58,4.52,8.58,9.81s-3.84,9.81-8.58,9.81H776l-7.91,6.67Z"/><path class="cls-9" d="M779.58,282.48a3,3,0,0,0-4.36,0l-.73.74-.73-.74a3,3,0,0,0-4.36,0,3.19,3.19,0,0,0,0,4.45l5.09,5.19,5.09-5.19A3.19,3.19,0,0,0,779.58,282.48Z"/></g><g class="cls-3"><line class="cls-8" x1="702.8" y1="73.74" x2="705.82" y2="73.74"/><line class="cls-8" x1="702.8" y1="75.55" x2="705.82" y2="75.55"/><line class="cls-8" x1="702.8" y1="77.37" x2="705.82" y2="77.37"/><path class="cls-8" d="M707.63,80.54v-9c0-.56-1.43-1-3.33-1s-3.33.45-3.33,1v9a20.87,20.87,0,0,1,3.33-.28A16,16,0,0,1,707.63,80.54Z"/><path class="cls-8" d="M709.45,70.64c-1.11.17-1.82.5-1.82.89v9a33,33,0,0,1,3.63-.28,24.84,24.84,0,0,1,3.63.28v-9c0-.38-.75-.72-1.82-.89"/><path class="cls-8" d="M712.62,76.36l-1.12-.95a.26.26,0,0,0-.33,0l-1.22,1c-.15.13-.49,0-.49-.18V69.5h3.63v6.68C713.08,76.38,712.77,76.49,712.62,76.36Z"/></g><g class="cls-3"><line class="cls-10" x1="983.5" y1="224.19" x2="990.61" y2="224.19"/><line class="cls-10" x1="983.5" y1="228.46" x2="990.61" y2="228.46"/><line class="cls-10" x1="983.5" y1="232.73" x2="990.61" y2="232.73"/><path class="cls-10" d="M994.87,240.18V219c0-1.31-3.35-2.38-7.83-2.38s-7.83,1.06-7.83,2.38v21.17a49.05,49.05,0,0,1,7.83-.65A37.58,37.58,0,0,1,994.87,240.18Z"/><path class="cls-10" d="M999.14,216.92c-2.61.39-4.27,1.17-4.27,2.09v21.17a77.45,77.45,0,0,1,8.54-.65,58.38,58.38,0,0,1,8.54.65V219c0-.9-1.76-1.68-4.27-2.09"/><path class="cls-10" d="M1006.58,230.35l-2.64-2.23a.62.62,0,0,0-.78,0l-2.86,2.25c-.36.31-1.16.05-1.16-.42V214.22h8.54v15.7C1007.68,230.41,1006.94,230.67,1006.58,230.35Z"/></g><g class="cls-3"><polyline class="cls-4" points="1291.24 15.1 1291.24 20.27 1296.42 20.27"/><path class="cls-4" d="M1274.42,19.62V16.14a1,1,0,0,1,1-1h15.8a.75.75,0,0,1,.58.3l4.29,4.23a.84.84,0,0,1,.31.64V43.83a1,1,0,0,1-1,1h-20a1,1,0,0,1-1-1V40.38"/><circle class="cls-4" cx="1280.86" cy="29.26" r="6.39"/><line class="cls-4" x1="1276.35" y1="33.77" x2="1269.32" y2="40.8"/></g><g class="cls-3"><path class="cls-5" d="M1575,7.24A2.78,2.78,0,1,0,1572.75,5L1568.69.9l-3.94,3.94a2.78,2.78,0,1,1-2.53,2.53l-3.94,3.94,10.4,10.4,10.4-10.4Z"/></g><g class="cls-3"><path class="cls-5" d="M1199.89,167a2.78,2.78,0,1,0-2.29-2.29l-4.06-4.06-3.94,3.94a2.78,2.78,0,1,1-2.53,2.53l-3.94,3.94,10.4,10.4,10.4-10.4Z"/></g><g class="cls-3"><ellipse class="cls-6" cx="1425.54" cy="154.64" rx="8.1" ry="5.97"/><ellipse class="cls-6" cx="1447.3" cy="154.64" rx="8.1" ry="5.97"/><path class="cls-6" d="M1433.36,152.73a12.35,12.35,0,0,1,6.23-.14"/><path class="cls-6" d="M1417.87,152.73l7.67-14.32s4-7.43,7.82,0"/><path class="cls-6" d="M1454.94,152.64l-7.66-14.32s-4-7.43-7.82,0"/></g><g class="cls-3"><circle class="cls-7" cx="1664.87" cy="206.49" r="9.16" transform="translate(714.57 1589.01) rotate(-62.57)"/><path class="cls-7" d="M1674,198.51a12.12,12.12,0,1,1-18.28,15.91"/><path class="cls-7" d="M1662.15,199.42s-2.26,1.83-.78,2c1.09.15,1.37-.18,1.37-.18l1-.67a10.41,10.41,0,0,0-.6,1.62c0,.25.16,1,.72.34,1-1.24,1.28-1.61,1.8-1.34s1.79.41,1.25,1.72-.38.46-1.22.43-1.6,1-1,1.49a21.74,21.74,0,0,1,1.67,1.76s1,1-.77,4.08c0,0-.86,1.73,0,1.64s3.93-1.86,4.1-3,.2-1.31,1-1.33,1.52-.21,1.75-.71"/><path class="cls-7" d="M1657.54,205.17s1.31-2.06,1.57-1.49a9.49,9.49,0,0,1,.63,1.25c.18.58,1.7,1.64.9,1.85a3,3,0,0,0-1.41.58c-.5.36-1.46,1.28-1.46,1.28"/><line class="cls-7" x1="1673.98" y1="198.51" x2="1676.99" y2="195.89"/><path class="cls-7" d="M1657.93,212.48"/><path class="cls-7" d="M1655.7,214.42"/><line class="cls-7" x1="1665.01" y1="220.57" x2="1665.01" y2="222.79"/><line class="cls-7" x1="1660.83" y1="222.79" x2="1669.2" y2="222.79"/></g><g class="cls-3"><polygon class="cls-5" points="1338.53 195.9 1347.31 184.88 1343.93 179.42 1338.53 179.42 1333.12 179.42 1329.74 184.88 1338.53 195.9"/><line class="cls-5" x1="1329.74" y1="184.88" x2="1347.31" y2="184.88"/><polyline class="cls-5" points="1338.53 179.42 1335.39 184.88 1338.53 195.9"/><polyline class="cls-5" points="1338.53 179.42 1341.66 184.88 1338.53 195.9"/><line class="cls-5" x1="1341.66" y1="184.88" x2="1343.93" y2="179.42"/><line class="cls-5" x1="1335.39" y1="184.88" x2="1333.12" y2="179.42"/></g><g class="cls-3"><polygon class="cls-8" points="1500.63 90.04 1505.69 83.69 1503.74 80.54 1500.63 80.54 1497.51 80.54 1495.56 83.69 1500.63 90.04"/><line class="cls-8" x1="1495.56" y1="83.69" x2="1505.69" y2="83.69"/><polyline class="cls-8" points="1500.63 80.54 1498.82 83.69 1500.63 90.04"/><polyline class="cls-8" points="1500.63 80.54 1502.43 83.69 1500.63 90.04"/><line class="cls-8" x1="1502.43" y1="83.69" x2="1503.75" y2="80.54"/><line class="cls-8" x1="1498.82" y1="83.69" x2="1497.51" y2="80.54"/></g><g class="cls-3"><path class="cls-9" d="M1311.35,296c-3.39-.8-6.84-4.74-6.84-9.8,0-5.28,4.07-9.84,8.8-9.84H1322c4.74,0,8.58,4.52,8.58,9.81S1326.73,296,1322,296h-2.73l-7.91,6.67Z"/><path class="cls-9" d="M1322.8,282.48a3,3,0,0,0-4.36,0l-.73.74-.73-.74a3,3,0,0,0-4.36,0,3.19,3.19,0,0,0,0,4.45l5.09,5.19,5.09-5.19A3.19,3.19,0,0,0,1322.8,282.48Z"/></g><g class="cls-3"><line class="cls-8" x1="1246.02" y1="73.74" x2="1249.04" y2="73.74"/><line class="cls-8" x1="1246.02" y1="75.55" x2="1249.04" y2="75.55"/><line class="cls-8" x1="1246.02" y1="77.37" x2="1249.04" y2="77.37"/><path class="cls-8" d="M1250.85,80.54v-9c0-.56-1.43-1-3.33-1s-3.33.45-3.33,1v9a20.87,20.87,0,0,1,3.33-.28A16,16,0,0,1,1250.85,80.54Z"/><path class="cls-8" d="M1252.67,70.64c-1.11.17-1.82.5-1.82.89v9a33,33,0,0,1,3.63-.28,24.84,24.84,0,0,1,3.63.28v-9c0-.38-.75-.72-1.82-.89"/><path class="cls-8" d="M1255.83,76.36l-1.12-.95a.26.26,0,0,0-.33,0l-1.22,1c-.15.13-.49,0-.49-.18V69.5h3.63v6.68C1256.3,76.38,1256,76.49,1255.83,76.36Z"/></g><g class="cls-3"><line class="cls-10" x1="1526.72" y1="224.19" x2="1533.83" y2="224.19"/><line class="cls-10" x1="1526.72" y1="228.46" x2="1533.83" y2="228.46"/><line class="cls-10" x1="1526.72" y1="232.73" x2="1533.83" y2="232.73"/><path class="cls-10" d="M1538.09,240.18V219c0-1.31-3.35-2.38-7.83-2.38s-7.83,1.06-7.83,2.38v21.17a49.05,49.05,0,0,1,7.83-.65A37.58,37.58,0,0,1,1538.09,240.18Z"/><path class="cls-10" d="M1542.36,216.92c-2.61.39-4.27,1.17-4.27,2.09v21.17a77.45,77.45,0,0,1,8.54-.65,58.38,58.38,0,0,1,8.54.65V219c0-.9-1.76-1.68-4.27-2.09"/><path class="cls-10" d="M1549.8,230.35l-2.64-2.23a.62.62,0,0,0-.78,0l-2.86,2.25c-.36.31-1.16.05-1.16-.42V214.22h8.54v15.7C1550.9,230.41,1550.16,230.67,1549.8,230.35Z"/></g><g class="cls-3"><polyline class="cls-4" points="204.81 616.86 204.81 622.03 209.98 622.03"/><path class="cls-4" d="M188,621.38V617.9a1,1,0,0,1,1-1h15.8a.75.75,0,0,1,.58.3l4.29,4.23a.84.84,0,0,1,.31.64v23.55a1,1,0,0,1-1,1H189a1,1,0,0,1-1-1v-3.44"/><circle class="cls-4" cx="194.42" cy="631.02" r="6.39"/><line class="cls-4" x1="189.91" y1="635.53" x2="182.88" y2="642.56"/></g><g class="cls-3"><path class="cls-5" d="M488.6,609a2.78,2.78,0,1,0-2.29-2.29l-4.06-4.06-3.94,3.94a2.78,2.78,0,1,1-2.53,2.53l-3.94,3.94,10.4,10.4,10.4-10.4Z"/></g><g class="cls-3"><path class="cls-5" d="M113.45,768.71a2.78,2.78,0,1,0-2.29-2.29l-4.06-4.06-3.94,3.94a2.78,2.78,0,1,1-2.53,2.53l-3.94,3.94,10.4,10.4,10.4-10.4Z"/></g><g class="cls-3"><ellipse class="cls-6" cx="339.1" cy="756.4" rx="8.1" ry="5.97"/><ellipse class="cls-6" cx="360.86" cy="756.4" rx="8.1" ry="5.97"/><path class="cls-6" d="M346.92,754.49a12.35,12.35,0,0,1,6.23-.14"/><path class="cls-6" d="M331.43,754.49l7.67-14.32s4-7.43,7.82,0"/><path class="cls-6" d="M368.5,754.4l-7.66-14.32s-4-7.43-7.82,0"/></g><g class="cls-3"><polygon class="cls-5" points="252.09 797.65 260.87 786.63 257.5 781.18 252.09 781.18 246.68 781.18 243.3 786.63 252.09 797.65"/><line class="cls-5" x1="243.3" y1="786.64" x2="260.87" y2="786.64"/><polyline class="cls-5" points="252.09 781.18 248.95 786.63 252.09 797.65"/><polyline class="cls-5" points="252.09 781.18 255.22 786.63 252.09 797.65"/><line class="cls-5" x1="255.22" y1="786.64" x2="257.49" y2="781.18"/><line class="cls-5" x1="248.95" y1="786.64" x2="246.68" y2="781.18"/></g><g class="cls-3"><polygon class="cls-8" points="414.19 691.8 419.25 685.45 417.31 682.3 414.19 682.3 411.07 682.3 409.12 685.45 414.19 691.8"/><line class="cls-8" x1="409.12" y1="685.44" x2="419.26" y2="685.44"/><polyline class="cls-8" points="414.19 682.3 412.38 685.45 414.19 691.8"/><polyline class="cls-8" points="414.19 682.3 416 685.45 414.19 691.8"/><line class="cls-8" x1="416" y1="685.44" x2="417.31" y2="682.3"/><line class="cls-8" x1="412.38" y1="685.44" x2="411.07" y2="682.3"/></g><g class="cls-3"><path class="cls-9" d="M224.91,897.78c-3.39-.8-6.84-4.74-6.84-9.8,0-5.28,4.07-9.84,8.8-9.84h8.68c4.74,0,8.58,4.52,8.58,9.81s-3.84,9.81-8.58,9.81h-2.73l-7.91,6.67Z"/><path class="cls-9" d="M236.36,884.24a3,3,0,0,0-4.36,0l-.73.74-.73-.74a3,3,0,0,0-4.36,0,3.19,3.19,0,0,0,0,4.45l5.09,5.19,5.09-5.19A3.19,3.19,0,0,0,236.36,884.24Z"/></g><g class="cls-3"><line class="cls-8" x1="159.58" y1="675.5" x2="162.6" y2="675.5"/><line class="cls-8" x1="159.58" y1="677.31" x2="162.6" y2="677.31"/><line class="cls-8" x1="159.58" y1="679.13" x2="162.6" y2="679.13"/><path class="cls-8" d="M164.41,682.3v-9c0-.56-1.43-1-3.33-1s-3.33.45-3.33,1v9a20.87,20.87,0,0,1,3.33-.28A16,16,0,0,1,164.41,682.3Z"/><path class="cls-8" d="M166.23,672.4c-1.11.17-1.82.5-1.82.89v9A33,33,0,0,1,168,682a24.84,24.84,0,0,1,3.63.28v-9c0-.38-.75-.72-1.82-.89"/><path class="cls-8" d="M169.4,678.12l-1.12-.95a.26.26,0,0,0-.33,0l-1.22,1c-.15.13-.49,0-.49-.18v-6.69h3.63v6.68C169.87,678.14,169.55,678.25,169.4,678.12Z"/></g><g class="cls-3"><polyline class="cls-4" points="748.02 616.86 748.02 622.03 753.2 622.03"/><path class="cls-4" d="M731.2,621.38V617.9a1,1,0,0,1,1-1H748a.75.75,0,0,1,.58.3l4.29,4.23a.84.84,0,0,1,.31.64v23.55a1,1,0,0,1-1,1h-20a1,1,0,0,1-1-1v-3.44"/><circle class="cls-4" cx="737.64" cy="631.02" r="6.39"/><line class="cls-4" x1="733.13" y1="635.53" x2="726.1" y2="642.56"/></g><g class="cls-3"><path class="cls-5" d="M1031.82,609a2.78,2.78,0,1,0-2.29-2.29l-4.06-4.06-3.94,3.94a2.78,2.78,0,1,1-2.53,2.53l-3.94,3.94,10.4,10.4,10.4-10.4Z"/></g><g class="cls-3"><ellipse class="cls-6" cx="882.32" cy="756.4" rx="8.1" ry="5.97"/><ellipse class="cls-6" cx="904.08" cy="756.4" rx="8.1" ry="5.97"/><path class="cls-6" d="M890.14,754.49a12.35,12.35,0,0,1,6.23-.14"/><path class="cls-6" d="M874.65,754.49l7.67-14.32s4-7.43,7.82,0"/><path class="cls-6" d="M911.72,754.4l-7.66-14.32s-4-7.43-7.82,0"/></g><g class="cls-3"><polygon class="cls-8" points="957.41 691.8 962.47 685.45 960.53 682.3 957.41 682.3 954.29 682.3 952.34 685.45 957.41 691.8"/><line class="cls-8" x1="952.34" y1="685.44" x2="962.47" y2="685.44"/><polyline class="cls-8" points="957.41 682.3 955.6 685.45 957.41 691.8"/><polyline class="cls-8" points="957.41 682.3 959.22 685.45 957.41 691.8"/><line class="cls-8" x1="959.22" y1="685.44" x2="960.53" y2="682.3"/><line class="cls-8" x1="955.6" y1="685.44" x2="954.29" y2="682.3"/></g><g class="cls-3"><path class="cls-9" d="M768.13,897.78c-3.39-.8-6.84-4.74-6.84-9.8,0-5.28,4.07-9.84,8.8-9.84h8.68c4.74,0,8.58,4.52,8.58,9.81s-3.84,9.81-8.58,9.81H776l-7.91,6.67Z"/><path class="cls-9" d="M779.58,884.24a3,3,0,0,0-4.36,0l-.73.74-.73-.74a3,3,0,0,0-4.36,0,3.19,3.19,0,0,0,0,4.45l5.09,5.19,5.09-5.19A3.19,3.19,0,0,0,779.58,884.24Z"/></g><g class="cls-3"><line class="cls-8" x1="702.8" y1="675.5" x2="705.82" y2="675.5"/><line class="cls-8" x1="702.8" y1="677.31" x2="705.82" y2="677.31"/><line class="cls-8" x1="702.8" y1="679.13" x2="705.82" y2="679.13"/><path class="cls-8" d="M707.63,682.3v-9c0-.56-1.43-1-3.33-1s-3.33.45-3.33,1v9a20.87,20.87,0,0,1,3.33-.28A16,16,0,0,1,707.63,682.3Z"/><path class="cls-8" d="M709.45,672.4c-1.11.17-1.82.5-1.82.89v9a33,33,0,0,1,3.63-.28,24.84,24.84,0,0,1,3.63.28v-9c0-.38-.75-.72-1.82-.89"/><path class="cls-8" d="M712.62,678.12l-1.12-.95a.26.26,0,0,0-.33,0l-1.22,1c-.15.13-.49,0-.49-.18v-6.69h3.63v6.68C713.08,678.14,712.77,678.25,712.62,678.12Z"/></g><g class="cls-3"><polyline class="cls-4" points="1291.24 616.86 1291.24 622.03 1296.42 622.03"/><path class="cls-4" d="M1274.42,621.38V617.9a1,1,0,0,1,1-1h15.8a.75.75,0,0,1,.58.3l4.29,4.23a.84.84,0,0,1,.31.64v23.55a1,1,0,0,1-1,1h-20a1,1,0,0,1-1-1v-3.44"/><circle class="cls-4" cx="1280.86" cy="631.02" r="6.39"/><line class="cls-4" x1="1276.35" y1="635.53" x2="1269.32" y2="642.56"/></g><g class="cls-3"><path class="cls-5" d="M1575,609a2.78,2.78,0,1,0-2.29-2.29l-4.06-4.06-3.94,3.94a2.78,2.78,0,1,1-2.53,2.53l-3.94,3.94,10.4,10.4,10.4-10.4Z"/></g><g class="cls-3"><polygon class="cls-8" points="1500.63 691.8 1505.69 685.45 1503.74 682.3 1500.63 682.3 1497.51 682.3 1495.56 685.45 1500.63 691.8"/><line class="cls-8" x1="1495.56" y1="685.44" x2="1505.69" y2="685.44"/><polyline class="cls-8" points="1500.63 682.3 1498.82 685.45 1500.63 691.8"/><polyline class="cls-8" points="1500.63 682.3 1502.43 685.45 1500.63 691.8"/><line class="cls-8" x1="1502.43" y1="685.44" x2="1503.75" y2="682.3"/><line class="cls-8" x1="1498.82" y1="685.44" x2="1497.51" y2="682.3"/></g><g class="cls-3"><line class="cls-8" x1="1246.02" y1="675.5" x2="1249.04" y2="675.5"/><line class="cls-8" x1="1246.02" y1="677.31" x2="1249.04" y2="677.31"/><line class="cls-8" x1="1246.02" y1="679.13" x2="1249.04" y2="679.13"/><path class="cls-8" d="M1250.85,682.3v-9c0-.56-1.43-1-3.33-1s-3.33.45-3.33,1v9a20.87,20.87,0,0,1,3.33-.28A16,16,0,0,1,1250.85,682.3Z"/><path class="cls-8" d="M1252.67,672.4c-1.11.17-1.82.5-1.82.89v9a33,33,0,0,1,3.63-.28,24.84,24.84,0,0,1,3.63.28v-9c0-.38-.75-.72-1.82-.89"/><path class="cls-8" d="M1255.83,678.12l-1.12-.95a.26.26,0,0,0-.33,0l-1.22,1c-.15.13-.49,0-.49-.18v-6.69h3.63v6.68C1256.3,678.14,1256,678.25,1255.83,678.12Z"/></g><g class="cls-3"><polyline class="cls-4" points="108.99 296.74 108.99 301.92 114.17 301.92"/><path class="cls-4" d="M92.17,301.26v-3.47a1,1,0,0,1,1-1H109a.75.75,0,0,1,.58.3l4.29,4.23a.84.84,0,0,1,.31.64v23.55a1,1,0,0,1-1,1h-20a1,1,0,0,1-1-1V322"/><circle class="cls-4" cx="98.61" cy="310.9" r="6.39"/><line class="cls-4" x1="94.1" y1="315.41" x2="87.07" y2="322.44"/></g><g class="cls-3"><path class="cls-5" d="M392.79,288.88a2.78,2.78,0,1,0-2.29-2.29l-4.06-4.06-3.94,3.94A2.78,2.78,0,1,1,380,289L376,292.94l10.4,10.4,10.4-10.4Z"/></g><g class="cls-3"><path class="cls-5" d="M17.64,448.59a2.78,2.78,0,1,0-2.29-2.29l-4.06-4.06-3.94,3.94a2.78,2.78,0,1,1-2.53,2.53L.9,452.65l10.4,10.4,10.4-10.4Z"/></g><g class="cls-3"><ellipse class="cls-6" cx="243.29" cy="436.28" rx="8.1" ry="5.97"/><ellipse class="cls-6" cx="265.04" cy="436.28" rx="8.1" ry="5.97"/><path class="cls-6" d="M251.11,434.37a12.35,12.35,0,0,1,6.23-.14"/><path class="cls-6" d="M235.62,434.37,243.29,420s4-7.43,7.82,0"/><path class="cls-6" d="M272.68,434.28,265,420s-4-7.43-7.82,0"/></g><g class="cls-3"><circle class="cls-7" cx="482.62" cy="488.13" r="9.16" transform="translate(-172.97 691.59) rotate(-62.57)"/><path class="cls-7" d="M491.73,480.15a12.12,12.12,0,1,1-18.28,15.91"/><path class="cls-7" d="M479.9,481.07s-2.26,1.83-.78,2c1.09.15,1.37-.18,1.37-.18l1-.67a10.41,10.41,0,0,0-.6,1.62c0,.25.16,1,.72.34,1-1.24,1.28-1.61,1.8-1.34s1.79.41,1.25,1.72-.38.46-1.22.43-1.6,1-1,1.49a21.74,21.74,0,0,1,1.67,1.76s1,1-.77,4.08c0,0-.86,1.73,0,1.64s3.93-1.86,4.1-3,.2-1.31,1-1.33,1.52-.21,1.75-.71"/><path class="cls-7" d="M475.29,486.81s1.31-2.06,1.57-1.49a9.49,9.49,0,0,1,.63,1.25c.18.58,1.7,1.64.9,1.85A3,3,0,0,0,477,489c-.5.36-1.46,1.28-1.46,1.28"/><line class="cls-7" x1="491.73" y1="480.15" x2="494.74" y2="477.54"/><path class="cls-7" d="M475.68,494.12"/><path class="cls-7" d="M473.45,496.06"/><line class="cls-7" x1="482.76" y1="502.21" x2="482.76" y2="504.43"/><line class="cls-7" x1="478.58" y1="504.43" x2="486.95" y2="504.43"/></g><g class="cls-3"><polygon class="cls-5" points="156.27 477.54 165.06 466.52 161.68 461.06 156.27 461.06 150.87 461.06 147.49 466.52 156.27 477.54"/><line class="cls-5" x1="147.49" y1="466.52" x2="165.06" y2="466.52"/><polyline class="cls-5" points="156.27 461.06 153.14 466.52 156.27 477.54"/><polyline class="cls-5" points="156.27 461.06 159.41 466.52 156.27 477.54"/><line class="cls-5" x1="159.41" y1="466.52" x2="161.68" y2="461.06"/><line class="cls-5" x1="153.14" y1="466.52" x2="150.87" y2="461.06"/></g><g class="cls-3"><polygon class="cls-8" points="318.38 371.68 323.44 365.33 321.49 362.18 318.38 362.18 315.26 362.18 313.31 365.33 318.38 371.68"/><line class="cls-8" x1="313.31" y1="365.33" x2="323.44" y2="365.33"/><polyline class="cls-8" points="318.38 362.18 316.57 365.33 318.38 371.68"/><polyline class="cls-8" points="318.38 362.18 320.18 365.33 318.38 371.68"/><line class="cls-8" x1="320.18" y1="365.33" x2="321.49" y2="362.18"/><line class="cls-8" x1="316.57" y1="365.33" x2="315.26" y2="362.18"/></g><g class="cls-3"><path class="cls-9" d="M129.1,577.67c-3.39-.8-6.84-4.74-6.84-9.8,0-5.28,4.07-9.84,8.8-9.84h8.68c4.74,0,8.58,4.52,8.58,9.81s-3.84,9.81-8.58,9.81H137l-7.91,6.67Z"/><path class="cls-9" d="M140.55,564.12a3,3,0,0,0-4.36,0l-.73.74-.73-.74a3,3,0,0,0-4.36,0,3.19,3.19,0,0,0,0,4.45l5.09,5.19,5.09-5.19A3.19,3.19,0,0,0,140.55,564.12Z"/></g><g class="cls-3"><line class="cls-8" x1="63.76" y1="355.38" x2="66.79" y2="355.38"/><line class="cls-8" x1="63.76" y1="357.2" x2="66.79" y2="357.2"/><line class="cls-8" x1="63.76" y1="359.01" x2="66.79" y2="359.01"/><path class="cls-8" d="M68.6,362.18v-9c0-.56-1.43-1-3.33-1s-3.33.45-3.33,1v9a20.87,20.87,0,0,1,3.33-.28A16,16,0,0,1,68.6,362.18Z"/><path class="cls-8" d="M70.42,352.29c-1.11.17-1.82.5-1.82.89v9a33,33,0,0,1,3.63-.28,24.84,24.84,0,0,1,3.63.28v-9c0-.38-.75-.72-1.82-.89"/><path class="cls-8" d="M73.58,358l-1.12-.95a.26.26,0,0,0-.33,0l-1.22,1c-.15.13-.49,0-.49-.18v-6.69h3.63v6.68C74.05,358,73.74,358.14,73.58,358Z"/></g><g class="cls-3"><line class="cls-10" x1="344.47" y1="505.83" x2="351.58" y2="505.83"/><line class="cls-10" x1="344.47" y1="510.1" x2="351.58" y2="510.1"/><line class="cls-10" x1="344.47" y1="514.37" x2="351.58" y2="514.37"/><path class="cls-10" d="M355.84,521.82V500.65c0-1.31-3.35-2.38-7.83-2.38s-7.83,1.06-7.83,2.38v21.17a49.05,49.05,0,0,1,7.83-.65A37.58,37.58,0,0,1,355.84,521.82Z"/><path class="cls-10" d="M360.11,498.56c-2.61.39-4.27,1.17-4.27,2.09v21.17a77.45,77.45,0,0,1,8.54-.65,58.38,58.38,0,0,1,8.54.65V500.65c0-.9-1.76-1.68-4.27-2.09"/><path class="cls-10" d="M367.55,512l-2.64-2.23a.62.62,0,0,0-.78,0L361.27,512c-.36.31-1.16.05-1.16-.42V495.87h8.54v15.7C368.65,512.05,367.91,512.31,367.55,512Z"/></g><g class="cls-3"><polyline class="cls-4" points="1502.61 315.96 1502.61 321.14 1507.78 321.14"/><path class="cls-4" d="M1485.79,320.48V317a1,1,0,0,1,1-1h15.8a.75.75,0,0,1,.58.3l4.29,4.23a.84.84,0,0,1,.31.64v23.55a1,1,0,0,1-1,1h-20a1,1,0,0,1-1-1v-3.44"/><circle class="cls-4" cx="1492.23" cy="330.12" r="6.39"/><line class="cls-4" x1="1487.71" y1="334.63" x2="1480.68" y2="341.66"/></g><g class="cls-3"><path class="cls-5" d="M1786.4,308.1a2.78,2.78,0,1,0-2.29-2.29l-4.06-4.06-3.94,3.94a2.78,2.78,0,1,1-2.53,2.53l-3.94,3.94,10.4,10.4,10.4-10.4Z"/></g><g class="cls-3"><path class="cls-5" d="M1411.26,467.82a2.78,2.78,0,1,0-2.29-2.29l-4.06-4.06-3.94,3.94a2.78,2.78,0,1,1-2.53,2.53l-3.94,3.94,10.4,10.4,10.4-10.4Z"/></g><g class="cls-3"><ellipse class="cls-6" cx="1636.9" cy="455.5" rx="8.1" ry="5.97"/><ellipse class="cls-6" cx="1658.66" cy="455.5" rx="8.1" ry="5.97"/><path class="cls-6" d="M1644.73,453.59a12.35,12.35,0,0,1,6.23-.14"/><path class="cls-6" d="M1629.24,453.59l7.67-14.32s4-7.43,7.82,0"/><path class="cls-6" d="M1666.3,453.5l-7.66-14.32s-4-7.43-7.82,0"/></g><g class="cls-3"><circle class="cls-7" cx="1876.23" cy="507.36" r="9.16" transform="translate(561.53 1938.86) rotate(-62.57)"/><path class="cls-7" d="M1885.35,499.37a12.12,12.12,0,1,1-18.28,15.91"/><path class="cls-7" d="M1873.51,500.29s-2.26,1.83-.78,2c1.09.15,1.37-.18,1.37-.18l1-.67a10.41,10.41,0,0,0-.6,1.62c0,.25.16,1,.72.34,1-1.24,1.28-1.61,1.8-1.34s1.79.41,1.25,1.72-.38.46-1.22.43-1.6,1-1,1.49a21.74,21.74,0,0,1,1.67,1.76s1,1-.77,4.08c0,0-.86,1.73,0,1.64s3.93-1.86,4.1-3,.2-1.31,1-1.33,1.52-.21,1.75-.71"/><path class="cls-7" d="M1868.91,506s1.31-2.06,1.57-1.49a9.49,9.49,0,0,1,.63,1.25c.18.58,1.7,1.64.9,1.85a3,3,0,0,0-1.41.58c-.5.36-1.46,1.28-1.46,1.28"/><line class="cls-7" x1="1885.35" y1="499.37" x2="1888.35" y2="496.76"/><path class="cls-7" d="M1869.3,513.34"/><path class="cls-7" d="M1867.06,515.28"/><line class="cls-7" x1="1876.38" y1="521.44" x2="1876.38" y2="523.65"/><line class="cls-7" x1="1872.19" y1="523.65" x2="1880.56" y2="523.65"/></g><g class="cls-3"><polygon class="cls-5" points="1549.89 496.76 1558.68 485.74 1555.3 480.29 1549.89 480.29 1544.48 480.29 1541.1 485.74 1549.89 496.76"/><line class="cls-5" x1="1541.1" y1="485.74" x2="1558.68" y2="485.74"/><polyline class="cls-5" points="1549.89 480.29 1546.76 485.74 1549.89 496.76"/><polyline class="cls-5" points="1549.89 480.29 1553.02 485.74 1549.89 496.76"/><line class="cls-5" x1="1553.02" y1="485.74" x2="1555.3" y2="480.29"/><line class="cls-5" x1="1546.75" y1="485.74" x2="1544.48" y2="480.29"/></g><g class="cls-3"><polygon class="cls-8" points="1711.99 390.9 1717.06 384.55 1715.11 381.4 1711.99 381.4 1708.87 381.4 1706.93 384.55 1711.99 390.9"/><line class="cls-8" x1="1706.93" y1="384.55" x2="1717.06" y2="384.55"/><polyline class="cls-8" points="1711.99 381.4 1710.18 384.55 1711.99 390.9"/><polyline class="cls-8" points="1711.99 381.4 1713.8 384.55 1711.99 390.9"/><line class="cls-8" x1="1713.8" y1="384.55" x2="1715.11" y2="381.41"/><line class="cls-8" x1="1710.19" y1="384.55" x2="1708.87" y2="381.41"/></g><g class="cls-3"><path class="cls-9" d="M1522.71,596.89c-3.39-.8-6.84-4.74-6.84-9.8,0-5.28,4.07-9.84,8.8-9.84h8.68c4.74,0,8.58,4.52,8.58,9.81s-3.84,9.81-8.58,9.81h-2.73l-7.91,6.67Z"/><path class="cls-9" d="M1534.16,583.35a3,3,0,0,0-4.36,0l-.73.74-.73-.74a3,3,0,0,0-4.36,0,3.19,3.19,0,0,0,0,4.45l5.09,5.19,5.09-5.19A3.19,3.19,0,0,0,1534.16,583.35Z"/></g><g class="cls-3"><line class="cls-8" x1="1457.38" y1="374.6" x2="1460.4" y2="374.6"/><line class="cls-8" x1="1457.38" y1="376.42" x2="1460.4" y2="376.42"/><line class="cls-8" x1="1457.38" y1="378.24" x2="1460.4" y2="378.24"/><path class="cls-8" d="M1462.22,381.41v-9c0-.56-1.43-1-3.33-1s-3.33.45-3.33,1v9a20.87,20.87,0,0,1,3.33-.28A16,16,0,0,1,1462.22,381.41Z"/><path class="cls-8" d="M1464,371.51c-1.11.17-1.82.5-1.82.89v9a33,33,0,0,1,3.63-.28,24.84,24.84,0,0,1,3.63.28v-9c0-.38-.75-.72-1.82-.89"/><path class="cls-8" d="M1467.2,377.22l-1.12-.95a.26.26,0,0,0-.33,0l-1.22,1c-.15.13-.49,0-.49-.18v-6.69h3.63V377C1467.67,377.25,1467.35,377.36,1467.2,377.22Z"/></g><g class="cls-3"><line class="cls-10" x1="1738.09" y1="525.05" x2="1745.2" y2="525.05"/><line class="cls-10" x1="1738.09" y1="529.32" x2="1745.2" y2="529.32"/><line class="cls-10" x1="1738.09" y1="533.59" x2="1745.2" y2="533.59"/><path class="cls-10" d="M1749.45,541V519.87c0-1.31-3.35-2.38-7.83-2.38s-7.83,1.06-7.83,2.38V541a49.05,49.05,0,0,1,7.83-.65A37.58,37.58,0,0,1,1749.45,541Z"/><path class="cls-10" d="M1753.72,517.79c-2.61.39-4.27,1.17-4.27,2.09V541a77.45,77.45,0,0,1,8.54-.65,58.38,58.38,0,0,1,8.54.65V519.87c0-.9-1.76-1.68-4.27-2.09"/><path class="cls-10" d="M1761.16,531.21l-2.64-2.23a.62.62,0,0,0-.78,0l-2.86,2.25c-.36.31-1.16.05-1.16-.42V515.09h8.54v15.7C1762.26,531.27,1761.52,531.53,1761.16,531.21Z"/></g></g></g></g></svg>