<svg xmlns="http://www.w3.org/2000/svg" viewBox="0 0 1003.68 1016.79">
<defs>
<style>
.cls-1{opacity:0.3;}
.cls-2,.cls-3,.cls-5{fill:none;stroke:#244156;opacity:0.3;}
.cls-2{stroke-miterlimit:10;stroke-width:0.58px;opacity:0.3;}
.cls-3,.cls-5{stroke-linecap:round;stroke-linejoin:round;opacity:0.3;}
.cls-3{stroke-width:6px;opacity:0.3;}
.cls-4{fill:#244156;opacity:0.3;}
.cls-5{stroke-width:7.94px;opacity:0.3;}
</style>
</defs>
<title>
Videobackgroundpattern</title>
<g id="Layer_2" data-name="Layer 2">
<g id="Layer_1-2" data-name="Layer 1">
<g class="cls-1">
<polygon class="cls-2" points="24.6 258.76 28.6 253.75 27.06 251.27 24.6 251.27 22.14 251.27 20.6 253.75 24.6 258.76"/>
<line class="cls-2" x1="20.6" y1="253.75" x2="28.6" y2="253.75"/>
<polyline class="cls-2" points="24.6 251.27 23.17 253.75 24.6 258.76"/>
<polyline class="cls-2" points="24.6 251.27 26.02 253.75 24.6 258.76"/>
<line class="cls-2" x1="26.02" y1="253.75" x2="27.06" y2="251.27"/>
<line class="cls-2" x1="23.17" y1="253.75" x2="22.13" y2="251.27"/>
</g>
<line class="cls-3" x1="203.16" y1="505.8" x2="224.25" y2="502.71"/>
<line class="cls-3" x1="205.01" y1="518.47" x2="226.1" y2="515.38"/>
<line class="cls-3" x1="206.86" y1="531.14" x2="227.95" y2="528.05"/>
<path class="cls-3" d="M243.81,548.3l-9.18-62.8c-.57-3.9-11-5.6-24.26-3.66s-22.76,6.55-22.19,10.45l9.18,62.8a147.06,147.06,0,0,1,22.94-5.32C229.09,548.49,239.41,547.7,243.81,548.3Z"/>
<path class="cls-3" d="M246.4,477.45c-7.57,2.3-12.16,5.31-11.76,8l9.18,62.8c12.49-3.07,16.27-4.35,25.06-5.63a175,175,0,0,1,25.62-1.78l-9.18-62.8c-.39-2.67-6-4.23-13.57-4.34"/>
<path class="cls-3" d="M274.28,514.07l-8.78-5.46a1.86,1.86,0,0,0-2.3.32l-7.52,7.92c-.94,1.08-3.43.66-3.63-.76l-6.82-46.64,25.34-3.7,6.81,46.59C277.58,513.76,275.49,514.85,274.28,514.07Z"/>
<rect class="cls-3" x="274.81" y="37.7" width="38.8" height="38.8" transform="translate(56.93 -125.98) rotate(26.67)"/>
<rect class="cls-3" x="329.3" y="327.96" width="38.8" height="38.8" transform="translate(454.16 -133.39) rotate(57.48)"/>
<rect class="cls-3" x="597.84" y="260.9" width="38.8" height="38.8"/>
<polygon class="cls-3" points="616.51 569.26 583.23 552.52 599.95 519.18 633.23 535.92 616.51 569.26"/>
<rect class="cls-3" x="699.71" y="975" width="38.8" height="38.8"/>
<rect class="cls-3" x="953.64" y="142.94" width="38.8" height="38.8" transform="translate(176.39 -419.47) rotate(26.67)"/>
<polygon class="cls-3" points="741.23 184.33 771.8 237.56 693.43 222.83 741.23 184.33"/>
<polygon class="cls-3" points="62.44 371.44 93 424.67 14.63 409.94 62.44 371.44"/>
<polygon class="cls-4" points="68.53 39.87 21.87 79.75 21.87 0 68.53 39.87"/>
<polygon class="cls-4" points="544.17 673.99 503.31 718.17 493.08 644.83 544.17 673.99"/>
<polygon class="cls-4" points="266.09 907.46 293.54 961.02 221.15 945.42 266.09 907.46"/>
<polygon class="cls-4" points="798.79 885.91 828.88 938.03 755.8 926.06 798.79 885.91"/>
<polygon class="cls-4" points="864.63 651.6 894.72 703.72 821.64 691.75 864.63 651.6"/>
<polygon class="cls-3" points="955.88 516.15 922.44 562.78 904.61 490.4 955.88 516.15"/>
<circle class="cls-3" cx="640.74" cy="25.15" r="21.5"/>
<polygon class="cls-5" points="52.81 210.21 64.02 229.61 52.81 249.02 30.41 249.02 19.2 229.61 30.41 210.21 52.81 210.21"/>
<polygon class="cls-3" points="137.3 687.01 148.5 706.41 137.3 725.82 114.89 725.82 103.69 706.41 114.89 687.01 137.3 687.01"/>
<polygon class="cls-3" points="989.48 806.12 1000.68 825.52 989.48 844.92 967.07 844.92 955.87 825.52 967.07 806.12 989.48 806.12"/>
<circle class="cls-3" cx="429.76" cy="983.44" r="21.5"/>
<circle class="cls-3" cx="63.39" cy="915.97" r="21.5"/>
<circle class="cls-3" cx="747.23" cy="474.93" r="21.5"/>
<circle class="cls-4" cx="318.02" cy="633.52" r="21.5"/>
<circle class="cls-4" cx="314.85" cy="223.09" r="21.5"/>
<circle class="cls-4" cx="564.02" cy="452.35" r="21.5"/>
<polygon class="cls-4" points="440.96 767.31 452.16 786.71 440.96 806.12 418.55 806.12 407.35 786.71 418.55 767.31 440.96 767.31"/>
<polygon class="cls-4" points="160.25 973.99 171.45 993.39 160.25 1012.8 137.84 1012.8 126.64 993.39 137.84 973.99 160.25 973.99"/>
<polygon class="cls-4" points="38.81 755.1 38.81 777.51 19.41 788.71 0 777.51 0 755.1 19.41 743.9 38.81 755.1"/>
<polygon class="cls-4" points="608.03 149.57 619.24 168.97 608.03 188.38 585.63 188.38 574.42 168.97 585.63 149.57 608.03 149.57"/>
<polygon class="cls-4" points="204.16 341.75 215.36 361.15 204.16 380.56 181.75 380.56 170.55 361.15 181.75 341.75 204.16 341.75"/>
<rect class="cls-4" x="934.25" y="338.58" width="38.8" height="38.8"/>
<polygon class="cls-4" points="608.8 986.03 571.61 983.93 573.66 946.69 610.86 948.79 608.8 986.03"/>
<polygon class="cls-4" points="992.83 984.83 955.61 983.14 957.26 945.89 994.48 947.58 992.83 984.83"/>
<line class="cls-3" x1="130.74" y1="210.21" x2="175.74" y2="210.21"/>
<line class="cls-3" x1="490.24" y1="111.82" x2="532.24" y2="111.82"/>
<line class="cls-3" x1="720.64" y1="345.44" x2="750.34" y2="375.14"/>
<line class="cls-3" x1="468.08" y1="324.27" x2="505.24" y2="304.7"/>
<line class="cls-3" x1="712.54" y1="121.5" x2="682.84" y2="91.8"/>
<line class="cls-3" x1="427.35" y1="599.09" x2="385.35" y2="599.09"/>
<line class="cls-3" x1="771.85" y1="588.59" x2="735.48" y2="609.59"/>
<line class="cls-3" x1="934.25" y1="607.81" x2="892.3" y2="609.88"/>
<line class="cls-3" x1="986.34" y1="692.08" x2="959.75" y2="659.56"/>
<line class="cls-3" x1="870.45" y1="813.95" x2="843.86" y2="781.44"/>
<line class="cls-3" x1="716.69" y1="856.73" x2="682.73" y2="881.44"/>
<line class="cls-3" x1="130.13" y1="910.37" x2="172.13" y2="910.37"/>
<line class="cls-3" x1="25.29" y1="578.37" x2="53.36" y2="609.61"/>
<line class="cls-3" x1="348.83" y1="474.93" x2="376.9" y2="506.18"/>
<line class="cls-3" x1="808.24" y1="993.39" x2="850.24" y2="993.39"/>
<line class="cls-3" x1="554.37" y1="807.34" x2="569.81" y2="811.02"/>
<line class="cls-3" x1="552.17" y1="816.61" x2="567.6" y2="820.29"/>
<line class="cls-3" x1="549.96" y1="825.88" x2="565.39" y2="829.56"/>
<path class="cls-3" d="M570.78,847.93l11-46c.68-2.85-6-6.9-15.77-9.21s-17.54-1.74-18.22,1.11l-11,46a109.46,109.46,0,0,1,17.33,2.64C560.55,844,567.9,846.3,570.78,847.93Z"/>
<path class="cls-3" d="M592.08,799.65c-5.87-.49-9.87.32-10.35,2.32l-11,46c9.48,1.31,12.45,1.48,18.88,3a130.28,130.28,0,0,1,18.2,5.83l11-46c.47-2-2.95-4.56-8.19-6.74"/>
<path class="cls-3" d="M601.28,832.65l-4.57-6.2A1.38,1.38,0,0,0,595,826l-7.38,3.4c-.95.49-2.55-.49-2.3-1.52l8.13-34.12L612,798.22l-8.12,34.09C603.64,833.35,601.9,833.52,601.28,832.65Z"/>
<path class="cls-3" d="M420.16,195.45c-9.71-2.28-19.57-13.56-19.57-28,0-15.12,11.64-28.15,25.19-28.15h24.84c13.55,0,24.54,12.95,24.54,28.07,0,15-11,28.07-24.54,28.07h-7.82l-22.64,19.09Z"/>
<path class="cls-3" d="M452.92,156.69a8.7,8.7,0,0,0-12.48,0l-2.08,2.12-2.08-2.12a8.7,8.7,0,0,0-12.48,0,9.13,9.13,0,0,0,0,12.74l14.56,14.86,14.56-14.86A9.13,9.13,0,0,0,452.92,156.69Z"/>
<polyline class="cls-3" points="865.63 243.19 871.37 249.85 878.03 244.11"/>
<path class="cls-3" d="M849,267.67l-3.86-4.47a1.76,1.76,0,0,1,.15-2.47l20.35-17.53a1.28,1.28,0,0,1,1.09-.26l10.21.69a1.43,1.43,0,0,1,1.11.49l26.13,30.32a1.76,1.76,0,0,1-.17,2.47L878.3,299a1.75,1.75,0,0,1-2.46-.2L872,294.4"/>
<circle class="cls-3" cx="867.97" cy="272.93" r="10.85" transform="matrix(0.76, -0.65, 0.65, 0.76, 32.29, 632.8)"/>
<line class="cls-3" x1="867.16" y1="283.75" x2="865.91" y2="300.6"/>
<polyline class="cls-3" points="199.5 67.8 199.65 76.59 208.45 76.44"/>
<path class="cls-3" d="M171,76l-.1-5.9a1.76,1.76,0,0,1,1.7-1.8l26.86-.46a1.28,1.28,0,0,1,1,.5l7.41,7.06a1.43,1.43,0,0,1,.54,1.08l.68,40a1.76,1.76,0,0,1-1.71,1.79l-33.91.58a1.75,1.75,0,0,1-1.76-1.73l-.1-5.85"/>
<circle class="cls-3" cx="182.27" cy="92.16" r="10.85" transform="matrix(1, -0.02, 0.02, 1, -1.54, 3.12)"/>
<line class="cls-3" x1="174.73" y1="99.95" x2="162.99" y2="112.1"/>
<line class="cls-3" x1="793.36" y1="72.42" x2="809.23" y2="72.61"/>
<line class="cls-3" x1="793.25" y1="81.95" x2="809.11" y2="82.14"/>
<line class="cls-3" x1="793.13" y1="91.48" x2="808.99" y2="91.67"/>
<path class="cls-3" d="M818.29,108.41l.58-47.24c0-2.93-7.41-5.4-17.41-5.52s-17.5,2.16-17.53,5.09L783.35,108a109.46,109.46,0,0,1,17.49-1.23C807.44,106.83,815.12,107.45,818.29,108.41Z"/>
<path class="cls-3" d="M828.46,56.63c-5.83.81-9.56,2.48-9.59,4.54l-.58,47.24c9.54-.8,12.47-1.29,19.08-1.21a130.28,130.28,0,0,1,19,1.68L857,61.64c0-2-3.88-3.8-9.47-4.77"/>
<path class="cls-3" d="M844.68,86.8l-5.82-5a1.38,1.38,0,0,0-1.73,0l-6.45,4.94c-.82.68-2.6.09-2.58-1l.43-35.08,19.06.23-.43,35C847.14,87,845.48,87.52,844.68,86.8Z"/>
<path class="cls-3" d="M233.48,816.51c-8.19-5.69-13.21-19.81-7.89-33.27,5.56-14.06,21.18-21.9,33.78-16.92l23.1,9.13c12.6,5,18.06,21.06,12.5,35.13s-20.54,22.06-33.14,17.08l-7.28-2.88-28.07,9.43Z"/>
<path class="cls-3" d="M278.2,792.51a8.7,8.7,0,0,0-11.6-4.59l-2.72,1.21-1.15-2.74a8.7,8.7,0,0,0-11.61-4.59,9.13,9.13,0,0,0-4.68,11.84l8.08,19.17,19-8.46A9.13,9.13,0,0,0,278.2,792.51Z"/>
<circle class="cls-3" cx="444.65" cy="29.3" r="18.18" transform="translate(213.79 410.45) rotate(-62.57)"/>
<path class="cls-3" d="M462.74,13.45A24.05,24.05,0,1,1,426.46,45"/>
<path class="cls-3" d="M439.25,15.27s-4.49,3.64-1.56,4.05c2.17.3,2.72-.37,2.72-.37l2.06-1.33a20.66,20.66,0,0,0-1.19,3.22c0,.49.32,2,1.43.67,2-2.47,2.54-3.2,3.57-2.67s3.55.82,2.48,3.41-.75.91-2.43.86-3.18,2-2.08,3a43.15,43.15,0,0,1,3.32,3.5s2,1.94-1.54,8.1c0,0-1.71,3.42,0,3.26s7.8-3.69,8.13-6,.39-2.6,2.05-2.63,3-.42,3.47-1.41"/>
<path class="cls-3" d="M430.11,26.68s2.6-4.08,3.11-3a18.83,18.83,0,0,1,1.25,2.47c.36,1.15,3.38,3.26,1.79,3.67A6,6,0,0,0,433.47,31c-1,.72-2.89,2.54-2.89,2.54"/>
<line class="cls-3" x1="462.74" y1="13.45" x2="468.7" y2="8.27"/>
<path class="cls-3" d="M430.89,41.18"/>
<path class="cls-3" d="M426.46,45"/>
<line class="cls-3" x1="444.94" y1="57.24" x2="444.94" y2="61.64"/>
<line class="cls-3" x1="436.63" y1="61.64" x2="453.24" y2="61.64"/>
<circle class="cls-3" cx="696.78" cy="714.73" r="18.18" transform="translate(-57.31 1368.71) rotate(-86.66)"/>
<path class="cls-3" d="M706.83,692.88a24.05,24.05,0,1,1-20.23,43.64"/>
<path class="cls-3" d="M686.13,704.13s-2.61,5.16.23,4.33c2.1-.61,2.34-1.45,2.34-1.45L690,705a20.66,20.66,0,0,0,.23,3.42c.22.44,1.12,1.71,1.58,0,.85-3.08,1-4,2.17-3.89s3.58-.71,3.66,2.1-.31,1.14-1.87,1.78-2.07,3.16-.69,3.55a43.15,43.15,0,0,1,4.46,1.84s2.65.94,1.9,8c0,0-.16,3.82,1.29,3s5.61-6.55,5-8.84-.7-2.54.8-3.24,2.59-1.61,2.59-2.71"/>
<path class="cls-3" d="M682.44,718.27s.71-4.79,1.63-4a18.83,18.83,0,0,1,2.15,1.75c.8.9,4.41,1.6,3.13,2.62a6,6,0,0,0-2.08,2.19c-.61,1.06-1.6,3.5-1.6,3.5"/>
<line class="cls-3" x1="706.83" y1="692.88" x2="710.15" y2="685.71"/>
<path class="cls-3" d="M689.07,731.19"/>
<path class="cls-3" d="M686.59,736.52"/>
<line class="cls-3" x1="708.45" y1="740.12" x2="710.24" y2="744.14"/>
<line class="cls-3" x1="702.66" y1="747.53" x2="717.83" y2="740.75"/>
</g>
</g>
</svg>
