<svg xmlns="http://www.w3.org/2000/svg" viewBox="0 0 271.6 264.02"><defs><style>.cls-1{opacity:0.5;}.cls-2{fill:#abb9c6;}.cls-3{fill:none;stroke:#4c708f;stroke-miterlimit:10;stroke-width:6.46px;}</style></defs><title>howitworksplaceholder</title><g id="Layer_2" data-name="Layer 2"><g id="Layer_1-2" data-name="Layer 1"><g class="cls-1"><rect class="cls-2" x="49.74" y="108.75" width="44.36" height="44.36"/><rect class="cls-2" x="49.74" y="42.21" width="44.36" height="44.36"/><line class="cls-2" x1="128.21" y1="53.3" x2="227.02" y2="53.3"/><line class="cls-2" x1="128.21" y1="119.84" x2="227.02" y2="119.84"/><line class="cls-2" x1="128.21" y1="75.48" x2="171.21" y2="75.48"/><line class="cls-2" x1="128.21" y1="142.02" x2="171.21" y2="142.02"/><path class="cls-2" d="M164.25,230.75c21,0,25.88,16.13,32.38,29.29,0,2.19-2.18,4-4.86,4H96.33a4.78,4.78,0,0,1-4.86-4.37c6.67-13,11.83-28.91,32.37-28.91Z"/><path class="cls-2" d="M253.79,8.94H34.3c-10.1,0-17.78,8.58-17.78,18.67V169.45c0,10.1,7.68,16.93,17.78,16.93H253.79c10.11,0,17.81-6.83,17.81-16.93V27.61C271.6,17.52,263.9,8.94,253.79,8.94Z"/><line class="cls-2" x1="144.06" y1="230.75" x2="144.06" y2="208.57"/></g><rect class="cls-3" x="36.45" y="103.04" width="44.36" height="44.36"/><rect class="cls-3" x="36.45" y="36.49" width="44.36" height="44.36"/><line class="cls-3" x1="114.92" y1="47.59" x2="213.73" y2="47.59"/><line class="cls-3" x1="114.92" y1="114.13" x2="213.73" y2="114.13"/><line class="cls-3" x1="114.92" y1="69.77" x2="157.92" y2="69.77"/><line class="cls-3" x1="114.92" y1="136.31" x2="157.92" y2="136.31"/><path class="cls-3" d="M151,225c21,0,25.88,16.13,32.38,29.29,0,2.19-2.18,4-4.86,4H83a4.78,4.78,0,0,1-4.86-4.37C84.85,241,90,225,110.55,225Z"/><path class="cls-3" d="M240.5,3.23H21c-10.1,0-17.78,8.58-17.78,18.67V163.74c0,10.1,7.68,16.93,17.78,16.93H240.5c10.11,0,17.81-6.83,17.81-16.93V21.9C258.31,11.81,250.61,3.23,240.5,3.23Z"/><line class="cls-3" x1="130.77" y1="225.04" x2="130.77" y2="202.85"/></g></g></svg>