<svg xmlns="http://www.w3.org/2000/svg" viewBox="0 0 824.39 787.49"><defs><style>.cls-1{opacity:0.05;}.cls-2{fill:#b4c1cc;}.cls-2,.cls-3{fill-rule:evenodd;}.cls-3{fill:none;stroke:#4c708f;stroke-miterlimit:10;stroke-width:4.53px;}</style></defs><title>howitworksbackground</title><g id="Layer_2" data-name="Layer 2"><g id="Layer_1-2" data-name="Layer 1"><g class="cls-1"><path class="cls-2" d="M240.24,213.2c-12.71-23.93-42.78-32-66.51-19.45l-123,65.06a49.07,49.07,0,0,0-24.32,31L26,291.1c-10.61,40.81,31.74,75,68.58,55.48L220,280.3C243.94,267.63,253.12,237.45,240.24,213.2Z"/><path class="cls-2" d="M309.85,181.69c13,24.12,43.62,32.26,67.81,19.61L576.32,97.44c37.58-19.65,34.33-75-5.42-89.72l-1.16-.43A49.1,49.1,0,0,0,530,9.74L330.51,114A49.77,49.77,0,0,0,309.85,181.69Z"/><path class="cls-2" d="M394.41,503.12c-12.81-23.87-43.11-31.91-67-19.41L127.51,588.32c-27.61,14.44-34.59,50.93-14.44,74.79l.64.76a48.13,48.13,0,0,0,59,11.49L374,570.05A49.27,49.27,0,0,0,394.41,503.12Z"/><path class="cls-2" d="M454.45,471.84c13,24,43.77,32.06,68,19.49L797.92,348.71a48.77,48.77,0,0,0,24.92-55.48l-.26-1a49.19,49.19,0,0,0-70.19-31.18L475.18,404.61A49.23,49.23,0,0,0,454.45,471.84Z"/><path class="cls-2" d="M695.3,530.37c12.73,23.46,42.86,31.37,66.64,19.08L798,530.76a48.3,48.3,0,0,0,24.38-30.43l.31-1.17c10.64-40-31.82-73.55-68.75-54.43l-38.38,19.85A48.16,48.16,0,0,0,695.3,530.37Z"/><path class="cls-2" d="M625.76,561.38c-12.76-24.11-43-32.24-66.77-19.6L272,694.05c-37,19.63-33.79,74.9,5.33,89.62l1.22.45a47.67,47.67,0,0,0,39.1-2.44L605.42,629C629.47,616.23,638.69,585.81,625.76,561.38Z"/><path class="cls-2" d="M571.79,173.26c-24.71,12.61-34.19,42.64-20.9,66.76,13.11,23.8,44.12,31.84,68.6,19.35l110.8-56.51a48.07,48.07,0,0,0,14.78-74.6l-.66-.76A50.15,50.15,0,0,0,684,116Z"/><path class="cls-2" d="M481.15,271.26c-12.83-24-43.18-32.07-67.13-19.5L50.5,442.64a49,49,0,0,0-24.59,55.51l.25,1c7.86,30.45,41.61,45.72,69.26,31.21L460.7,338.53A49.6,49.6,0,0,0,481.15,271.26Z"/></g><g class="cls-1"><path class="cls-3" d="M218.12,211.24c-12.71-23.93-42.78-32-66.51-19.45l-123,65.06a49.07,49.07,0,0,0-24.32,31l-.33,1.27c-10.61,40.81,31.74,75,68.58,55.48l125.36-66.28C221.82,265.67,231,235.49,218.12,211.24Z"/><path class="cls-3" d="M287.73,179.73c13,24.12,43.62,32.26,67.81,19.61L554.2,95.48c37.58-19.65,34.33-75-5.42-89.72l-1.16-.43a49.1,49.1,0,0,0-39.73,2.44l-199.5,104.3A49.77,49.77,0,0,0,287.73,179.73Z"/><path class="cls-3" d="M372.29,501.16c-12.81-23.87-43.11-31.91-67-19.41L105.39,586.35C77.78,600.8,70.81,637.29,91,661.14l.64.76a48.13,48.13,0,0,0,59,11.49l201.24-105.3A49.27,49.27,0,0,0,372.29,501.16Z"/><path class="cls-3" d="M432.33,469.87c13,24,43.77,32.06,68,19.49L775.8,346.75a48.77,48.77,0,0,0,24.92-55.48l-.26-1a49.19,49.19,0,0,0-70.19-31.18L453.06,402.65A49.23,49.23,0,0,0,432.33,469.87Z"/><path class="cls-3" d="M673.18,528.41c12.73,23.46,42.86,31.37,66.64,19.08l36.1-18.68a48.3,48.3,0,0,0,24.38-30.43l.31-1.17c10.64-40-31.82-73.55-68.75-54.43l-38.38,19.85A48.16,48.16,0,0,0,673.18,528.41Z"/><path class="cls-3" d="M603.64,559.42c-12.76-24.11-43-32.24-66.77-19.6L249.92,692.09c-37,19.63-33.79,74.9,5.33,89.62l1.22.45a47.67,47.67,0,0,0,39.1-2.44L583.3,627C607.35,614.26,616.57,583.85,603.64,559.42Z"/><path class="cls-3" d="M549.67,171.3c-24.71,12.61-34.19,42.64-20.9,66.76,13.11,23.8,44.12,31.84,68.6,19.35l110.8-56.51a48.07,48.07,0,0,0,14.78-74.6l-.66-.76a50.15,50.15,0,0,0-60.44-11.47Z"/><path class="cls-3" d="M459,269.3c-12.83-24-43.18-32.07-67.13-19.5L28.38,440.68A49,49,0,0,0,3.79,496.19l.25,1c7.86,30.45,41.61,45.72,69.26,31.21l365.28-191.8A49.6,49.6,0,0,0,459,269.3Z"/></g></g></g></svg>