<svg xmlns="http://www.w3.org/2000/svg" xmlns:xlink="http://www.w3.org/1999/xlink" viewBox="0 0 54.07 62.53"><defs><style>.cls-1,.cls-3,.cls-5{fill:#c5e4fe;}.cls-1,.cls-2{clip-rule:evenodd;}.cls-2,.cls-7,.cls-8{fill:none;stroke:#4c708f;stroke-miterlimit:10;stroke-width:1.25px;}.cls-3,.cls-8{fill-rule:evenodd;}.cls-4{clip-path:url(#clip-path);}.cls-6{clip-path:url(#clip-path-2);}.cls-9{font-size:23.84px;fill:#4c708f;font-family:MuseoSans-900, Museo Sans;}</style><clipPath id="clip-path"><path class="cls-1" d="M25.84,8.07a6,6,0,0,1,5.43,0L49.13,18.38a6,6,0,0,1,2.72,4.71V43.72a6,6,0,0,1-2.72,4.71L31.27,58.74a6,6,0,0,1-5.43,0L8,48.42a6,6,0,0,1-2.72-4.71V23.09A6,6,0,0,1,8,18.38Z"/></clipPath><clipPath id="clip-path-2"><path class="cls-2" d="M23.43,4.42a6,6,0,0,1,5.43,0L46.73,14.73a6,6,0,0,1,2.72,4.71V40.07a6,6,0,0,1-2.72,4.71L28.87,55.09a6,6,0,0,1-5.43,0L5.57,44.77a6,6,0,0,1-2.72-4.71V19.44a6,6,0,0,1,2.72-4.71Z"/></clipPath></defs><title>number1</title><g id="Layer_2" data-name="Layer 2"><g id="Layer_1-2" data-name="Layer 1"><path class="cls-3" d="M25.84,8.07a6,6,0,0,1,5.43,0L49.13,18.38a6,6,0,0,1,2.72,4.71V43.72a6,6,0,0,1-2.72,4.71L31.27,58.74a6,6,0,0,1-5.43,0L8,48.42a6,6,0,0,1-2.72-4.71V23.09A6,6,0,0,1,8,18.38Z"/><g class="cls-4"><rect class="cls-5" x="3.03" y="4.28" width="51.04" height="58.25" rx="3.14" ry="3.14"/></g><g class="cls-6"><rect class="cls-7" x="0.63" y="0.63" width="51.04" height="58.25" rx="3.14" ry="3.14"/></g><path class="cls-8" d="M23.43,4.42a6,6,0,0,1,5.43,0L46.73,14.73a6,6,0,0,1,2.72,4.71V40.07a6,6,0,0,1-2.72,4.71L28.87,55.09a6,6,0,0,1-5.43,0L5.57,44.77a6,6,0,0,1-2.72-4.71V19.44a6,6,0,0,1,2.72-4.71Z"/><text class="cls-9" transform="translate(19.37 37.94)">1</text></g></g></svg>