<svg xmlns="http://www.w3.org/2000/svg" xmlns:xlink="http://www.w3.org/1999/xlink" viewBox="0 0 54.86 62.47"><defs><style>.cls-1,.cls-3,.cls-5{fill:#c5e4fe;}.cls-1,.cls-2{clip-rule:evenodd;}.cls-2,.cls-7,.cls-8{fill:none;stroke:#4c708f;stroke-miterlimit:10;stroke-width:1.27px;}.cls-3,.cls-8{fill-rule:evenodd;}.cls-4{clip-path:url(#clip-path);}.cls-6{clip-path:url(#clip-path-2);}.cls-9{font-size:24.06px;fill:#4c708f;font-family:MuseoSans-900, Museo Sans;}</style><clipPath id="clip-path"><path class="cls-1" d="M26.37,7.51a6.08,6.08,0,0,1,5.48,0l18,10.41a6.08,6.08,0,0,1,2.74,4.75V43.48a6.08,6.08,0,0,1-2.74,4.75l-18,10.41a6.08,6.08,0,0,1-5.48,0l-18-10.41A6.08,6.08,0,0,1,5.6,43.48V22.67a6.08,6.08,0,0,1,2.74-4.75Z"/></clipPath><clipPath id="clip-path-2"><path class="cls-2" d="M23.65,4.46a6.08,6.08,0,0,1,5.48,0l18,10.41a6.08,6.08,0,0,1,2.74,4.75V40.43a6.08,6.08,0,0,1-2.74,4.75l-18,10.41a6.08,6.08,0,0,1-5.48,0l-18-10.41a6.08,6.08,0,0,1-2.74-4.75V19.62a6.08,6.08,0,0,1,2.74-4.75Z"/></clipPath></defs><title>number3</title><g id="Layer_2" data-name="Layer 2"><g id="Layer_1-2" data-name="Layer 1"><path class="cls-3" d="M26.37,7.51a6.08,6.08,0,0,1,5.48,0l18,10.41a6.08,6.08,0,0,1,2.74,4.75V43.48a6.08,6.08,0,0,1-2.74,4.75l-18,10.41a6.08,6.08,0,0,1-5.48,0l-18-10.41A6.08,6.08,0,0,1,5.6,43.48V22.67a6.08,6.08,0,0,1,2.74-4.75Z"/><g class="cls-4"><rect class="cls-5" x="3.35" y="3.68" width="51.51" height="58.78" rx="3.17" ry="3.17"/></g><g class="cls-6"><rect class="cls-7" x="0.63" y="0.63" width="51.51" height="58.78" rx="3.17" ry="3.17"/></g><path class="cls-8" d="M23.65,4.46a6.08,6.08,0,0,1,5.48,0l18,10.41a6.08,6.08,0,0,1,2.74,4.75V40.43a6.08,6.08,0,0,1-2.74,4.75l-18,10.41a6.08,6.08,0,0,1-5.48,0l-18-10.41a6.08,6.08,0,0,1-2.74-4.75V19.62a6.08,6.08,0,0,1,2.74-4.75Z"/><text class="cls-9" transform="translate(20.57 38.29)">3</text></g></g></svg>