<svg xmlns="http://www.w3.org/2000/svg" xmlns:xlink="http://www.w3.org/1999/xlink" viewBox="0 0 54.06 61.15"><defs><style>.cls-1,.cls-3,.cls-5{fill:#c5e4fe;}.cls-1,.cls-2{clip-rule:evenodd;}.cls-2,.cls-7,.cls-8{fill:none;stroke:#4c708f;stroke-miterlimit:10;stroke-width:1.25px;}.cls-3,.cls-8{fill-rule:evenodd;}.cls-4{clip-path:url(#clip-path);}.cls-6{clip-path:url(#clip-path-2);}.cls-9{font-size:23.8px;fill:#4c708f;font-family:MuseoSans-900, Museo Sans;}</style><clipPath id="clip-path"><path class="cls-1" d="M25.88,6.8a6,6,0,0,1,5.42,0L49.13,17.09a6,6,0,0,1,2.71,4.7V42.38a6,6,0,0,1-2.71,4.7L31.3,57.37a6,6,0,0,1-5.42,0L8.05,47.07a6,6,0,0,1-2.71-4.7V21.79a6,6,0,0,1,2.71-4.7Z"/></clipPath><clipPath id="clip-path-2"><path class="cls-2" d="M23.39,4.41a6,6,0,0,1,5.42,0L46.64,14.7a6,6,0,0,1,2.71,4.7V40a6,6,0,0,1-2.71,4.7L28.81,55a6,6,0,0,1-5.42,0L5.56,44.69A6,6,0,0,1,2.85,40V19.4a6,6,0,0,1,2.71-4.7Z"/></clipPath></defs><title>number2</title><g id="Layer_2" data-name="Layer 2"><g id="Layer_1-2" data-name="Layer 1"><path class="cls-3" d="M25.88,6.8a6,6,0,0,1,5.42,0L49.13,17.09a6,6,0,0,1,2.71,4.7V42.38a6,6,0,0,1-2.71,4.7L31.3,57.37a6,6,0,0,1-5.42,0L8.05,47.07a6,6,0,0,1-2.71-4.7V21.79a6,6,0,0,1,2.71-4.7Z"/><g class="cls-4"><rect class="cls-5" x="3.12" y="3.02" width="50.94" height="58.14" rx="3.13" ry="3.13"/></g><g class="cls-6"><rect class="cls-7" x="0.63" y="0.63" width="50.94" height="58.14" rx="3.13" ry="3.13"/></g><path class="cls-8" d="M23.39,4.41a6,6,0,0,1,5.42,0L46.64,14.7a6,6,0,0,1,2.71,4.7V40a6,6,0,0,1-2.71,4.7L28.81,55a6,6,0,0,1-5.42,0L5.56,44.69A6,6,0,0,1,2.85,40V19.4a6,6,0,0,1,2.71-4.7Z"/><text class="cls-9" transform="translate(20.78 37.87)">2</text></g></g></svg>