<svg xmlns="http://www.w3.org/2000/svg" viewBox="0 0 292.12 332.5"><defs><style>.cls-1{fill:#f4865d;}.cls-10,.cls-2,.cls-4,.cls-5,.cls-6,.cls-9{fill:none;stroke:#4c708f;}.cls-2,.cls-6,.cls-9{stroke-miterlimit:10;}.cls-2{stroke-width:1.96px;}.cls-3{fill:#5eb6ff;}.cls-10,.cls-4,.cls-5{stroke-linecap:round;stroke-linejoin:round;}.cls-4{stroke-width:5.29px;}.cls-5{stroke-width:6.08px;}.cls-6{stroke-width:2.86px;}.cls-7{fill:#46ccd6;}.cls-8{fill:#b4c1cc;}.cls-9{stroke-width:1.68px;}.cls-10{stroke-width:6.06px;}.cls-11{fill:#fff;fill-rule:evenodd;}</style></defs><title>openbox</title><g id="Layer_2" data-name="Layer 2"><g id="Layer_1-2" data-name="Layer 1"><rect class="cls-1" x="46.2" y="81.5" width="34.53" height="28.43" rx="1.3" ry="1.3" transform="translate(-24.36 21.71) rotate(-16.33)"/><circle class="cls-1" cx="54.15" cy="93.09" r="3.09" transform="translate(-23.99 18.98) rotate(-16.33)"/><polyline class="cls-1" points="56.63 112.53 63.23 93.31 69.54 98.09 72.67 87.24 80.91 93.89"/><rect class="cls-1" x="40.96" y="75.28" width="46.71" height="46.71" rx="1.61" ry="1.61" transform="translate(-25.14 22.07) rotate(-16.33)"/><line class="cls-1" x1="61.38" y1="117.49" x2="76.97" y2="112.92"/><rect class="cls-2" x="43.01" y="80.32" width="34.53" height="28.43" rx="1.3" ry="1.3" transform="translate(-24.15 20.76) rotate(-16.33)"/><circle class="cls-2" cx="50.97" cy="91.92" r="3.09" transform="translate(-23.79 18.04) rotate(-16.33)"/><polyline class="cls-2" points="53.45 111.36 60.05 92.14 66.36 96.91 69.49 86.07 77.73 92.71"/><rect class="cls-2" x="37.78" y="74.11" width="46.71" height="46.71" rx="1.61" ry="1.61" transform="translate(-24.94 21.12) rotate(-16.33)"/><line class="cls-2" x1="58.19" y1="116.32" x2="73.78" y2="111.75"/><rect class="cls-3" x="10.93" y="209.56" width="244.34" height="122.93"/><rect class="cls-3" x="92.68" y="209.56" width="80.84" height="35.2"/><polygon class="cls-3" points="50.72 183.89 10.93 209.56 255.28 209.56 222.87 183.89 50.72 183.89"/><rect class="cls-4" x="3.02" y="203.28" width="244.34" height="122.93"/><polygon class="cls-5" points="43.81 169.26 4.02 203.17 248.36 203.17 215.96 169.26 43.81 169.26"/><rect class="cls-1" x="130.61" y="159.06" width="41.36" height="50.23" rx="1.89" ry="1.89" transform="translate(-66.13 281.84) rotate(-74.79)"/><circle class="cls-1" cx="141.74" cy="173.84" r="4.49" transform="translate(-63.2 265.01) rotate(-74.79)"/><polyline class="cls-1" points="130.02 199.83 152.83 181.02 157.02 191.74 169.16 180.68 174.32 195.19"/><rect class="cls-1" x="116.15" y="154.48" width="67.95" height="67.95" rx="2.34" ry="2.34" transform="translate(-71.11 283.87) rotate(-74.79)"/><line class="cls-1" x1="132.13" y1="209.58" x2="154.94" y2="215.79"/><rect class="cls-6" x="127.55" y="155.18" width="41.36" height="50.23" rx="1.89" ry="1.89" transform="translate(-64.64 276.03) rotate(-74.79)"/><circle class="cls-6" cx="138.69" cy="169.96" r="4.49" transform="translate(-61.7 259.2) rotate(-74.79)"/><polyline class="cls-6" points="126.97 195.95 149.78 177.14 153.97 187.86 166.1 176.8 171.27 191.31"/><rect class="cls-6" x="113.1" y="150.6" width="67.95" height="67.95" rx="2.34" ry="2.34" transform="translate(-69.62 278.06) rotate(-74.79)"/><line class="cls-6" x1="129.08" y1="205.7" x2="151.89" y2="211.91"/><line class="cls-7" x1="176.07" y1="184.96" x2="192.51" y2="178.54"/><line class="cls-7" x1="176.07" y1="184.96" x2="192.51" y2="178.54"/><line class="cls-7" x1="179.93" y1="194.83" x2="196.36" y2="188.41"/><line class="cls-7" x1="179.93" y1="194.83" x2="196.36" y2="188.41"/><line class="cls-7" x1="183.79" y1="204.71" x2="200.22" y2="198.29"/><line class="cls-7" x1="183.79" y1="204.71" x2="200.22" y2="198.29"/><path class="cls-7" d="M214.14,212.3a2.33,2.33,0,0,0,1.65-3.18l-17.14-43.86a5.94,5.94,0,0,0-3.63-3.2s-7.25-1.81-17.61,2.23S163,174.59,163,174.59a5.94,5.94,0,0,0-.5,4.81l17.14,43.86a2.33,2.33,0,0,0,3.37,1.22,153,153,0,0,1,15.13-7.25A153,153,0,0,1,214.14,212.3Z"/><path class="cls-7" d="M214.14,212.3a2.33,2.33,0,0,0,1.65-3.18l-17.14-43.86a5.94,5.94,0,0,0-3.63-3.2s-7.25-1.81-17.61,2.23S163,174.59,163,174.59a5.94,5.94,0,0,0-.5,4.81l17.14,43.86a2.33,2.33,0,0,0,3.37,1.22,153,153,0,0,1,15.13-7.25A153,153,0,0,1,214.14,212.3Z"/><path class="cls-7" d="M205.66,154c-5.67,3.27-6.92,6.18-6.92,6.18a7.68,7.68,0,0,0-.08,5l17.14,43.86a2.37,2.37,0,0,0,3.4,1.26s9.91-5.26,16.75-7.94,17.69-5.52,17.69-5.52a2.37,2.37,0,0,0,1.64-3.23l-17.14-43.86a7.32,7.32,0,0,0-3.51-3.57s-3.07-1.26-9.24.07"/><path class="cls-7" d="M205.66,154c-5.67,3.27-6.92,6.18-6.92,6.18a7.68,7.68,0,0,0-.08,5l17.14,43.86a2.37,2.37,0,0,0,3.4,1.26s9.91-5.26,16.75-7.94,17.69-5.52,17.69-5.52a2.37,2.37,0,0,0,1.64-3.23l-17.14-43.86a7.32,7.32,0,0,0-3.51-3.57s-3.07-1.26-9.24.07"/><path class="cls-7" d="M235,178.36l-8.1-2.77a1.54,1.54,0,0,0-1.8.69l-4.59,7.79c-.56,1-2.64,1.17-3.07.07l-13.21-33.8a2.73,2.73,0,0,1,1.55-3.53l14.67-5.73a2.73,2.73,0,0,1,3.53,1.55l13.19,33.76C237.58,177.5,236.1,178.77,235,178.36Z"/><path class="cls-7" d="M235,178.36l-8.1-2.77a1.54,1.54,0,0,0-1.8.69l-4.59,7.79c-.56,1-2.64,1.17-3.07.07l-13.21-33.8a2.73,2.73,0,0,1,1.55-3.53l14.67-5.73a2.73,2.73,0,0,1,3.53,1.55l13.19,33.76C237.58,177.5,236.1,178.77,235,178.36Z"/><line class="cls-6" x1="171.7" y1="184.19" x2="188.14" y2="177.77"/><line class="cls-6" x1="171.7" y1="184.19" x2="188.14" y2="177.77"/><line class="cls-6" x1="175.56" y1="194.06" x2="191.99" y2="187.64"/><line class="cls-6" x1="175.56" y1="194.06" x2="191.99" y2="187.64"/><line class="cls-6" x1="179.41" y1="203.93" x2="195.85" y2="197.51"/><line class="cls-6" x1="179.41" y1="203.93" x2="195.85" y2="197.51"/><path class="cls-6" d="M209.77,211.53a2.33,2.33,0,0,0,1.65-3.18l-17.14-43.86a5.94,5.94,0,0,0-3.63-3.2s-7.25-1.81-17.61,2.23-14.45,10.29-14.45,10.29a5.94,5.94,0,0,0-.5,4.81l17.14,43.86a2.33,2.33,0,0,0,3.37,1.22,153,153,0,0,1,15.13-7.25A153,153,0,0,1,209.77,211.53Z"/><path class="cls-6" d="M209.77,211.53a2.33,2.33,0,0,0,1.65-3.18l-17.14-43.86a5.94,5.94,0,0,0-3.63-3.2s-7.25-1.81-17.61,2.23-14.45,10.29-14.45,10.29a5.94,5.94,0,0,0-.5,4.81l17.14,43.86a2.33,2.33,0,0,0,3.37,1.22,153,153,0,0,1,15.13-7.25A153,153,0,0,1,209.77,211.53Z"/><path class="cls-6" d="M201.28,153.26c-5.67,3.27-6.92,6.18-6.92,6.18a7.68,7.68,0,0,0-.08,5l17.14,43.86a2.37,2.37,0,0,0,3.4,1.26s9.91-5.26,16.75-7.94,17.69-5.52,17.69-5.52a2.37,2.37,0,0,0,1.64-3.23l-17.14-43.86a7.32,7.32,0,0,0-3.51-3.57s-3.07-1.26-9.24.07"/><path class="cls-6" d="M201.28,153.26c-5.67,3.27-6.92,6.18-6.92,6.18a7.68,7.68,0,0,0-.08,5l17.14,43.86a2.37,2.37,0,0,0,3.4,1.26s9.91-5.26,16.75-7.94,17.69-5.52,17.69-5.52a2.37,2.37,0,0,0,1.64-3.23l-17.14-43.86a7.32,7.32,0,0,0-3.51-3.57s-3.07-1.26-9.24.07"/><path class="cls-6" d="M230.61,177.59l-8.1-2.77a1.54,1.54,0,0,0-1.8.69l-4.59,7.79c-.56,1-2.64,1.17-3.07.07l-13.21-33.8a2.73,2.73,0,0,1,1.55-3.53l14.67-5.73a2.73,2.73,0,0,1,3.53,1.55l13.19,33.76C233.21,176.73,231.73,178,230.61,177.59Z"/><path class="cls-6" d="M230.61,177.59l-8.1-2.77a1.54,1.54,0,0,0-1.8.69l-4.59,7.79c-.56,1-2.64,1.17-3.07.07l-13.21-33.8a2.73,2.73,0,0,1,1.55-3.53l14.67-5.73a2.73,2.73,0,0,1,3.53,1.55l13.19,33.76C233.21,176.73,231.73,178,230.61,177.59Z"/><line class="cls-8" x1="41.11" y1="180.06" x2="59.35" y2="195.15"/><line class="cls-8" x1="50.2" y1="169.07" x2="68.44" y2="184.16"/><line class="cls-8" x1="41.11" y1="180.06" x2="59.35" y2="195.15"/><line class="cls-8" x1="59.29" y1="158.08" x2="77.53" y2="173.17"/><line class="cls-8" x1="68.37" y1="147.09" x2="86.61" y2="162.18"/><line class="cls-8" x1="70.42" y1="204.3" x2="92.32" y2="222.42"/><line class="cls-8" x1="70.42" y1="204.3" x2="92.32" y2="222.42"/><rect class="cls-8" x="85.29" y="177.17" width="28.52" height="28.42" transform="translate(-111.37 146.13) rotate(-50.41)"/><path class="cls-8" d="M61.93,132.48l4.37-5.28,66.88,55.3a8.52,8.52,0,0,1,.82,11.95L99.32,236.38A8,8,0,0,1,88,237.56L15.75,177.8"/><path class="cls-8" d="M25.55,176.47a7.31,7.31,0,0,1-10.14,1.07,7.28,7.28,0,0,1-.85-10.1l36.41-44,11,9.06Z"/><line class="cls-6" x1="36.8" y1="173.69" x2="55.04" y2="188.77"/><line class="cls-6" x1="45.89" y1="162.7" x2="64.13" y2="177.78"/><line class="cls-6" x1="36.8" y1="173.69" x2="55.04" y2="188.77"/><line class="cls-6" x1="54.97" y1="151.71" x2="73.21" y2="166.79"/><line class="cls-6" x1="64.06" y1="140.72" x2="82.3" y2="155.8"/><line class="cls-6" x1="66.11" y1="197.93" x2="88.01" y2="216.04"/><line class="cls-6" x1="66.11" y1="197.93" x2="88.01" y2="216.04"/><rect class="cls-6" x="80.97" y="170.79" width="28.52" height="28.42" transform="translate(-108.03 140.5) rotate(-50.41)"/><path class="cls-6" d="M57.62,126.1,62,120.83l66.88,55.3a8.52,8.52,0,0,1,.82,11.95L95,230a8,8,0,0,1-11.31,1.17L11.44,171.42"/><path class="cls-6" d="M21.24,170.1a7.31,7.31,0,0,1-10.14,1.07,7.28,7.28,0,0,1-.85-10.1l36.41-44,11,9.06Z"/><line class="cls-8" x1="154.26" y1="128.14" x2="167.93" y2="125.38"/><line class="cls-8" x1="152.6" y1="119.9" x2="166.27" y2="117.15"/><line class="cls-8" x1="154.26" y1="128.14" x2="167.93" y2="125.38"/><line class="cls-8" x1="150.94" y1="111.67" x2="164.61" y2="108.91"/><line class="cls-8" x1="149.27" y1="103.43" x2="162.95" y2="100.67"/><line class="cls-8" x1="176.23" y1="123.71" x2="192.64" y2="120.4"/><line class="cls-8" x1="176.23" y1="123.71" x2="192.64" y2="120.4"/><rect class="cls-8" x="172.74" y="97.18" width="16.75" height="16.81" transform="translate(-17.3 37.89) rotate(-11.4)"/><path class="cls-8" d="M140.19,101l-.8-4,50.13-10.11a5,5,0,0,1,5.78,4.05l6.34,31.43A4.71,4.71,0,0,1,198,128l-54.16,10.92"/><path class="cls-8" d="M146.84,133.93a4.19,4.19,0,1,1-8.21,1.68l-6.65-33,8.22-1.66Z"/><line class="cls-9" x1="149.74" y1="127.75" x2="163.41" y2="124.99"/><line class="cls-9" x1="148.08" y1="119.51" x2="161.75" y2="116.76"/><line class="cls-9" x1="149.74" y1="127.75" x2="163.41" y2="124.99"/><line class="cls-9" x1="146.42" y1="111.28" x2="160.09" y2="108.52"/><line class="cls-9" x1="144.76" y1="103.04" x2="158.43" y2="100.28"/><line class="cls-9" x1="171.71" y1="123.32" x2="188.13" y2="120.01"/><line class="cls-9" x1="171.71" y1="123.32" x2="188.13" y2="120.01"/><rect class="cls-9" x="168.22" y="96.79" width="16.75" height="16.81" transform="translate(-17.31 36.99) rotate(-11.4)"/><path class="cls-9" d="M135.68,100.57l-.8-4L185,86.5a5,5,0,0,1,5.78,4.05L197.12,122a4.71,4.71,0,0,1-3.66,5.61L139.3,138.52"/><path class="cls-9" d="M142.33,133.54a4.19,4.19,0,1,1-8.21,1.68l-6.65-33,8.22-1.66Z"/><rect class="cls-3" x="11.93" y="209.56" width="220.38" height="101.13"/><rect class="cls-3" x="85.66" y="209.56" width="72.91" height="28.96"/><line class="cls-10" x1="3.03" y1="203.17" x2="245.81" y2="203.17"/><polyline class="cls-3" points="290.54 118.21 278.87 153.48 74.51 85.85 86.18 50.58"/><polyline class="cls-3" points="86.18 50.58 114.09 10.8 291.88 69.64 290.54 118.21"/><line class="cls-3" x1="86.18" y1="56.66" x2="290.54" y2="124.29"/><polyline class="cls-5" points="287.75 110.45 276.08 145.71 71.72 78.08 83.39 42.82"/><polyline class="cls-5" points="83.39 42.82 111.29 3.04 289.08 61.88 287.75 110.45"/><line class="cls-5" x1="83.39" y1="42.82" x2="287.75" y2="110.45"/><path class="cls-11" d="M109,246.21a4.74,4.74,0,0,0-6.41-1.88L90.7,250.61a4.73,4.73,0,0,0-2.35,3l0,.12a4.65,4.65,0,0,0,6.61,5.35L107,252.68A4.79,4.79,0,0,0,109,246.21Z"/><path class="cls-11" d="M115.7,243.17a4.86,4.86,0,0,0,6.54,1.89l19.16-10a4.75,4.75,0,0,0-.52-8.65l-.11,0a4.74,4.74,0,0,0-3.83.24l-19.24,10.06A4.8,4.8,0,0,0,115.7,243.17Z"/><path class="cls-11" d="M123.86,274.17a4.8,4.8,0,0,0-6.46-1.87L98.11,282.39a4.71,4.71,0,0,0-1.39,7.21l.06.07a4.64,4.64,0,0,0,5.69,1.11l19.41-10.16A4.75,4.75,0,0,0,123.86,274.17Z"/><path class="cls-11" d="M129.65,271.15a4.9,4.9,0,0,0,6.56,1.88l26.57-13.76a4.7,4.7,0,0,0,2.4-5.35l0-.09a4.74,4.74,0,0,0-6.77-3l-26.74,13.84A4.75,4.75,0,0,0,129.65,271.15Z"/><path class="cls-11" d="M152.88,276.8a4.8,4.8,0,0,0,6.43,1.84l3.48-1.8a4.66,4.66,0,0,0,2.35-2.94l0-.11a4.63,4.63,0,0,0-6.63-5.25l-3.7,1.91A4.65,4.65,0,0,0,152.88,276.8Z"/><path class="cls-11" d="M146.17,279.79a4.75,4.75,0,0,0-6.44-1.89l-27.68,14.69a4.78,4.78,0,0,0,.51,8.64l.12,0a4.6,4.6,0,0,0,3.77-.24l27.75-14.73A4.83,4.83,0,0,0,146.17,279.79Z"/><path class="cls-11" d="M141,242.35a4.68,4.68,0,0,0-2,6.44,5,5,0,0,0,6.62,1.87l10.69-5.45a4.64,4.64,0,0,0,1.43-7.2l-.06-.07a4.84,4.84,0,0,0-5.83-1.11Z"/><path class="cls-11" d="M132.22,251.81a4.8,4.8,0,0,0-6.48-1.88L90.68,268.34a4.73,4.73,0,0,0-2.37,5.35l0,.09a4.67,4.67,0,0,0,6.68,3l35.23-18.5A4.78,4.78,0,0,0,132.22,251.81Z"/></g></g></svg>