<svg xmlns="http://www.w3.org/2000/svg" viewBox="0 0 319.32 270.95"><defs><style>.cls-1{fill:#b4c1cc;}.cls-13,.cls-14,.cls-2,.cls-3,.cls-5,.cls-6,.cls-8{fill:none;stroke:#4c708f;stroke-miterlimit:10;}.cls-2,.cls-3{stroke-width:3.13px;}.cls-14,.cls-3,.cls-6{stroke-linecap:round;}.cls-4{fill:#f4865d;}.cls-5,.cls-6{stroke-width:3.46px;}.cls-7{fill:#5eb6ff;}.cls-8{stroke-width:5px;}.cls-9{font-size:22px;fill:#3c5972;font-family:MuseoSans-500, Museo Sans;}.cls-10{letter-spacing:-0.01em;}.cls-11{opacity:0.5;}.cls-12{fill:#c5e4fe;}.cls-13,.cls-14{stroke-width:5.31px;}</style></defs><title>research</title><g id="Layer_2" data-name="Layer 2"><g id="Layer_1-2" data-name="Layer 1"><path class="cls-1" d="M319.28,97.46a2.92,2.92,0,0,0-2.4-3.35L203.63,75.51a2.92,2.92,0,0,0-3.35,2.4L178.74,209.05a2.92,2.92,0,0,0,2.4,3.35L276.34,228a2.92,2.92,0,0,0,3.35-2.4l15.7-95.57a2.92,2.92,0,0,1,3.35-2.4l12.3,2a2.92,2.92,0,0,0,3.35-2.4Z"/><path class="cls-2" d="M314.71,93.56a2.92,2.92,0,0,0-2.4-3.35L199.05,71.61a2.92,2.92,0,0,0-3.35,2.4L174.17,205.16a2.92,2.92,0,0,0,2.4,3.35l95.2,15.64a2.92,2.92,0,0,0,3.35-2.4l15.7-95.57a2.92,2.92,0,0,1,3.35-2.4l12.3,2a2.92,2.92,0,0,0,3.35-2.4Z"/><line class="cls-3" x1="210.44" y1="98.02" x2="278.02" y2="109.13"/><line class="cls-3" x1="207.5" y1="115.92" x2="275.08" y2="127.02"/><line class="cls-3" x1="204.56" y1="133.82" x2="272.14" y2="144.92"/><line class="cls-3" x1="201.62" y1="151.72" x2="269.2" y2="162.82"/><line class="cls-3" x1="198.68" y1="169.62" x2="266.26" y2="180.72"/><line class="cls-3" x1="195.73" y1="187.52" x2="263.32" y2="198.62"/><path class="cls-4" d="M.35,69.94a3.23,3.23,0,0,1,1.4-4.33L114.59,7.73a3.23,3.23,0,0,1,4.33,1.4l67,130.66a3.23,3.23,0,0,1-1.4,4.33L89.69,192.77a3.23,3.23,0,0,1-4.33-1.4L36.51,96.15a3.23,3.23,0,0,0-4.33-1.4L19.92,101a3.23,3.23,0,0,1-4.33-1.4Z"/><path class="cls-5" d="M3.84,64.29A3.23,3.23,0,0,1,5.24,60L118.08,2.08a3.23,3.23,0,0,1,4.33,1.4l67,130.66a3.23,3.23,0,0,1-1.4,4.33L93.18,187.12a3.23,3.23,0,0,1-4.33-1.4L40,90.5a3.23,3.23,0,0,0-4.33-1.4L23.41,95.39A3.23,3.23,0,0,1,19.08,94Z"/><line class="cls-6" x1="115.04" y1="33.71" x2="47.7" y2="68.25"/><line class="cls-6" x1="124.19" y1="51.55" x2="56.85" y2="86.08"/><line class="cls-6" x1="133.33" y1="69.38" x2="65.99" y2="103.92"/><line class="cls-6" x1="142.48" y1="87.21" x2="75.14" y2="121.75"/><line class="cls-6" x1="151.63" y1="105.05" x2="84.29" y2="139.59"/><line class="cls-6" x1="160.77" y1="122.88" x2="93.43" y2="157.42"/><path class="cls-7" d="M285.11,42.25a4.67,4.67,0,0,0-4.66-4.66H97a4.67,4.67,0,0,0-4.66,4.66V254.69A4.67,4.67,0,0,0,97,259.34H251.21a4.67,4.67,0,0,0,4.66-4.66V99.87a4.67,4.67,0,0,1,4.66-4.66h19.93a4.67,4.67,0,0,0,4.66-4.66Z"/><path class="cls-8" d="M276.89,37.29a4.67,4.67,0,0,0-4.66-4.66H88.77a4.67,4.67,0,0,0-4.66,4.66V249.72a4.67,4.67,0,0,0,4.66,4.66H243a4.67,4.67,0,0,0,4.66-4.66V94.9a4.67,4.67,0,0,1,4.66-4.66h19.93a4.67,4.67,0,0,0,4.66-4.66Z"/><path class="cls-8" d="M207.85,140.81A171.83,171.83,0,0,1,180.63,127c-2.16-1.38-3.92-3.5-3.92-4.7s1.18-3.79,2.62-5.75,4.91-10,6-11.9-.67-8.89-.67-11.45v-.5a34.41,34.41,0,0,0-1.48-9.07S179,71,166,71c-12.71,0-17.2,12.69-17.2,12.69a32.52,32.52,0,0,0-1.55,9v.5a45,45,0,0,1-1,8.66c-.53,2.2,3.13,8.23,4.1,10.6a18.64,18.64,0,0,0,2.23,4.09c1.44,2,2.62,4.54,2.62,5.75s-1.76,3.32-3.92,4.7a171.79,171.79,0,0,1-27.22,13.77l-1.21.46a29.82,29.82,0,0,0-.79,7.12V150a22.12,22.12,0,0,0,.7,6.22c.38.86,4.51,1.56,7.07,1.56h72.25a21.86,21.86,0,0,0,6.21-.7c.86-.39,1.56-4.51,1.56-7.07v-1.65a29.69,29.69,0,0,0-.8-7.12Z"/><text class="cls-9" transform="translate(139.04 193.22)"><tspan class="cls-10">F</tspan><tspan x="11.24" y="0">amily </tspan><tspan x="-4.03" y="26.4">Record</tspan></text><g class="cls-11"><circle class="cls-12" cx="229.32" cy="105.82" r="51.52"/></g><path class="cls-1" d="M269.2,135.07,307.09,173a7.06,7.06,0,0,1,0,10h0a7.06,7.06,0,0,1-10,0L259.22,145"/><path class="cls-13" d="M263.79,136l37.89,37.89a7.06,7.06,0,0,1,0,10h0a7.06,7.06,0,0,1-10,0L253.8,146"/><circle class="cls-13" cx="222.71" cy="104.94" r="51.52"/><path class="cls-14" d="M225.43,65a51.59,51.59,0,0,1,34.31,24.83"/></g></g></svg>